<?xml version="1.0" encoding="UTF-8" standalone="no"?>
<!-- Created with Inkscape (http://www.inkscape.org/) -->

<svg
   width="809.16382"
   height="1055.7115"
   viewBox="0 0 809.16382 1055.7115"
   version="1.1"
   id="svg5"
   xml:space="preserve"
   xmlns="http://www.w3.org/2000/svg"
   xmlns:svg="http://www.w3.org/2000/svg"><defs
     id="defs2" /><g
     id="layer1"
     transform="translate(-368.06531,-7.5660853)"><path
       style="fill:#eccea0;fill-opacity:1;stroke:#e1b97b;stroke-width:19.7689;stroke-linecap:round;stroke-linejoin:round;stroke-dasharray:none;stroke-opacity:1;paint-order:normal"
       d="m 410.15683,678.47801 c 0,0 26.73153,-34.26913 21.00334,-85.67283 -5.72818,-51.40371 -47.73485,-144.6919 -47.73485,-144.6919 0,0 5.72818,-60.92291 45.82546,-89.48052 40.09727,-28.55761 13.36575,-102.8074 13.36575,-102.8074 0,0 1.90939,-79.96131 13.36576,-95.19203 11.45637,-15.23073 -32.4597,-38.07683 -32.4597,-38.07683 0,0 -30.5503,-30.461443 1.9094,-57.115214 32.4597,-26.65377 76.37576,-38.076814 76.37576,-38.076814 0,0 63.01,-5.711523 74.46637,3.807681 11.45636,9.519204 47.73484,24.749929 99.28849,22.846089 51.55363,-1.903841 76.37576,53.307538 76.37576,53.307538 0,0 47.73485,74.24979 84.01333,78.05748 36.27849,3.80768 63.01001,45.69217 63.01001,45.69217 0,0 19.09394,43.78834 21.00333,68.53827 1.9094,24.74993 43.91607,41.88449 43.91607,41.88449 0,0 38.18789,17.13457 63.00999,79.96131 24.8221,62.82675 30.5503,74.24979 30.5503,74.24979 0,0 43.916,59.01907 61.1007,72.34596 17.1845,13.32688 45.8254,79.96131 45.8254,79.96131 0,0 3.8188,72.34594 -19.094,93.28819 -22.9127,20.94225 -15.2751,76.15364 -15.2751,76.15364 0,0 -1.9094,41.88449 -68.7382,64.73058 -66.82879,22.84609 -57.2818,38.07681 -57.2818,38.07681 0,0 -7.63759,36.17298 -84.01336,47.59603 -76.37576,11.42304 -84.01334,13.32688 -84.01334,13.32688 0,0 -85.92272,41.88441 -84.01333,55.21141 1.9094,13.3268 -154.66092,11.423 -154.66092,11.423 0,0 -49.64424,-1.9038 -87.83212,-72.34593 -38.18788,-70.44211 -34.36909,-93.2882 -34.36909,-93.2882 l -40.09728,-98.99972 c 0,0 -40.09728,-60.9229 -24.82213,-104.71124 z"
       id="path18185" /></g></svg>
