<?xml version="1.0" encoding="UTF-8" standalone="no"?>
<!-- Created with Inkscape (http://www.inkscape.org/) -->

<svg
   width="798.59717"
   height="1005.2125"
   viewBox="0 0 798.59717 1005.2125"
   version="1.1"
   id="svg5"
   xml:space="preserve"
   inkscape:export-filename="lanka2.svg"
   inkscape:export-xdpi="96"
   inkscape:export-ydpi="96"
   sodipodi:docname="beach2.svg"
   inkscape:version="1.2.1 (9c6d41e, 2022-07-14)"
   xmlns:inkscape="http://www.inkscape.org/namespaces/inkscape"
   xmlns:sodipodi="http://sodipodi.sourceforge.net/DTD/sodipodi-0.dtd"
   xmlns="http://www.w3.org/2000/svg"
   xmlns:svg="http://www.w3.org/2000/svg"><sodipodi:namedview
     id="namedview7"
     pagecolor="#ffffff"
     bordercolor="#000000"
     borderopacity="0.25"
     inkscape:showpageshadow="2"
     inkscape:pageopacity="0.0"
     inkscape:pagecheckerboard="0"
     inkscape:deskcolor="#d1d1d1"
     inkscape:document-units="px"
     showgrid="false"
     inkscape:zoom="0.34934137"
     inkscape:cx="111.63865"
     inkscape:cy="512.39279"
     inkscape:window-width="1440"
     inkscape:window-height="900"
     inkscape:window-x="1920"
     inkscape:window-y="0"
     inkscape:window-maximized="0"
     inkscape:current-layer="layer1" /><defs
     id="defs2" /><g
     inkscape:label="Layer 1"
     inkscape:groupmode="layer"
     id="layer1"
     transform="translate(-381.77454,-40.26366)"><path
       style="display:inline;fill:#eccea0;fill-opacity:1;stroke:#e1b97b;stroke-width:20;stroke-linecap:round;stroke-linejoin:round;stroke-dasharray:none;stroke-opacity:1;paint-order:normal"
       d="m 600.81563,730.00411 c 0,0 13.1708,-67.50264 -0.325,-118.13584 -13.62047,-51.10121 -30.59657,-149.53442 -30.59657,-149.53442 0,0 39.56287,-13.90856 60.00287,-54.42726 22.4202,-44.44435 4.6893,-110.03618 4.6893,-110.03618 0,0 -48.99071,-61.42954 10.5646,-80.77766 18.3453,-5.95993 -35.729,-45.43266 -35.729,-45.43266 0,0 -23.33253,-19.62795 9.4588,-46.63261 32.7914,-27.004657 70.0509,3.07474 70.0509,3.07474 0,0 26.3007,-26.20307 41.3551,-26.77278 14.3519,-0.54313 54.585,6.25822 101.1085,18.68463 50.351,13.44873 65.1162,27.61407 65.1162,27.61407 0,0 54.4327,24.71388 76.0734,54.54213 18.5893,25.62232 66.89537,82.41354 66.89537,82.41354 0,0 60.9635,24.28849 68.2838,48.34941 13.9688,45.91413 14.8958,70.93625 14.8958,70.93625 0,0 22.3204,35.2436 83.566,65.73252 24.6127,12.25255 51.2378,40.49667 51.2378,40.49667 0,0 24.8613,46.28993 44.2482,100.32543 7.427,20.70084 13.7969,87.53362 13.7969,87.53362 0,0 50.0311,72.11444 26.8842,93.33239 -23.1468,21.21795 -53.7574,71.69362 -53.7574,71.69362 0,0 -11.208,5.0914 -29.4184,76.89337 -6.5863,25.96912 -65.6975,68.15971 -65.6975,68.15971 0,0 -17.6297,22.4003 -95.3124,15.1608 -34.5239,-3.2174 -59.6404,8.282 -59.6404,8.282 0,0 -65.86557,29.9812 -104.88287,44.6277 -83.0428,31.1729 -145.794,-16.94 -145.794,-16.94 0,0 -41.114,16.9408 -93.6257,-44.9009 -52.2873,-61.5772 -47.4502,-76.89028 -47.4502,-76.89028 l -17.9849,-75.82246 c 0,0 -66.94601,-67.60028 -28.0134,-131.54955 z"
       id="path18185"
       inkscape:export-filename="beach1.svg"
       inkscape:export-xdpi="96"
       inkscape:export-ydpi="96"
       sodipodi:nodetypes="cscscscscsscscscscscscscscscsccc" /><path
       sodipodi:type="star"
       style="fill:#000000;stroke:none;stroke-width:20;stroke-linecap:round;stroke-linejoin:round"
       id="path425"
       inkscape:flatsided="true"
       sodipodi:sides="3"
       sodipodi:cx="312.09857"
       sodipodi:cy="235.27431"
       sodipodi:r1="163.25941"
       sodipodi:r2="81.6297"
       sodipodi:arg1="-0.0098036075"
       sodipodi:arg2="1.0373939"
       inkscape:rounded="0"
       inkscape:randomized="0"
       d="M 475.35014,233.6738 231.85887,377.45457 229.08671,94.694554 Z"
       transform="matrix(0.52556131,0,0,0.52556131,975.4153,238.54878)"
       inkscape:transform-center-x="-21.085444"
       inkscape:transform-center-y="0.42058547"
       inkscape:export-filename="../icons/play.svg"
       inkscape:export-xdpi="96"
       inkscape:export-ydpi="96" /><path
       sodipodi:type="star"
       style="fill:#eccea0;stroke:#e1b97b;stroke-width:20;stroke-linecap:round;stroke-linejoin:round"
       id="path427"
       inkscape:flatsided="true"
       sodipodi:sides="3"
       sodipodi:cx="64.020218"
       sodipodi:cy="313.69907"
       sodipodi:r1="9.6030331"
       sodipodi:r2="4.8015165"
       sodipodi:arg1="-1.5707963"
       sodipodi:arg2="-0.52359878"
       inkscape:rounded="0"
       inkscape:randomized="0"
       d="m 64.020218,304.09603 8.31647,14.40455 -16.632941,0 z"
       transform="translate(381.77454,40.26366)"
       inkscape:transform-center-y="-2.4007582" /><g
       id="g13402"
       transform="matrix(0.21993946,0,0,0.21993946,222.69334,1088.4409)"
       inkscape:export-filename="destinations/lotusTower.svg"
       inkscape:export-xdpi="96"
       inkscape:export-ydpi="96"><path
         style="fill:#3dbd32;fill-opacity:1;stroke:#378727;stroke-width:10;stroke-linecap:round;stroke-linejoin:round;stroke-dasharray:none;stroke-opacity:1"
         d="M 81.560358,1292.2094 H -179.71217 c 0,0 59.2959,-226.0656 74.11987,-378.0113 14.781321,-151.50859 40.2199,-1308.90125 40.2199,-1308.90125 l 92.932001,-4.44292 -7.148126,1317.05017 c 0,0 7.411979,220.5066 61.148883,374.3053 z"
         id="path1235"
         sodipodi:nodetypes="ccscccc" /><path
         style="fill:#d930d9;fill-opacity:1;stroke:#761e74;stroke-width:9.41304;stroke-linecap:round;stroke-linejoin:round;stroke-dasharray:none;stroke-opacity:1"
         d="m -66.401645,-364.79109 c 0,0 -115.075785,-96.81352 -114.200385,-253.73005 0.86538,-155.12098 128.932474,-463.33986 181.945298,-464.75996 64.486096,-1.7274 161.157122,227.09949 153.581032,370.32402 -4.61287,87.20552 72.0533,296.61404 -137.468688,348.16599 -41.774271,10.27837 -83.857257,0 -83.857257,0 z"
         id="path3469"
         sodipodi:nodetypes="cssssc" /><path
         style="fill:#d930d9;fill-opacity:1;stroke:#761e74;stroke-width:10;stroke-linecap:round;stroke-linejoin:round;stroke-dasharray:none;stroke-opacity:1"
         d="m -5.9731597,-358.51751 c 0,0 -101.8652903,-536.43972 -167.5261003,-524.39232 -39.89366,7.31966 -133.40553,551.38166 167.5261003,524.39232 z"
         id="path4977"
         sodipodi:nodetypes="csc" /><path
         style="fill:#d930d9;fill-opacity:1;stroke:#761e74;stroke-width:10;stroke-linecap:round;stroke-linejoin:round;stroke-dasharray:none;stroke-opacity:1"
         d="m -6.66137,-358.57678 c 0,0 108.56406,-499.74405 197.13151,-497.87762 32.06383,0.6757 80.18404,508.43059 -197.13151,497.87762 z"
         id="path4979"
         sodipodi:nodetypes="csc" /><path
         style="fill:#d930d9;fill-opacity:1;stroke:#761e74;stroke-width:10;stroke-linecap:round;stroke-linejoin:round;stroke-dasharray:none;stroke-opacity:1"
         d="m -8.01225,-353.75994 c 0,0 -172.25321,-187.7838 -138.3587,-295.11639 33.8945,-107.33259 146.8235594,-300.62516 146.8235594,-300.62516 0,0 136.9552106,228.63003 128.4815806,335.96262 -8.47363,107.3326 -136.94644,259.77893 -136.94644,259.77893 z"
         id="path5707"
         sodipodi:nodetypes="cscsc" /><path
         style="fill:#ececec;fill-opacity:1;stroke:#bcb8b8;stroke-width:10;stroke-linecap:round;stroke-linejoin:round;stroke-dasharray:none;stroke-opacity:1"
         d="m -44.885692,-1015.5578 6.932396,-72.8914 31.053561,-7.7965 48.152331,-672.4167 -13.2969,672.1157 33.063384,8.9616 6.068272,65.7686 c 0,0 -21.639594,60.45871 -111.973044,6.2587 z"
         id="path8613"
         sodipodi:nodetypes="cccccccc" /><path
         style="fill:#3dbd32;fill-opacity:1;stroke:#378727;stroke-width:10;stroke-linecap:round;stroke-linejoin:round;stroke-dasharray:none;stroke-opacity:1"
         d="m -324.09568,1334.3235 -42.07878,-163.233 c 0,0 147.40454,-64.4802 330.437824,-58.391 182.975776,6.0873 316.218846,83.9039 316.218846,83.9039 l -44.72806,161.1036 c 0,0 -412.49058,86.947 -559.84983,-23.3835 z"
         id="path11927"
         sodipodi:nodetypes="ccsccc" /></g><path
       style="fill:#ffffff;fill-opacity:1;stroke:none;stroke-width:10;stroke-linecap:round;stroke-linejoin:round;stroke-dasharray:none;stroke-opacity:1;paint-order:fill markers stroke"
       d="m -445.28531,563.97754 c 0,0 39.30031,-76.77439 104.74278,-91.13981 55.77212,-12.24266 102.02218,70.73538 102.02218,70.73538 0,0 31.2868,-55.77213 91.13982,-51.69124 59.853014,4.08088 73.45597,44.88976 80.25745,82.97804 6.80148,38.08828 -10.88236,19.04414 -10.88236,19.04414 0,0 -31.28681,-57.13242 -69.37509,-57.13242 -38.08828,0 -74.81627,39.44858 -74.81627,39.44858 0,0 -17.68384,9.52206 -29.9265,2.72059 -12.24267,-6.80148 -34.0074,-69.37509 -74.81627,-69.37509 -40.80888,0 -72.09568,28.56621 -118.34574,54.41183 z"
       id="path13639"
       sodipodi:nodetypes="cscsscscssc" /></g></svg>
