<?xml version="1.0" encoding="UTF-8" standalone="no"?>
<!-- Created with Inkscape (http://www.inkscape.org/) -->

<svg
   width="798.59717"
   height="1005.2125"
   viewBox="0 0 798.59717 1005.2125"
   version="1.1"
   id="svg5"
   xml:space="preserve"
   inkscape:export-filename="beach2.svg"
   inkscape:export-xdpi="96"
   inkscape:export-ydpi="96"
   sodipodi:docname="beach2.svg"
   inkscape:version="1.2.1 (9c6d41e, 2022-07-14)"
   xmlns:inkscape="http://www.inkscape.org/namespaces/inkscape"
   xmlns:sodipodi="http://sodipodi.sourceforge.net/DTD/sodipodi-0.dtd"
   xmlns="http://www.w3.org/2000/svg"
   xmlns:svg="http://www.w3.org/2000/svg"><sodipodi:namedview
     id="namedview7"
     pagecolor="#ffffff"
     bordercolor="#000000"
     borderopacity="0.25"
     inkscape:showpageshadow="2"
     inkscape:pageopacity="0.0"
     inkscape:pagecheckerboard="0"
     inkscape:deskcolor="#d1d1d1"
     inkscape:document-units="px"
     showgrid="false"
     inkscape:zoom="0.34934137"
     inkscape:cx="111.63865"
     inkscape:cy="512.39279"
     inkscape:window-width="1440"
     inkscape:window-height="900"
     inkscape:window-x="1920"
     inkscape:window-y="0"
     inkscape:window-maximized="0"
     inkscape:current-layer="layer1" /><defs
     id="defs2" /><g
     inkscape:label="Layer 1"
     inkscape:groupmode="layer"
     id="layer1"
     transform="translate(-382.41736,-39.767832)"><path
       style="display:inline;fill:#eccea0;fill-opacity:1;stroke:#e1b97b;stroke-width:19.6783;stroke-linecap:round;stroke-linejoin:round;stroke-dasharray:none;stroke-opacity:1;paint-order:normal"
       d="m 431.20983,680.83955 c 0,0 12.93413,-66.54403 -0.31916,-116.45819 -13.37572,-50.37552 -30.04678,-147.41088 -30.04678,-147.41088 0,0 38.85196,-13.71104 58.92467,-53.65434 22.01732,-43.81319 4.60504,-108.47355 4.60504,-108.47355 0,0 -48.11039,-60.55718 10.37476,-79.63053 18.01565,-5.8753 -35.08698,-44.78747 -35.08698,-44.78747 0,0 -22.91326,-19.34922 9.28883,-45.970386 32.20217,-26.621163 68.79214,3.031076 68.79214,3.031076 0,0 25.8281,-25.83096 40.61198,-26.392579 14.09401,-0.535417 53.60415,6.169347 99.29166,18.419289 49.44623,13.257744 63.94611,27.22192 63.94611,27.22192 0,0 53.45459,24.36292 74.70642,53.76758 18.25527,25.25846 65.69331,81.24318 65.69331,81.24318 0,0 59.86803,23.94357 67.05679,47.6628 13.7178,45.26211 14.62814,69.92889 14.62814,69.92889 0,0 21.91932,34.7431 82.06434,64.79905 24.1705,12.07855 50.3171,39.92157 50.3171,39.92157 0,0 24.4146,45.63257 43.4531,98.90071 7.2936,20.40687 13.549,86.29055 13.549,86.29055 0,0 49.1321,71.09034 26.4011,92.00698 -22.7309,20.91663 -52.7914,70.6755 -52.7914,70.6755 0,0 -11.0066,5.01909 -28.8898,75.8014 -6.4679,25.60033 -64.5169,67.19177 -64.5169,67.19177 0,0 -17.31296,22.0822 -93.59975,14.94551 -33.90353,-3.17171 -58.5687,8.16438 -58.5687,8.16438 0,0 -64.68202,29.55552 -102.99821,43.99402 -81.55058,30.7302 -143.17419,-16.6995 -143.17419,-16.6995 0,0 -40.37522,16.7003 -91.94332,-44.26327 -51.34774,-60.70274 -46.59756,-75.79836 -46.59756,-75.79836 l -17.66172,-74.74571 c 0,0 -65.74304,-66.64028 -27.51002,-129.68141 z"
       id="path18185"
       inkscape:export-filename="beach1.svg"
       inkscape:export-xdpi="96"
       inkscape:export-ydpi="96"
       sodipodi:nodetypes="cscscscscsscscscscscscscscscsccc" /></g></svg>
