<?xml version="1.0" encoding="UTF-8" standalone="no"?>
<!-- Created with Inkscape (http://www.inkscape.org/) -->

<svg
   width="798.59717"
   height="1005.2125"
   viewBox="0 0 798.59717 1005.2125"
   version="1.1"
   id="svg5"
   xml:space="preserve"
   inkscape:export-filename="beach2.svg"
   inkscape:export-xdpi="96"
   inkscape:export-ydpi="96"
   sodipodi:docname="beach2.svg"
   inkscape:version="1.2.1 (9c6d41e, 2022-07-14)"
   xmlns:inkscape="http://www.inkscape.org/namespaces/inkscape"
   xmlns:sodipodi="http://sodipodi.sourceforge.net/DTD/sodipodi-0.dtd"
   xmlns="http://www.w3.org/2000/svg"
   xmlns:svg="http://www.w3.org/2000/svg"><sodipodi:namedview
     id="namedview7"
     pagecolor="#ffffff"
     bordercolor="#000000"
     borderopacity="0.25"
     inkscape:showpageshadow="2"
     inkscape:pageopacity="0.0"
     inkscape:pagecheckerboard="0"
     inkscape:deskcolor="#d1d1d1"
     inkscape:document-units="px"
     showgrid="false"
     inkscape:zoom="0.34934137"
     inkscape:cx="-170.32051"
     inkscape:cy="513.82406"
     inkscape:window-width="1440"
     inkscape:window-height="819"
     inkscape:window-x="1920"
     inkscape:window-y="63"
     inkscape:window-maximized="0"
     inkscape:current-layer="layer1" /><defs
     id="defs2" /><g
     inkscape:label="Layer 1"
     inkscape:groupmode="layer"
     id="layer1"
     transform="translate(-381.77454,-40.26366)"><path
       style="display:inline;fill:#eccea0;fill-opacity:1;stroke:#e1b97b;stroke-width:19.6783;stroke-linecap:round;stroke-linejoin:round;stroke-dasharray:none;stroke-opacity:1;paint-order:normal"
       d="m 431.20983,680.83955 c 0,0 12.93413,-66.54403 -0.31916,-116.45819 -13.37572,-50.37552 -30.04678,-147.41088 -30.04678,-147.41088 0,0 38.85196,-13.71104 58.92467,-53.65434 22.01732,-43.81319 4.60504,-108.47355 4.60504,-108.47355 0,0 -48.11039,-60.55718 10.37476,-79.63053 18.01565,-5.8753 -35.08698,-44.78747 -35.08698,-44.78747 0,0 -22.91326,-19.34922 9.28883,-45.970386 32.20217,-26.621163 68.79214,3.031076 68.79214,3.031076 0,0 25.8281,-25.83096 40.61198,-26.392579 14.09401,-0.535417 53.60415,6.169347 99.29166,18.419289 49.44623,13.257744 63.94611,27.22192 63.94611,27.22192 0,0 53.45459,24.36292 74.70642,53.76758 18.25527,25.25846 65.69331,81.24318 65.69331,81.24318 0,0 59.86803,23.94357 67.05679,47.6628 13.7178,45.26211 14.62814,69.92889 14.62814,69.92889 0,0 21.91932,34.7431 82.06434,64.79905 24.1705,12.07855 50.3171,39.92157 50.3171,39.92157 0,0 24.4146,45.63257 43.4531,98.90071 7.2936,20.40687 13.549,86.29055 13.549,86.29055 0,0 49.1321,71.09034 26.4011,92.00698 -22.7309,20.91663 -52.7914,70.6755 -52.7914,70.6755 0,0 -11.0066,5.01909 -28.8898,75.8014 -6.4679,25.60033 -64.5169,67.19177 -64.5169,67.19177 0,0 -17.31296,22.0822 -93.59975,14.94551 -33.90353,-3.17171 -58.5687,8.16438 -58.5687,8.16438 0,0 -64.68202,29.55552 -102.99821,43.99402 -81.55058,30.7302 -143.17419,-16.6995 -143.17419,-16.6995 0,0 -40.37522,16.7003 -91.94332,-44.26327 -51.34774,-60.70274 -46.59756,-75.79836 -46.59756,-75.79836 l -17.66172,-74.74571 c 0,0 -65.74304,-66.64028 -27.51002,-129.68141 z"
       id="path18185"
       inkscape:export-filename="beach1.svg"
       inkscape:export-xdpi="96"
       inkscape:export-ydpi="96"
       sodipodi:nodetypes="cscscscscsscscscscscscscscscsccc" /><path
       sodipodi:type="star"
       style="fill:#000000;stroke:none;stroke-width:20;stroke-linecap:round;stroke-linejoin:round"
       id="path425"
       inkscape:flatsided="true"
       sodipodi:sides="3"
       sodipodi:cx="312.09857"
       sodipodi:cy="235.27431"
       sodipodi:r1="163.25941"
       sodipodi:r2="81.6297"
       sodipodi:arg1="-0.0098036075"
       sodipodi:arg2="1.0373939"
       inkscape:rounded="0"
       inkscape:randomized="0"
       d="M 475.35014,233.6738 231.85887,377.45457 229.08671,94.694554 Z"
       transform="matrix(0.52556131,0,0,0.52556131,975.4153,238.54878)"
       inkscape:transform-center-x="-21.085444"
       inkscape:transform-center-y="0.42058547"
       inkscape:export-filename="../icons/play.svg"
       inkscape:export-xdpi="96"
       inkscape:export-ydpi="96" /><path
       sodipodi:type="star"
       style="fill:#eccea0;stroke:#e1b97b;stroke-width:20;stroke-linecap:round;stroke-linejoin:round"
       id="path427"
       inkscape:flatsided="true"
       sodipodi:sides="3"
       sodipodi:cx="64.020218"
       sodipodi:cy="313.69907"
       sodipodi:r1="9.6030331"
       sodipodi:r2="4.8015165"
       sodipodi:arg1="-1.5707963"
       sodipodi:arg2="-0.52359878"
       inkscape:rounded="0"
       inkscape:randomized="0"
       d="m 64.020218,304.09603 8.31647,14.40455 -16.632941,0 z"
       transform="translate(381.77454,40.26366)"
       inkscape:transform-center-y="-2.4007582" /><g
       id="g13402"
       transform="matrix(0.21993946,0,0,0.21993946,222.69334,1088.4409)"
       inkscape:export-filename="destinations/lotusTower.svg"
       inkscape:export-xdpi="96"
       inkscape:export-ydpi="96"><path
         style="fill:#3dbd32;fill-opacity:1;stroke:#378727;stroke-width:10;stroke-linecap:round;stroke-linejoin:round;stroke-dasharray:none;stroke-opacity:1"
         d="M 81.560358,1292.2094 H -179.71217 c 0,0 59.2959,-226.0656 74.11987,-378.0113 14.781321,-151.50859 40.2199,-1308.90125 40.2199,-1308.90125 l 92.932001,-4.44292 -7.148126,1317.05017 c 0,0 7.411979,220.5066 61.148883,374.3053 z"
         id="path1235"
         sodipodi:nodetypes="ccscccc" /><path
         style="fill:#d930d9;fill-opacity:1;stroke:#761e74;stroke-width:9.41304;stroke-linecap:round;stroke-linejoin:round;stroke-dasharray:none;stroke-opacity:1"
         d="m -66.401645,-364.79109 c 0,0 -115.075785,-96.81352 -114.200385,-253.73005 0.86538,-155.12098 128.932474,-463.33986 181.945298,-464.75996 64.486096,-1.7274 161.157122,227.09949 153.581032,370.32402 -4.61287,87.20552 72.0533,296.61404 -137.468688,348.16599 -41.774271,10.27837 -83.857257,0 -83.857257,0 z"
         id="path3469"
         sodipodi:nodetypes="cssssc" /><path
         style="fill:#d930d9;fill-opacity:1;stroke:#761e74;stroke-width:10;stroke-linecap:round;stroke-linejoin:round;stroke-dasharray:none;stroke-opacity:1"
         d="m -5.9731597,-358.51751 c 0,0 -101.8652903,-536.43972 -167.5261003,-524.39232 -39.89366,7.31966 -133.40553,551.38166 167.5261003,524.39232 z"
         id="path4977"
         sodipodi:nodetypes="csc" /><path
         style="fill:#d930d9;fill-opacity:1;stroke:#761e74;stroke-width:10;stroke-linecap:round;stroke-linejoin:round;stroke-dasharray:none;stroke-opacity:1"
         d="m -6.66137,-358.57678 c 0,0 108.56406,-499.74405 197.13151,-497.87762 32.06383,0.6757 80.18404,508.43059 -197.13151,497.87762 z"
         id="path4979"
         sodipodi:nodetypes="csc" /><path
         style="fill:#d930d9;fill-opacity:1;stroke:#761e74;stroke-width:10;stroke-linecap:round;stroke-linejoin:round;stroke-dasharray:none;stroke-opacity:1"
         d="m -8.01225,-353.75994 c 0,0 -172.25321,-187.7838 -138.3587,-295.11639 33.8945,-107.33259 146.8235594,-300.62516 146.8235594,-300.62516 0,0 136.9552106,228.63003 128.4815806,335.96262 -8.47363,107.3326 -136.94644,259.77893 -136.94644,259.77893 z"
         id="path5707"
         sodipodi:nodetypes="cscsc" /><path
         style="fill:#ececec;fill-opacity:1;stroke:#bcb8b8;stroke-width:10;stroke-linecap:round;stroke-linejoin:round;stroke-dasharray:none;stroke-opacity:1"
         d="m -44.885692,-1015.5578 6.932396,-72.8914 31.053561,-7.7965 48.152331,-672.4167 -13.2969,672.1157 33.063384,8.9616 6.068272,65.7686 c 0,0 -21.639594,60.45871 -111.973044,6.2587 z"
         id="path8613"
         sodipodi:nodetypes="cccccccc" /><path
         style="fill:#3dbd32;fill-opacity:1;stroke:#378727;stroke-width:10;stroke-linecap:round;stroke-linejoin:round;stroke-dasharray:none;stroke-opacity:1"
         d="m -324.09568,1334.3235 -42.07878,-163.233 c 0,0 147.40454,-64.4802 330.437824,-58.391 182.975776,6.0873 316.218846,83.9039 316.218846,83.9039 l -44.72806,161.1036 c 0,0 -412.49058,86.947 -559.84983,-23.3835 z"
         id="path11927"
         sodipodi:nodetypes="ccsccc" /></g><path
       style="fill:#ffffff;fill-opacity:1;stroke:none;stroke-width:10;stroke-linecap:round;stroke-linejoin:round;stroke-dasharray:none;stroke-opacity:1;paint-order:fill markers stroke"
       d="m -445.28531,563.97754 c 0,0 39.30031,-76.77439 104.74278,-91.13981 55.77212,-12.24266 102.02218,70.73538 102.02218,70.73538 0,0 31.2868,-55.77213 91.13982,-51.69124 59.853014,4.08088 73.45597,44.88976 80.25745,82.97804 6.80148,38.08828 -10.88236,19.04414 -10.88236,19.04414 0,0 -31.28681,-57.13242 -69.37509,-57.13242 -38.08828,0 -74.81627,39.44858 -74.81627,39.44858 0,0 -17.68384,9.52206 -29.9265,2.72059 -12.24267,-6.80148 -34.0074,-69.37509 -74.81627,-69.37509 -40.80888,0 -72.09568,28.56621 -118.34574,54.41183 z"
       id="path13639"
       sodipodi:nodetypes="cscsscscssc" /></g></svg>
