<?xml version="1.0" encoding="UTF-8" standalone="no"?>
<!-- Created with Inkscape (http://www.inkscape.org/) -->

<svg
   width="809.16382"
   height="1055.7115"
   viewBox="0 0 809.16382 1055.7115"
   version="1.1"
   id="svg5"
   xml:space="preserve"
   inkscape:export-filename="lanka2.svg"
   inkscape:export-xdpi="96"
   inkscape:export-ydpi="96"
   xmlns:inkscape="http://www.inkscape.org/namespaces/inkscape"
   xmlns:sodipodi="http://sodipodi.sourceforge.net/DTD/sodipodi-0.dtd"
   xmlns="http://www.w3.org/2000/svg"
   xmlns:svg="http://www.w3.org/2000/svg"><sodipodi:namedview
     id="namedview7"
     pagecolor="#ffffff"
     bordercolor="#000000"
     borderopacity="0.25"
     inkscape:showpageshadow="2"
     inkscape:pageopacity="0.0"
     inkscape:pagecheckerboard="0"
     inkscape:deskcolor="#d1d1d1"
     inkscape:document-units="px"
     showgrid="false"
     inkscape:zoom="0.36525829"
     inkscape:cx="948.64376"
     inkscape:cy="418.88166"
     inkscape:window-width="1440"
     inkscape:window-height="900"
     inkscape:window-x="0"
     inkscape:window-y="0"
     inkscape:window-maximized="0"
     inkscape:current-layer="layer1" /><defs
     id="defs2" /><g
     inkscape:label="Layer 1"
     inkscape:groupmode="layer"
     id="layer1"
     transform="translate(-368.06531,-7.5660853)"><path
       style="fill:#eccea0;fill-opacity:1;stroke:#e1b97b;stroke-width:20;stroke-linecap:round;stroke-linejoin:round;stroke-dasharray:none;stroke-opacity:1;paint-order:normal"
       d="m 405.06996,678.97441 c 0,0 27.00467,-34.72028 21.21795,-86.8007 -5.78671,-52.08043 -48.22261,-146.59675 -48.22261,-146.59675 0,0 5.78671,-61.72495 46.29371,-90.65852 40.50699,-28.93357 13.50233,-104.16084 13.50233,-104.16084 0,0 1.9289,-81.014 13.50233,-96.44523 11.57343,-15.43124 -32.79138,-38.5781 -32.79138,-38.5781 0,0 -30.86247,-30.862469 1.92891,-57.867133 32.79138,-27.004664 77.15618,-38.578091 77.15618,-38.578091 0,0 63.65385,-5.786714 75.22728,3.857809 11.57343,9.644523 48.22261,25.075759 100.30304,23.146855 52.08042,-1.928905 77.15618,54.00933 77.15618,54.00933 0,0 48.22262,75.22728 84.8718,79.08509 36.64919,3.85781 63.65385,46.29371 63.65385,46.29371 0,0 19.28905,44.3648 21.21795,69.44056 1.92891,25.07576 44.36481,42.4359 44.36481,42.4359 0,0 38.57811,17.36014 63.65381,81.01399 25.0758,63.65385 30.8625,75.22728 30.8625,75.22728 0,0 44.3648,59.79604 61.725,73.29838 17.3601,13.50233 46.2937,81.01399 46.2937,81.01399 0,0 3.8578,73.29837 -19.2891,94.51632 -23.1468,21.21795 -15.4312,77.15619 -15.4312,77.15619 0,0 -1.9289,42.4359 -69.4406,65.58275 -67.51164,23.14686 -57.8671,38.57809 -57.8671,38.57809 0,0 -7.71563,36.64919 -84.87182,48.22262 -77.15618,11.57343 -84.8718,13.50233 -84.8718,13.50233 0,0 -86.8007,42.43586 -84.8718,55.93826 1.92891,13.5023 -156.24127,11.5734 -156.24127,11.5734 0,0 -50.15152,-1.9289 -88.72961,-73.29837 -38.57809,-71.36947 -34.72028,-94.51633 -34.72028,-94.51633 l -40.507,-100.30304 c 0,0 -40.507,-61.72494 -25.07576,-106.08975 z"
       id="path18185" /></g></svg>
