<?xml version="1.0" encoding="UTF-8" standalone="no"?>
<!-- Created with Inkscape (http://www.inkscape.org/) -->

<svg
   width="1920"
   height="1080"
   viewBox="0 0 1920 1080"
   version="1.1"
   id="svg5"
   xml:space="preserve"
   inkscape:export-filename="lanka2.svg"
   inkscape:export-xdpi="96"
   inkscape:export-ydpi="96"
   inkscape:version="1.2.1 (9c6d41e, 2022-07-14)"
   sodipodi:docname="svgarts.svg"
   xmlns:inkscape="http://www.inkscape.org/namespaces/inkscape"
   xmlns:sodipodi="http://sodipodi.sourceforge.net/DTD/sodipodi-0.dtd"
   xmlns="http://www.w3.org/2000/svg"
   xmlns:svg="http://www.w3.org/2000/svg"><sodipodi:namedview
     id="namedview7"
     pagecolor="#ffffff"
     bordercolor="#000000"
     borderopacity="0.25"
     inkscape:showpageshadow="2"
     inkscape:pageopacity="0.0"
     inkscape:pagecheckerboard="0"
     inkscape:deskcolor="#d1d1d1"
     inkscape:document-units="px"
     showgrid="false"
     inkscape:zoom="0.47889874"
     inkscape:cx="800.79559"
     inkscape:cy="505.32603"
     inkscape:window-width="1440"
     inkscape:window-height="900"
     inkscape:window-x="1920"
     inkscape:window-y="38"
     inkscape:window-maximized="0"
     inkscape:current-layer="layer1" /><defs
     id="defs2"><inkscape:path-effect
       effect="bspline"
       id="path-effect17099"
       is_visible="true"
       lpeversion="1"
       weight="33.333333"
       steps="2"
       helper_size="0"
       apply_no_weight="true"
       apply_with_weight="true"
       only_selected="false" /><inkscape:path-effect
       effect="bspline"
       id="path-effect8840"
       is_visible="true"
       lpeversion="1"
       weight="33.333333"
       steps="2"
       helper_size="0"
       apply_no_weight="true"
       apply_with_weight="true"
       only_selected="false" /><inkscape:path-effect
       effect="bspline"
       id="path-effect8035"
       is_visible="true"
       lpeversion="1"
       weight="33.333333"
       steps="2"
       helper_size="0"
       apply_no_weight="true"
       apply_with_weight="true"
       only_selected="false" /><inkscape:path-effect
       effect="bspline"
       id="path-effect605"
       is_visible="true"
       lpeversion="1"
       weight="33.333333"
       steps="2"
       helper_size="0"
       apply_no_weight="true"
       apply_with_weight="true"
       only_selected="false" /><inkscape:path-effect
       effect="bspline"
       id="path-effect601"
       is_visible="true"
       lpeversion="1"
       weight="33.333333"
       steps="2"
       helper_size="0"
       apply_no_weight="true"
       apply_with_weight="true"
       only_selected="false" /><inkscape:path-effect
       effect="bspline"
       id="path-effect488"
       is_visible="true"
       lpeversion="1"
       weight="33.333333"
       steps="2"
       helper_size="0"
       apply_no_weight="true"
       apply_with_weight="true"
       only_selected="false" /><inkscape:path-effect
       effect="bspline"
       id="path-effect480"
       is_visible="true"
       lpeversion="1"
       weight="33.333333"
       steps="2"
       helper_size="0"
       apply_no_weight="true"
       apply_with_weight="true"
       only_selected="false" /><inkscape:path-effect
       effect="bspline"
       id="path-effect247"
       is_visible="true"
       lpeversion="1"
       weight="33.333333"
       steps="2"
       helper_size="0"
       apply_no_weight="true"
       apply_with_weight="true"
       only_selected="false" /></defs><g
     inkscape:label="Layer 1"
     inkscape:groupmode="layer"
     id="layer1"><path
       style="display:none;fill:#eccea0;fill-opacity:1;stroke:#e1b97b;stroke-width:20;stroke-linecap:round;stroke-linejoin:round;stroke-dasharray:none;stroke-opacity:1;paint-order:normal"
       d="m 569.84673,27.772898 c 5.86664,2.740087 13.68867,7.433305 19.94541,9.776386 6.25674,2.343082 10.94996,2.343082 21.11905,3.12583 10.16909,0.782748 25.81315,2.347154 35.59025,3.128813 9.7771,0.781659 13.68811,0.781659 18.38236,1.957549 4.69426,1.175891 10.16968,3.522499 13.68856,5.480421 3.51888,1.957921 5.08329,3.52233 6.2566,4.299534 1.1733,0.777204 1.9555,0.777204 2.3416,1.173305 0.38611,0.396102 0.38611,1.178305 1.17331,1.564407 0.7872,0.386102 2.35161,0.386102 3.52292,1.174304 1.1713,0.788203 1.95351,2.352608 4.30315,3.913429 2.34964,1.560821 6.26066,3.12523 8.99733,4.692223 2.73668,1.566993 4.30109,3.131401 7.4309,5.084908 3.12981,1.953506 7.82303,4.300116 10.55774,6.258625 2.73471,1.95851 3.51692,3.522915 5.08432,4.692219 1.56741,1.169304 3.91402,1.951508 5.86738,3.519684 1.95335,1.568177 3.51776,3.914788 6.64872,6.258627 3.13097,2.343839 7.82419,4.690448 11.34311,5.860753 3.51891,1.170305 5.86552,1.170305 10.95029,1.561955 5.08476,0.39164 12.90679,1.17385 21.12013,4.69732 8.21334,3.52348 16.81758,9.78111 21.11405,13.30191 4.29647,3.52081 4.29647,4.30302 4.69257,4.68912 0.3961,0.3861 1.1783,0.3861 1.95697,1.95639 0.77867,1.57029 1.56088,4.6991 2.34661,6.25762 0.78574,1.55853 1.56794,1.55853 1.95404,2.73683 0.3861,1.17831 0.3861,3.52492 1.95292,8.61028 1.56682,5.08535 4.69563,12.90738 6.25763,17.59957 1.56199,4.69218 1.56199,6.25659 2.3492,7.82099 0.7872,1.56441 2.35161,3.12882 3.12881,4.30212 0.7772,1.17331 0.7772,1.95551 1.56541,2.73571 0.7882,0.78021 2.35261,1.56241 5.87188,4.30171 3.51926,2.7393 8.99468,7.43252 13.68755,11.73505 4.69287,4.30253 8.60388,8.21354 11.73369,10.55715 3.12982,2.34361 5.47643,3.12582 6.64374,3.91102 1.1673,0.7852 1.1673,1.56741 1.5634,1.95351 0.3961,0.3861 1.17831,0.3861 3.52492,2.34661 2.34661,1.96051 6.25762,5.87152 8.20813,8.21813 1.95051,2.34661 1.95051,3.12882 2.73871,3.90902 0.7882,0.7802 2.35261,1.56241 3.12882,2.73771 0.7762,1.17531 0.7762,2.73971 1.56225,4.69599 0.78605,1.95628 2.35045,4.30289 3.12881,6.64873 0.77836,2.34584 0.77836,4.69245 1.17446,6.25685 0.3961,1.56441 1.1783,2.34661 1.56441,3.51991 0.3861,1.17331 0.3861,2.73772 1.1713,5.08533 0.7852,2.34761 2.34961,5.47642 3.12882,7.82203 0.7792,2.34561 0.7792,3.91002 1.95603,6.64861 1.17684,2.7386 3.52345,6.64961 5.08633,9.77854 1.56287,3.12893 2.34508,5.47554 3.52238,7.03694 1.1773,1.56141 2.74171,2.34362 3.51792,3.12782 0.7762,0.78421 0.7762,1.56641 2.73671,3.91302 1.9605,2.34661 5.87152,6.25763 8.60923,8.20813 2.73771,1.95051 4.30212,1.95051 6.2584,2.73656 1.95627,0.78605 4.30288,2.35046 7.04071,3.52139 2.73783,1.17093 5.86664,1.95313 8.21236,3.12996 2.34573,1.17684 3.91014,2.74124 5.47454,3.51845 1.56441,0.7772 3.12881,0.7772 3.90602,1.1733 0.7772,0.3961 0.7772,1.17831 2.34721,2.74191 1.57,1.56361 4.69882,3.91022 6.25762,5.86653 1.55881,1.95631 1.55881,3.52071 1.95491,4.29791 0.3961,0.77721 1.17831,0.77721 2.34903,2.73875 1.17072,1.96155 2.73512,5.87256 3.51491,8.60924 0.77979,2.73668 0.77979,4.30108 1.95535,8.21312 1.17557,3.91205 3.52218,10.16968 5.08932,13.29246 1.56715,3.12279 2.34936,3.12279 2.73546,3.51889 0.3861,0.3961 0.3861,1.1783 1.1743,1.95851 0.78821,0.7802 2.35261,1.5624 3.52291,2.73871 1.17031,1.1763 1.95252,2.74071 3.12782,3.51692 1.1753,0.7762 2.73971,0.7762 3.51692,1.1723 0.7772,0.3961 0.7772,1.1783 3.52096,2.7403 2.74379,1.562 8.21919,3.9086 10.95079,5.47542 2.7317,1.56682 2.7317,2.34902 5.0833,5.08672 2.3516,2.7377 7.0449,7.43096 9.3865,10.16866 2.3416,2.73771 2.3416,3.51991 2.7377,3.90601 0.3961,0.3861 1.1783,0.3861 1.5644,1.1733 0.3861,0.78721 0.3861,2.35162 0.7822,3.52492 0.3961,1.17331 1.1783,1.95551 1.5644,3.12881 0.3861,1.17331 0.3861,2.73772 0.7822,3.51492 0.3961,0.7772 1.1783,0.7772 1.5644,1.9555 0.3861,1.17831 0.3861,3.52492 0.7822,5.08933 0.3961,1.5644 1.1783,2.34661 1.956,6.64917 0.7778,4.30256 1.56,12.1246 2.3466,16.03017 0.7867,3.90557 1.5689,3.90557 1.955,5.47497 0.3861,1.56941 0.3861,4.69823 0.7822,6.25763 0.3961,1.55941 1.1783,1.55941 1.5644,2.34661 0.3861,0.7872 0.3861,2.35161 0.7822,3.12881 0.3961,0.77721 1.1784,0.77721 1.5645,1.56441 0.3861,0.7872 0.3861,2.35161 0.7822,3.12881 0.3961,0.77721 1.1783,0.77721 1.9575,1.95651 0.7792,1.17931 1.5614,3.52592 2.7387,5.08733 1.1773,1.5614 2.7417,2.34361 4.3039,3.91078 1.5623,1.56718 3.1267,3.91379 4.3011,5.08132 1.1745,1.16754 1.9567,1.16754 3.128,2.73795 1.1713,1.5704 2.7357,4.69921 3.911,6.25762 1.1753,1.5584 1.9575,1.5584 2.7378,2.3466 0.7802,0.78821 1.5624,2.35262 2.7387,3.52292 1.1763,1.1703 2.7407,1.95251 3.911,3.12881 1.1703,1.17631 1.9525,2.74072 2.7367,3.51692 0.7842,0.7762 1.5664,0.7762 1.9525,1.1723 0.3861,0.39611 0.3861,1.17831 0.7822,1.56441 0.3961,0.3861 1.1783,0.3861 1.5644,0.7822 0.3861,0.39611 0.3861,1.17831 0.7822,1.56441 0.3961,0.3861 1.1783,0.3861 3.916,2.7377 2.7377,2.3516 7.431,7.04486 10.5578,10.95687 3.1268,3.91201 4.6912,7.04082 6.6487,9.77753 1.9575,2.73671 4.3041,5.08332 5.4724,6.64773 1.1683,1.5644 1.1683,2.34661 1.5644,2.73271 0.3961,0.3861 1.1783,0.3861 1.5644,1.1733 0.3861,0.78721 0.3861,2.35161 1.1743,3.52291 0.7882,1.1713 2.3527,1.95353 3.5215,3.91191 1.1687,1.95838 1.9509,5.0872 2.7367,7.04183 0.7857,1.95462 1.5679,2.73683 1.954,3.91013 0.3861,1.17331 0.3861,2.73771 0.7822,3.51492 0.3961,0.7772 1.1783,0.7772 1.5644,2.34661 0.3861,1.5694 0.3861,4.69821 0.7822,6.25762 0.3961,1.55941 1.1783,1.55941 1.5644,4.69322 0.3861,3.13381 0.3861,9.39144 0.7822,12.51525 0.3961,3.12382 1.1783,3.12382 1.5644,3.91102 0.3861,0.7872 0.3861,2.35161 0.7822,3.12881 0.3961,0.77721 1.1783,0.77721 1.9585,1.56541 0.7802,0.7882 1.5624,2.35261 2.7387,3.52291 1.1763,1.1703 2.7407,1.95251 3.5169,2.73671 0.7762,0.78421 0.7762,1.56641 1.5644,2.34663 0.7883,0.78021 2.3527,1.5624 3.523,2.7387 1.1703,1.1763 1.9525,2.74071 2.7367,3.51691 0.7842,0.7762 1.5664,0.7762 1.9525,1.56341 0.3861,0.7872 0.3861,2.35161 0.7822,3.12881 0.3961,0.7772 1.1783,0.7772 1.5644,1.17331 0.3861,0.3961 0.3861,1.1783 1.1733,2.3516 0.7872,1.17331 2.3516,2.73772 3.1288,4.69322 0.7772,1.95551 0.7772,4.30212 1.9535,7.82304 1.1763,3.52091 3.5229,8.21413 4.6932,12.12415 1.1703,3.91001 1.1703,7.03883 1.9555,10.16863 0.7852,3.12981 2.3497,6.25865 3.1289,8.60426 0.7792,2.3456 0.7792,3.91 1.5644,6.25761 0.7852,2.34761 2.3496,5.47642 3.1288,12.12415 0.7792,6.64773 0.7792,16.81637 -1.5683,25.80817 -2.3475,8.9918 -7.0407,16.81386 -9.7726,20.7234 -2.7318,3.90954 -3.514,3.90954 -4.6933,5.86764 -1.1794,1.95809 -2.7438,5.86911 -4.3051,8.21213 -1.5614,2.34302 -3.1258,3.12523 -4.302,5.08526 -1.1762,1.96004 -1.9584,5.08886 -2.7347,6.64973 -0.7763,1.56088 -1.5585,1.56088 -1.9546,2.73919 -0.3961,1.1783 -0.3961,3.52491 -0.7872,5.08431 -0.3911,1.55939 -1.1734,2.34163 -1.5645,5.47544 -0.3911,3.1338 -0.3911,8.60923 -1.565,19.16813 -1.1739,10.55889 -3.5205,26.20296 -4.6932,35.19914 -1.1727,8.99618 -1.1727,11.34279 -1.9549,13.2933 -0.7822,1.95051 -2.3466,3.51492 -3.912,5.86353 -1.5654,2.34861 -3.1298,5.47742 -6.2546,7.82102 -3.1248,2.34361 -7.8181,3.90803 -10.9499,5.47344 -3.1318,1.5654 -4.6962,3.1298 -7.0393,4.30223 -2.343,1.17242 -5.4718,1.95462 -7.822,3.1288 -2.3501,1.17418 -3.9146,2.73862 -6.2592,4.30202 -2.3446,1.5634 -5.4734,3.1278 -7.817,3.91101 -2.3436,0.7832 -3.908,0.7832 -5.4774,1.5654 -1.5694,0.78221 -3.1338,2.34661 -4.3021,3.12882 -1.1683,0.7822 -1.9505,0.7822 -2.7387,1.56642 -0.7882,0.78422 -1.5705,2.3486 -2.3467,3.1288 -0.7762,0.7802 -1.5584,0.7802 -3.1287,2.73718 -1.5703,1.95698 -3.9169,5.86799 -5.0893,8.60923 -1.1724,2.74124 -1.1724,4.30565 -2.3466,7.03983 -1.1742,2.73418 -3.5208,6.6452 -4.6932,9.38644 -1.1724,2.74124 -1.1724,4.30565 -2.7378,8.60508 -1.5655,4.29944 -4.6943,11.33928 -6.6438,14.85687 -1.9495,3.51759 -2.7317,3.51759 -3.1278,3.9137 -0.3961,0.3961 -0.3961,1.1783 -2.7397,2.3456 -2.3436,1.16731 -7.0368,2.73171 -10.9473,3.90513 -3.9104,1.17342 -7.0393,1.95564 -8.9984,2.73872 -1.959,0.78309 -2.7412,1.56529 -5.4748,2.34681 -2.7337,0.78153 -7.4269,1.56373 -16.4213,1.95551 -8.9944,0.39178 -22.29185,0.39178 -29.33668,0.78288 -7.04483,0.39111 -7.82704,1.17331 -10.16864,1.56441 -2.34161,0.3911 -6.25263,0.3911 -9.77675,1.5638 -3.52411,1.17271 -6.65292,3.51932 -8.99533,4.69322 -2.34241,1.17391 -3.90682,1.17391 -7.04014,3.12901 -3.13333,1.9551 -7.82654,5.86612 -11.73854,9.77815 -3.91199,3.91204 -7.0408,7.82305 -9.77687,10.55939 -2.73607,2.73633 -5.08268,4.30073 -6.25714,5.47981 -1.17446,1.17907 -1.17446,1.96128 -2.34476,2.73748 -1.17031,0.7762 -3.51692,1.55841 -6.25763,3.51492 -2.74071,1.95651 -5.86952,5.08532 -7.43393,7.04582 -1.56441,1.96051 -1.56441,2.74271 -3.12682,3.91005 -1.56241,1.1673 -4.69122,2.7317 -6.25763,3.911 -1.5664,1.1793 -1.5664,1.9615 -9.38343,2.3476 -7.81704,0.3861 -23.4611,0.3861 -32.85054,1.1673 -9.38944,0.7812 -12.51825,2.3456 -14.86186,3.1288 -2.34361,0.7832 -3.90802,0.7832 -5.86737,1.5646 -1.95935,0.7815 -4.30596,2.3459 -6.25763,3.1288 -1.95166,0.783 -3.51607,0.783 -6.2573,1.9554 -2.74123,1.1725 -6.65228,3.5191 -10.17013,5.0835 -3.51785,1.5644 -6.64666,2.3466 -8.9968,3.5208 -2.35014,1.1742 -3.91455,2.7386 -5.47395,3.5208 -1.55941,0.7822 -3.12381,0.7822 -3.91101,1.1783 -0.78721,0.3961 -0.78721,1.1783 -6.25802,1.9552 -5.4708,0.7768 -16.42164,1.559 -25.0255,1.9505 -8.60385,0.3914 -14.86148,0.3914 -18.3834,-0.3848 -3.52191,-0.7762 -4.30412,-2.3406 -11.73237,-4.3012 -7.42825,-1.9605 -21.50791,-4.3071 -30.11282,-5.4814 -8.60492,-1.1742 -11.73373,-1.1742 -13.30313,-0.7781 -1.56941,0.3961 -1.56941,1.1783 -9.77779,1.9553 -8.20839,0.7769 -24.63466,1.5591 -34.41495,2.7317 -9.78029,1.1725 -12.9091,2.7369 -17.59932,3.5201 -4.69022,0.7832 -10.94785,0.7832 -15.24996,-0.3851 -4.30212,-1.1683 -6.64873,-3.5149 -8.21314,-4.6932 -1.56441,-1.1783 -2.34661,-1.1783 -2.74271,-1.5644 -0.3961,-0.3861 -0.3961,-1.1683 -1.56341,-1.9535 -1.1673,-0.7852 -3.51391,-1.5674 -5.08133,-2.7367 -1.56742,-1.1694 -2.34961,-2.7338 -3.52091,-3.522 -1.1713,-0.7882 -2.73571,-0.7882 -3.52291,-1.1743 -0.7872,-0.3861 -0.7872,-1.1683 -1.5634,-1.9525 -0.77621,-0.7842 -2.34062,-1.5664 -3.12882,-2.3466 -0.7882,-0.7802 -0.7882,-1.5624 -1.95551,-2.3476 -1.1673,-0.7852 -3.51391,-1.5674 -4.69322,-2.3466 -1.1793,-0.7792 -1.1793,-1.5614 -1.5654,-1.9575 -0.3861,-0.3961 -1.16831,-0.3961 -2.34161,-1.1733 -1.1733,-0.7772 -2.7377,-2.3416 -5.08332,-3.90802 -2.34561,-1.56642 -5.47443,-3.13083 -8.21314,-3.91603 -2.73871,-0.7852 -5.08532,-0.7852 -6.26362,-1.1713 -1.17831,-0.38611 -1.17831,-1.16831 -3.91042,-1.95471 -2.73211,-0.7864 -8.20753,-1.56861 -11.33995,-3.12781 -3.13241,-1.55921 -3.91462,-3.90582 -4.69382,-5.08512 -0.7792,-1.17931 -1.5614,-1.17931 -1.9575,-2.34761 -0.39611,-1.16831 -0.39611,-3.51492 -0.78221,-4.69322 -0.3861,-1.17831 -1.1683,-1.17831 -1.5644,-3.91102 -0.39611,-2.73271 -0.39611,-8.20814 -0.78221,-10.95085 -0.3861,-2.74271 -1.1683,-2.74271 -1.5644,-5.08432 -0.39611,-2.34161 -0.39611,-7.03483 -1.17631,-11.72705 -0.78021,-4.69222 -2.34461,-9.38544 -5.47122,-14.86126 -3.12662,-5.47582 -7.81984,-11.73345 -10.17064,-15.25397 -2.35081,-3.52051 -2.35081,-4.30271 -2.73691,-4.69881 -0.38611,-0.3961 -1.16831,-0.3961 -3.51587,-3.12814 -2.34755,-2.73204 -6.25857,-8.20746 -10.55933,-12.90185 -4.30076,-4.69438 -8.99398,-8.6054 -12.51631,-12.90602 -3.52232,-4.30063 -5.86893,-8.99385 -7.82244,-12.12366 -1.95351,-3.12982 -3.51791,-4.69422 -4.30511,-6.25863 -0.78721,-1.56441 -0.78721,-3.12881 -1.56741,-6.25663 -0.78021,-3.12781 -2.34461,-7.82103 -3.12882,-17.20847 -0.7842,-9.38744 -0.7842,-23.4671 -0.39359,-34.02745 0.39062,-10.56035 1.17282,-17.60018 -1.17009,-26.20284 -2.34291,-8.60266 -7.81834,-18.77131 -12.90128,-26.59395 -5.08294,-7.82265 -9.77617,-13.29807 -13.68977,-20.72836 -3.9136,-7.43028 -7.04242,-16.81672 -8.60882,-24.24865 -1.56641,-7.43193 -1.56641,-12.90735 -0.003,-22.29517 1.56356,-9.38782 4.69237,-22.68527 7.03984,-30.11982 2.34746,-7.43456 3.91187,-8.99896 6.64854,-14.4719 2.73668,-5.47294 6.64769,-14.85938 8.60424,-25.0255 1.95654,-10.16613 1.95654,-21.11698 1.17934,-27.3746 -0.77721,-6.25763 -2.34161,-7.82203 -3.12882,-8.99534 -0.7872,-1.17331 -0.7872,-1.95551 -1.1733,-2.35161 -0.3861,-0.3961 -1.16831,-0.3961 -1.56441,-1.1733 -0.3961,-0.77721 -0.3961,-2.34162 -0.7822,-3.12882 -0.3861,-0.7872 -1.16831,-0.7872 -1.95351,-1.9545 -0.7852,-1.16731 -1.56741,-3.51392 -3.12962,-6.25203 -1.5622,-2.73812 -3.90881,-5.86693 -5.08632,-8.21414 -1.1775,-2.34721 -1.1775,-3.91161 -2.3458,-5.86712 -1.16831,-1.95551 -3.51492,-4.30212 -4.69322,-6.25763 -1.17831,-1.95551 -1.17831,-3.51991 -2.73887,-6.64795 -1.56056,-3.12805 -4.68937,-7.82127 -7.42834,-12.90533 -2.73898,-5.08405 -5.08559,-10.55947 -7.04221,-16.42615 -1.95662,-5.86667 -3.52103,-12.1243 -4.30471,-18.77391 -0.78367,-6.64961 -0.78367,-13.68944 -0.78367,-17.99156 0,-4.30212 0,-5.86653 0.39611,-6.65373 0.3961,-0.7872 1.1783,-0.7872 2.73667,-3.5225 1.55837,-2.7353 3.90498,-8.21072 5.47543,-10.95085 1.57044,-2.74012 2.35264,-2.74012 2.73874,-5.47283 0.3861,-2.73271 0.3861,-8.20814 0.3861,-16.42127 0,-8.21314 0,-19.16398 0.39611,-24.6444 0.3961,-5.48043 1.1783,-5.48043 1.9545,-6.65074 0.7762,-1.1703 1.55841,-3.51691 2.34661,-4.69322 0.78821,-1.1763 1.57041,-1.1763 2.34661,-2.34661 0.7762,-1.1703 1.55841,-3.51691 4.30012,-5.47642 2.74171,-1.95951 7.43493,-3.52391 9.77854,-4.69122 2.34361,-1.1673 2.34361,-1.9495 3.13082,-2.3456 0.7872,-0.3961 2.3516,-0.3961 3.12881,-0.7822 0.7772,-0.38611 0.7772,-1.16831 1.56441,-1.56441 0.7872,-0.3961 2.3516,-0.3961 3.12881,-0.7822 0.7772,-0.38611 0.7772,-1.16831 1.1733,-1.56441 0.3961,-0.3961 1.17831,-0.3961 1.95491,-3.12961 0.7766,-2.73352 1.55881,-8.20894 3.51392,-14.07766 1.9551,-5.86873 5.08392,-12.12636 6.64933,-16.03437 1.5654,-3.90802 1.5654,-5.47242 1.9565,-6.65072 0.3911,-1.17831 1.17331,-1.96052 1.95451,-3.13182 0.7812,-1.17131 1.56341,-2.73571 1.95551,-4.29712 0.3921,-1.56141 0.3921,-3.12581 1.95574,-6.25847 1.56363,-3.13266 4.69245,-7.82588 6.64796,-12.12531 1.9555,-4.29942 2.73771,-8.21044 3.52568,-10.16979 0.78797,-1.95936 1.57017,-1.95936 0.78392,-8.99351 -0.78626,-7.03416 -3.13287,-21.11381 -4.30712,-29.32762 -1.17425,-8.21381 -1.17425,-10.56042 -2.73566,-14.86154 -1.5614,-4.30112 -4.69022,-10.55874 -5.86701,-17.20908 -1.17679,-6.65034 -0.39459,-13.69017 0.3931,-17.21447 0.78769,-3.52431 1.5699,-3.52431 1.956,-4.69261 0.3861,-1.16831 0.3861,-3.51492 0.7822,-4.69322 0.3961,-1.17831 1.17831,-1.17831 1.56441,-3.12881 0.3861,-1.95051 0.3861,-5.86153 0.3861,-12.51026 0,-6.64873 0,-16.03517 6.26193,-21.51613 6.26194,-5.48095 18.77719,-7.04536 25.42112,-11.34255 6.64393,-4.29719 7.42613,-11.33702 6.25832,-14.86132 -1.16782,-3.52431 -4.29663,-3.52431 -6.25814,-2.74011 -1.9615,0.7842 -2.74371,2.34861 -3.91101,3.12882 -1.16731,0.7802 -2.73172,0.7802 -3.51892,1.1763 -0.7872,0.3961 -0.7872,1.1783 -3.51991,1.56441 -2.73272,0.3861 -8.20814,0.3861 -11.33695,0 -3.12882,-0.38611 -3.91102,-1.16831 -5.08432,-1.56441 -1.17331,-0.3961 -2.73771,-0.3961 -3.52491,-0.7822 -0.78721,-0.38611 -0.78721,-1.16831 -1.56441,-2.34161 -0.77721,-1.17331 -2.34161,-2.73771 -3.12882,-4.30212 -0.7872,-1.56441 -0.7872,-3.12882 -1.1733,-3.91602 -0.3861,-0.7872 -1.16831,-0.7872 -1.56441,-2.3466 -0.3961,-1.55941 -0.3961,-4.68823 -3.91053,-6.64813 -3.51442,-1.95989 -10.55425,-2.7421 -14.07966,-3.51991 -3.5254,-0.77781 -3.5254,-1.56002 -3.9115,-1.95612 -0.3861,-0.3961 -1.16831,-0.3961 -1.95516,-6.25732 -0.78685,-5.86121 -1.56905,-17.594259 -1.5644,-23.466093 0.005,-5.871834 0.78685,-5.871834 1.17295,-6.649037 0.3861,-0.777204 0.3861,-2.34161 0.7822,-3.128813 0.3961,-0.787204 1.17831,-0.787204 1.56441,-1.173305 0.3861,-0.386102 0.3861,-1.168305 0.7822,-1.564407 0.3961,-0.396102 1.17831,-0.396102 1.56441,-0.782203 0.3861,-0.386102 0.3861,-1.168305 0.7822,-1.564406 0.3961,-0.396102 1.17831,-0.396102 1.56441,-0.782204 0.3861,-0.386102 0.3861,-1.168305 2.3442,-2.347645 1.95809,-1.17934 5.8691,-2.743744 13.69355,-3.524914 7.82445,-0.781169 19.5575,-0.781169 25.41903,-1.16727 5.86152,-0.386102 5.86152,-1.168305 6.25762,-1.564406 0.3961,-0.396102 1.1783,-0.396102 1.95483,-2.738658 0.77653,-2.342555 1.55874,-7.035775 3.12294,-11.340476 1.5642,-4.304702 3.91081,-8.215719 5.48109,-10.172697 1.57029,-1.956979 2.35249,-1.956979 2.7386,-2.34308 0.3861,-0.386102 0.3861,-1.168306 0.7822,-1.564407 0.3961,-0.396102 1.1783,-0.396102 1.5644,-0.782203 0.3861,-0.386102 0.3861,-1.168305 1.17331,-1.564407 0.7872,-0.396102 2.35161,-0.396102 5.47842,-1.179305 3.12681,-0.783203 7.82003,-2.34761 16.81737,-3.128813 8.99734,-0.781203 22.29479,-0.781203 30.50793,-0.781203 8.21313,0 11.34195,0 14.86263,0.392255 3.52068,0.392255 7.4317,1.174459 13.29834,3.914545 z"
       id="path17097"
       inkscape:path-effect="#path-effect17099"
       inkscape:original-d="m 567.87957,25.812708 c 7.83203,4.703219 15.65406,9.396439 23.4661,14.079658 4.70321,0.01 9.39643,0.01 14.07965,0 15.65407,1.574407 31.29813,3.138813 46.9322,4.69322 3.92102,0.01 7.83203,0.01 11.73305,0 5.48542,2.35661 10.96084,4.703219 16.42627,7.039829 1.5744,1.574407 3.13881,3.138813 4.69322,4.69322 0.7922,0.01 1.5744,0.01 2.34661,0 0.01,0.792203 0.01,1.574406 0,2.34661 1.5744,0.01 3.13881,0.01 4.69322,0 0.7922,1.574406 1.5744,3.138813 2.34661,4.693219 3.92101,1.574407 7.83203,3.138813 11.73304,4.69322 1.57441,1.574406 3.13882,3.138813 4.69322,4.693219 4.70322,2.35661 9.39644,4.70322 14.07966,7.03983 0.79221,1.574406 1.57441,3.138813 2.34661,4.693219 2.35661,0.792203 4.70322,1.574407 7.03983,2.34661 1.57441,2.35661 3.13882,4.70322 4.69322,7.039829 4.70322,2.35661 9.39644,4.70322 14.07966,7.039829 2.35661,0.01 4.70322,0.01 7.03983,0 7.83203,0.7922 15.65406,1.57441 23.4661,2.34661 8.61423,6.26763 17.21847,12.52525 25.81271,18.77288 0.01,0.7922 0.01,1.57441 0,2.34661 0.7922,0.01 1.5744,0.01 2.3466,0 0.79221,3.13881 1.57441,6.26762 2.34661,9.38644 0.79221,0.01 1.57441,0.01 2.34661,0 0.01,2.35661 0.01,4.70322 0,7.03983 3.13882,7.83203 6.26763,15.65406 9.38644,23.46609 0.01,1.57441 0.01,3.13882 0,4.69322 1.57441,1.57441 3.13882,3.13882 4.69322,4.69322 0.01,0.79221 0.01,1.57441 0,2.34661 1.57441,0.79221 3.13882,1.57441 4.69322,2.34661 5.48543,4.70322 10.96085,9.39644 16.42627,14.07966 3.92102,3.92102 7.83203,7.83203 11.73305,11.73305 2.35661,0.7922 4.70322,1.57441 7.03983,2.34661 0.01,0.7922 0.01,1.57441 0,2.34661 0.7922,0.01 1.57441,0.01 2.34661,0 3.92102,3.92102 7.83203,7.83203 11.73305,11.73305 0.01,0.7922 0.01,1.57441 0,2.34661 1.5744,0.7922 3.13881,1.57441 4.69322,2.34661 0.01,1.57441 0.01,3.13881 0,4.69322 1.5744,2.35661 3.13881,4.70322 4.69322,7.03983 0.01,2.35661 0.01,4.70322 0,7.03983 0.7922,0.7922 1.5744,1.5744 2.34661,2.34661 0.01,1.5744 0.01,3.13881 0,4.69322 1.5744,3.13881 3.13881,6.26762 4.69322,9.38644 0.01,1.5744 0.01,3.13881 0,4.69322 2.35661,3.92101 4.70322,7.83203 7.03983,11.73304 0.7922,2.35661 1.5744,4.70322 2.34661,7.03983 1.5744,0.79221 3.13881,1.57441 4.69322,2.34661 0.01,0.79221 0.01,1.57441 0,2.34661 3.92101,3.92102 7.83203,7.83204 11.73304,11.73305 1.57441,0.01 3.13882,0.01 4.69322,0 2.35661,1.57441 4.70322,3.13882 7.03983,4.69322 3.13882,0.79221 6.26763,1.57441 9.38644,2.34661 1.57441,1.57441 3.13882,3.13881 4.69322,4.69322 1.57441,0.01 3.13881,0.01 4.69322,0 0.01,0.7922 0.01,1.57441 0,2.34661 3.13881,2.35661 6.26763,4.70322 9.38644,7.03983 0.01,1.57441 0.01,3.13881 0,4.69322 0.7922,0.01 1.57441,0.01 2.34661,0 1.57441,3.92102 3.13881,7.83203 4.69322,11.73305 0.01,1.57441 0.01,3.13881 0,4.69322 2.35661,6.26762 4.70322,12.52525 7.03983,18.77288 0.7922,0.01 1.57441,0.01 2.34661,0 0.01,0.7922 0.01,1.5744 0,2.34661 1.57441,0.7922 3.13881,1.5744 4.69322,2.34661 0.7922,1.5744 1.57441,3.13881 2.34661,4.69322 1.5744,0.01 3.13881,0.01 4.69322,0 0.01,0.7922 0.01,1.5744 0,2.34661 5.48545,2.35661 10.96085,4.70322 16.42625,7.03982 0.01,0.79221 0.01,1.57441 0,2.34661 4.7032,4.70322 9.3965,9.39644 14.0797,14.07966 0.01,0.79221 0.01,1.57441 0,2.34661 0.7922,0.01 1.5744,0.01 2.3466,0 0.01,1.57441 0.01,3.13882 0,4.69322 0.7922,0.79221 1.5744,1.57441 2.3466,2.34661 0.01,1.57441 0.01,3.13882 0,4.69322 0.7922,0.01 1.5744,0.01 2.3466,0 0.01,2.35661 0.01,4.70322 0,7.03983 0.7922,0.7922 1.5744,1.57441 2.3466,2.34661 0.7922,7.83203 1.5744,15.65407 2.3466,23.4661 0.7922,0.01 1.5744,0.01 2.3466,0 0.01,3.13881 0.01,6.26763 0,9.38644 0.7922,0.01 1.5744,0.01 2.3466,0 0.01,1.5744 0.01,3.13881 0,4.69322 0.7922,0.01 1.5745,0.01 2.3467,0 0.01,1.5744 0.01,3.13881 0,4.69322 0.7922,0.01 1.5744,0.01 2.3466,0 0.7922,2.35661 1.5744,4.70322 2.3466,7.03983 1.5744,0.7922 3.1388,1.5744 4.6932,2.34661 1.5744,2.35661 3.1388,4.70322 4.6932,7.03983 0.7922,0.01 1.5744,0.01 2.3466,0 1.5744,3.13881 3.1388,6.26762 4.6932,9.38643 0.7922,0.01 1.5744,0.01 2.3467,0 0.7922,1.57441 1.5744,3.13882 2.3466,4.69322 1.5744,0.79221 3.1388,1.57441 4.6932,2.34661 0.7922,1.57441 1.5744,3.13882 2.3466,4.69322 0.7922,0.01 1.5744,0.01 2.3466,0 0.01,0.79221 0.01,1.57441 0,2.34661 0.7922,0.01 1.5744,0.01 2.3466,0 0.01,0.79221 0.01,1.57441 0,2.34661 0.7922,0.01 1.5744,0.01 2.3466,0 4.7032,4.70322 9.3965,9.39644 14.0797,14.07966 1.5744,3.13882 3.1388,6.26763 4.6932,9.38644 2.3566,2.35661 4.7032,4.70322 7.0398,7.03983 0.01,0.7922 0.01,1.57441 0,2.34661 0.7922,0.01 1.5744,0.01 2.3466,0 0.01,1.57441 0.01,3.13881 0,4.69322 1.5744,0.7922 3.1389,1.57441 4.6933,2.34661 0.7922,3.13881 1.5744,6.26763 2.3466,9.38644 0.7922,0.7922 1.5744,1.57441 2.3466,2.34661 0.01,1.57441 0.01,3.13881 0,4.69322 0.7922,0.01 1.5744,0.01 2.3466,0 0.01,3.13881 0.01,6.26762 0,9.38644 0.7922,0.01 1.5744,0.01 2.3466,0 0.01,6.26762 0.01,12.52525 0,18.77288 0.7922,0.01 1.5744,0.01 2.3466,0 0.01,1.5744 0.01,3.13881 0,4.69322 0.7922,0.01 1.5744,0.01 2.3466,0 0.7922,1.5744 1.5744,3.13881 2.3466,4.69321 1.5744,0.79221 3.1388,1.57441 4.6932,2.34661 0.01,0.79221 0.01,1.57441 0,2.34661 1.5745,0.79221 3.1389,1.57441 4.6933,2.34661 0.7922,1.57441 1.5744,3.13882 2.3466,4.69322 0.7922,0.01 1.5744,0.01 2.3466,0 0.01,1.57441 0.01,3.13882 0,4.69322 0.7922,0.01 1.5744,0.01 2.3466,0 0.01,0.79221 0.01,1.57441 0,2.34661 1.5744,1.57441 3.1388,3.13882 4.6932,4.69322 0.01,2.35661 0.01,4.70322 0,7.03983 2.3566,4.70322 4.7032,9.39644 7.0398,14.07966 0.01,3.13881 0.01,6.26763 0,9.38644 1.5744,3.13881 3.1389,6.26763 4.6933,9.38644 0.01,1.57441 0.01,3.13881 0,4.69322 1.5744,3.13881 3.1388,6.26762 4.6932,9.38644 0.01,10.17864 0.01,20.34728 0,30.50592 -4.6832,7.83204 -9.3765,15.65407 -14.0797,23.4661 -0.7722,0.01 -1.5544,0.01 -2.3466,0 -1.5544,3.92102 -3.1188,7.83204 -4.6932,11.73305 -1.5544,0.7922 -3.1188,1.57441 -4.6932,2.34661 -0.7722,3.13881 -1.5544,6.26763 -2.3466,9.38644 -0.7722,0.01 -1.5544,0.01 -2.3466,0 0.01,2.35661 0.01,4.70322 0,7.03983 -0.7722,0.7922 -1.5545,1.57441 -2.3467,2.34661 0.01,5.48542 0.01,10.96085 0,16.42627 -2.3366,15.65406 -4.6832,31.29813 -7.0398,46.93219 0.01,2.35661 0.01,4.70322 0,7.03983 -1.5544,1.57441 -3.1188,3.13882 -4.6932,4.69322 -1.5544,3.13882 -3.1188,6.26763 -4.6932,9.38644 -4.6832,1.57441 -9.3765,3.13881 -14.0797,4.69322 -1.5544,1.57441 -3.1188,3.13881 -4.6932,4.69322 -3.1188,0.7922 -6.2476,1.57441 -9.3864,2.34661 -1.5544,1.57441 -3.1189,3.13881 -4.6933,4.69322 -3.1188,1.57441 -6.2476,3.13881 -9.3864,4.69322 -1.5544,0.01 -3.1188,0.01 -4.6932,0 -1.5544,1.57441 -3.1188,3.13881 -4.6932,4.69322 -0.7722,0.01 -1.5544,0.01 -2.3466,0 -0.7723,1.57441 -1.5545,3.13881 -2.3467,4.69322 -0.7722,0.01 -1.5544,0.01 -2.3466,0 -2.3366,3.92102 -4.6832,7.83203 -7.0398,11.73305 0.01,1.5744 0.01,3.13881 0,4.69322 -2.3366,3.92101 -4.6832,7.83203 -7.0398,11.73305 0.01,1.5744 0.01,3.13881 0,4.69322 -3.1188,7.04983 -6.2477,14.08965 -9.3865,21.11948 -0.7722,0.01 -1.5544,0.01 -2.3466,0 0.01,0.79221 0.01,1.57441 0,2.34661 -4.6832,1.57441 -9.3764,3.13882 -14.0796,4.69322 -3.1188,0.79221 -6.2477,1.57441 -9.3865,2.34661 -0.7722,0.79221 -1.5544,1.57441 -2.3466,2.34661 -4.6832,0.79221 -9.3764,1.57441 -14.07964,2.34661 -13.28746,0.01 -26.58491,0.01 -39.89237,0 -0.7722,0.79221 -1.55441,1.57441 -2.34661,2.34661 -3.90101,0.01 -7.81203,0.01 -11.73305,0 -3.11881,2.35661 -6.24762,4.70322 -9.38644,7.03983 -1.5544,0.01 -3.11881,0.01 -4.69322,0 -4.68322,3.92102 -9.37644,7.83203 -14.07965,11.73305 -3.11882,3.92102 -6.24763,7.83203 -9.38644,11.73305 -2.33661,1.57441 -4.68322,3.13881 -7.03983,4.69322 0.01,0.7922 0.01,1.57441 0,2.34661 -2.33661,0.7922 -4.68322,1.57441 -7.03983,2.34661 -3.11882,3.13881 -6.24763,6.26762 -9.38644,9.38644 0.01,0.7922 0.01,1.5744 0,2.34661 -3.11881,1.57443 -6.24763,3.13883 -9.38644,4.69323 0.01,0.7922 0.01,1.5744 0,2.3466 -15.63407,0.01 -31.27813,0.01 -46.9322,0 -3.11881,1.5744 -6.24762,3.1388 -9.38644,4.6932 -1.5544,0.01 -3.11881,0.01 -4.69322,0 -2.3366,1.5744 -4.68321,3.1388 -7.03982,4.6932 -1.55441,0.01 -3.11882,0.01 -4.69322,0 -3.90102,2.3566 -7.81204,4.7033 -11.73305,7.0399 -3.11882,0.7922 -6.24763,1.5744 -9.38644,2.3466 -1.55441,1.5744 -3.11882,3.1388 -4.69322,4.6932 -1.55441,0.01 -3.11881,0.01 -4.69322,0 0.01,0.7922 0.01,1.5744 0,2.3466 -10.94085,0.7922 -21.89169,1.5744 -32.85254,2.3466 -6.24762,0.01 -12.50525,0.01 -18.77288,0 -0.7722,-1.5544 -1.5544,-3.1188 -2.34661,-4.6932 -14.06965,-2.3366 -28.14931,-4.6832 -42.23897,-7.0398 -3.11882,0.01 -6.24763,0.01 -9.38644,0 0.01,0.7922 0.01,1.5744 0,2.3466 -16.41627,0.7922 -32.84254,1.5744 -49.27881,2.3466 -3.11881,1.5744 -6.24762,3.1388 -9.38644,4.6932 -6.24762,0.01 -12.50525,0.01 -18.77287,0 -2.33661,-2.3366 -4.68322,-4.6832 -7.03983,-7.0398 -0.77221,0.01 -1.55441,0.01 -2.34661,0 0.01,-0.7722 0.01,-1.5544 0,-2.3466 -2.33661,-0.7722 -4.68322,-1.5544 -7.03983,-2.3466 -0.77221,-1.5545 -1.55441,-3.1189 -2.34661,-4.6933 -1.55441,0.01 -3.11882,0.01 -4.69322,0 0.01,-0.7722 0.01,-1.5544 0,-2.3466 -1.55441,-0.7722 -3.11882,-1.5544 -4.69322,-2.3466 0.01,-0.7722 0.01,-1.5544 0,-2.3466 -2.33661,-0.7722 -4.68322,-1.5544 -7.03983,-2.3466 0.01,-0.7722 0.01,-1.5544 0,-2.3466 -0.7722,0.01 -1.55441,0.01 -2.34661,0 -1.55441,-1.5544 -3.11881,-3.1188 -4.69322,-4.69323 -3.11881,-1.55441 -6.24763,-3.11882 -9.38644,-4.69322 -2.33661,0.01 -4.68322,0.01 -7.03983,0 0.01,-0.77221 0.01,-1.55441 0,-2.34661 -5.46542,-0.77221 -10.94084,-1.55441 -16.42627,-2.34661 -0.7722,-2.33661 -1.5544,-4.68322 -2.34661,-7.03983 -0.7722,0.01 -1.5544,0.01 -2.34661,0 0.01,-2.33661 0.01,-4.68322 0,-7.03983 -0.7722,0.01 -1.5544,0.01 -2.34661,0 0.01,-5.46542 0.01,-10.94085 0,-16.42627 -0.7722,0.01 -1.5544,0.01 -2.34661,0 0.01,-4.68322 0.01,-9.37644 0,-14.07966 -1.5544,-4.68322 -3.11881,-9.37644 -4.69322,-14.07966 -4.68322,-6.24762 -9.37644,-12.50525 -14.07965,-18.77287 0.01,-0.77221 0.01,-1.55441 0,-2.34661 -0.77221,0.01 -1.55441,0.01 -2.34661,0 -3.90102,-5.46543 -7.81204,-10.94085 -11.73305,-16.42627 -4.68322,-3.90102 -9.37644,-7.81204 -14.07966,-11.73305 -2.33661,-4.68322 -4.68322,-9.37644 -7.03983,-14.07966 -1.55441,-1.55441 -3.11881,-3.11881 -4.69322,-4.69322 0.01,-1.55441 0.01,-3.11881 0,-4.69322 -1.55441,-4.68322 -3.11881,-9.37644 -4.69322,-14.07966 0.01,-14.06966 0.01,-28.14932 0,-42.23897 0.7922,-7.02983 1.57441,-14.06966 2.34661,-21.11949 -5.46542,-10.15864 -10.94085,-20.32729 -16.42627,-30.50593 -4.68322,-5.46542 -9.37644,-10.94085 -14.07966,-16.42627 -3.11881,-9.37644 -6.24762,-18.76288 -9.38644,-28.15932 0.01,-5.46542 0.01,-10.94084 0,-16.42626 3.13882,-13.28746 6.26763,-26.58491 9.38644,-39.89237 1.57441,-1.55441 3.13882,-3.11881 4.69322,-4.69322 3.92102,-9.37644 7.83203,-18.76288 11.73305,-28.15932 0.01,-10.94084 0.01,-21.89169 0,-32.85253 -1.55441,-1.55441 -3.11881,-3.11882 -4.69322,-4.69322 0.01,-0.77221 0.01,-1.55441 0,-2.34661 -0.7722,0.01 -1.55441,0.01 -2.34661,0 0.01,-1.55441 0.01,-3.11882 0,-4.69322 -0.7722,0.01 -1.55441,0.01 -2.34661,0 -0.7722,-2.33661 -1.55441,-4.68322 -2.34661,-7.03983 -2.33661,-3.11882 -4.68322,-6.24763 -7.03983,-9.38644 0.01,-1.55441 0.01,-3.11881 0,-4.69322 -2.33661,-2.33661 -4.68322,-4.68322 -7.03983,-7.03983 0.01,-1.55441 0.01,-3.11881 0,-4.69322 -3.11881,-4.68322 -6.24762,-9.37644 -9.38644,-14.07966 -2.33661,-5.46542 -4.68322,-10.94084 -7.03983,-16.42627 -1.5544,-6.24762 -3.11881,-12.50525 -4.69322,-18.77288 0.01,-7.02982 0.01,-14.06965 0,-21.11948 0.01,-1.55441 0.01,-3.11882 0,-4.69322 0.79221,0.01 1.57441,0.01 2.34661,0 2.35661,-5.46543 4.70322,-10.94085 7.03983,-16.42627 0.79221,0.01 1.57441,0.01 2.34661,0 0.01,-5.46542 0.01,-10.94085 0,-16.42627 0.01,-10.94085 0.01,-21.89169 0,-32.85254 0.79221,0.01 1.57441,0.01 2.34661,0 0.79221,-2.33661 1.57441,-4.68322 2.34661,-7.03983 0.79221,0.01 1.57441,0.01 2.34661,0 0.79221,-2.33661 1.57441,-4.68322 2.34661,-7.03983 4.70322,-1.5544 9.39644,-3.11881 14.07966,-4.69322 0.01,-0.7722 0.01,-1.5544 0,-2.3466 1.57441,0.01 3.13881,0.01 4.69322,0 0.01,-0.77221 0.01,-1.55441 0,-2.34661 1.57441,0.01 3.13881,0.01 4.69322,0 0.01,-0.77221 0.01,-1.55441 0,-2.34661 0.7922,0.01 1.57441,0.01 2.34661,0 0.7922,-5.46543 1.57441,-10.94085 2.34661,-16.42627 3.13881,-6.24763 6.26763,-12.50526 9.38644,-18.77288 0.01,-1.55441 0.01,-3.11881 0,-4.69322 0.7922,-0.7722 1.57441,-1.55441 2.34661,-2.34661 0.7922,-1.55441 1.57441,-3.11881 2.34661,-4.69322 0.01,-1.55441 0.01,-3.11881 0,-4.69322 3.13881,-4.68322 6.26763,-9.37644 9.38644,-14.07966 0.7922,-3.90101 1.5744,-7.81203 2.34661,-11.73305 0.7922,0.01 1.5744,0.01 2.34661,0 -2.33661,-14.06966 -4.68322,-28.14931 -7.03983,-42.23897 0.01,-2.33661 0.01,-4.68322 0,-7.03983 -3.11881,-6.24763 -6.24763,-12.50525 -9.38644,-18.77288 0.7922,-7.02983 1.57441,-14.06966 2.34661,-21.11949 0.7922,0.01 1.57441,0.01 2.34661,0 0.01,-2.33661 0.01,-4.68322 0,-7.03983 0.7922,0.01 1.57441,0.01 2.34661,0 0.01,-3.90101 0.01,-7.81203 0,-11.73305 0.01,-9.37644 0.01,-18.76288 0,-28.15931 12.52525,-1.55441 25.0405,-3.11882 37.54576,-4.69322 0.7922,-7.02983 1.5744,-14.06966 2.3466,-21.11949 -3.11881,0.01 -6.24762,0.01 -9.38643,0 -0.77221,1.5744 -1.55441,3.13881 -2.34661,4.69322 -1.55441,0.01 -3.11882,0.01 -4.69322,0 0.01,0.7922 0.01,1.5744 0,2.34661 -5.46543,0.01 -10.94085,0.01 -16.42627,0 -0.77221,-0.77221 -1.55441,-1.55441 -2.34661,-2.34661 -1.55441,0.01 -3.11881,0.01 -4.69322,0 0.01,-0.77221 0.01,-1.55441 0,-2.34661 -1.55441,-1.55441 -3.11881,-3.11882 -4.69322,-4.69322 0.01,-1.55441 0.01,-3.11882 0,-4.69322 -0.7722,0.01 -1.55441,0.01 -2.34661,0 0.01,-3.11881 0.01,-6.24763 0,-9.38644 -7.02983,-0.7722 -14.06966,-1.55441 -21.11949,-2.34661 0.01,-0.7722 0.01,-1.55441 0,-2.34661 -0.7722,0.01 -1.55441,0.01 -2.34661,0 -0.7722,-11.72305 -1.55441,-23.456098 -2.34661,-35.199147 0.7922,0.01 1.57441,0.01 2.34661,0 0.01,-1.554407 0.01,-3.118813 0,-4.69322 0.7922,0.01 1.57441,0.01 2.34661,0 0.01,-0.772203 0.01,-1.554406 0,-2.34661 0.7922,0.01 1.57441,0.01 2.34661,0 0.01,-0.772203 0.01,-1.554406 0,-2.346609 0.7922,0.01 1.57441,0.01 2.34661,0 0.01,-0.772204 0.01,-1.554407 0,-2.34661 3.92102,-1.554407 7.83203,-3.118813 11.73305,-4.69322 11.74305,0.01 23.4761,0.01 35.19915,0 0.01,-0.772203 0.01,-1.554406 0,-2.346609 0.7922,0.01 1.5744,0.01 2.34661,0 0.7922,-4.68322 1.5744,-9.37644 2.34661,-14.079659 2.35661,-3.901016 4.70322,-7.812033 7.03983,-11.733049 0.7922,0.01 1.5744,0.01 2.34661,0 0.01,-0.772203 0.01,-1.554407 0,-2.34661 0.7922,0.01 1.5744,0.01 2.3466,0 0.01,-0.772203 0.01,-1.554406 0,-2.34661 1.57441,0.01 3.13882,0.01 4.69322,0 4.70322,-1.554406 9.39644,-3.118813 14.07966,-4.693219 13.30746,0.01 26.60491,0.01 39.89237,0 3.13881,0.01 6.26763,0.01 9.38644,0 3.92101,0.792203 7.83203,1.574406 11.73305,2.34661 z"
       inkscape:export-filename="beach2.svg"
       inkscape:export-xdpi="96"
       inkscape:export-ydpi="96" /><path
       style="fill:#eccea0;fill-opacity:1;stroke:#e1b97b;stroke-width:20;stroke-linecap:round;stroke-linejoin:round;stroke-dasharray:none;stroke-opacity:1;paint-order:normal"
       d="m 422.69598,678.97441 c 0,0 13.17079,-67.50264 -0.32496,-118.13584 -13.6205,-51.10121 -30.5966,-149.53442 -30.5966,-149.53442 0,0 39.5629,-13.90856 60.00284,-54.42726 22.42025,-44.44435 4.68932,-110.03618 4.68932,-110.03618 0,0 -48.9907,-61.42954 10.56466,-80.77766 18.34521,-5.95993 -35.72905,-45.43266 -35.72905,-45.43266 0,0 -23.33253,-19.62795 9.45885,-46.632608 32.79138,-27.004664 70.05083,3.074739 70.05083,3.074739 0,0 26.3007,-26.203077 41.35516,-26.772787 14.35188,-0.543121 54.58492,6.258225 101.10846,18.684639 50.35099,13.448726 65.11623,27.614069 65.11623,27.614069 0,0 54.43266,24.713878 76.07338,54.542128 18.58928,25.62232 66.89538,82.41354 66.89538,82.41354 0,0 60.9635,24.28849 68.28377,48.34941 13.96885,45.91413 14.89583,70.93625 14.89583,70.93625 0,0 22.32038,35.2436 83.56602,65.73252 24.6127,12.25255 51.2378,40.49667 51.2378,40.49667 0,0 24.8613,46.28993 44.2482,100.32543 7.427,20.70084 13.7969,87.53362 13.7969,87.53362 0,0 50.0311,72.11444 26.8842,93.33239 -23.1468,21.21795 -53.7574,71.69362 -53.7574,71.69362 0,0 -11.208,5.0914 -29.4184,76.89337 -6.5863,25.96912 -65.6975,68.1597 -65.6975,68.1597 0,0 -17.62966,22.4003 -95.31242,15.16082 -34.52386,-3.21738 -59.64043,8.28205 -59.64043,8.28205 0,0 -65.86556,29.98114 -104.88289,44.62764 -83.04272,31.1729 -145.79398,-16.94 -145.79398,-16.94 0,0 -41.114,16.9408 -93.62573,-44.90086 -52.28721,-61.57724 -47.45018,-76.89032 -47.45018,-76.89032 l -17.98486,-75.82246 c 0,0 -66.94603,-67.60028 -28.01343,-131.54955 z"
       id="path18185"
       inkscape:export-filename="beach2.svg"
       inkscape:export-xdpi="96"
       inkscape:export-ydpi="96"
       sodipodi:nodetypes="cscscscscsscscscscscscscscscsccc" /><g
       id="g16895"
       transform="translate(-743.8753,30.505927)"
       inkscape:export-filename="mainland.svg"
       inkscape:export-xdpi="96"
       inkscape:export-ydpi="96"><path
         id="path599"
         style="fill:#87b554;fill-opacity:0.935154;stroke:#6a8d43;stroke-width:10;stroke-linecap:round;stroke-linejoin:round;stroke-dasharray:none;stroke-opacity:1"
         d="m 1223.0616,53.090123 c -1.4256,0.0035 -1.4256,0.712564 -3.1953,1.0625 -1.7697,0.349941 -5.3199,0.350997 -7.0996,0.710938 -1.7797,0.359941 -1.7791,1.069438 -3.1953,1.773438 -1.4162,0.703995 -4.2559,1.412766 -6.0351,2.480468 -1.7793,1.067703 -2.49,2.487432 -3.5489,3.195313 -1.0588,0.707877 -2.4784,0.708584 -3.1933,2.488281 -0.7149,1.779697 -0.7135,5.329913 -0.3535,7.099609 0.3599,1.769701 1.0699,1.769497 1.4199,2.484375 0.3499,0.714883 0.3485,2.134449 1.0644,3.197266 0.7159,1.062817 2.1365,1.772556 3.1973,3.195312 1.0608,1.422761 1.7714,3.551522 3.5449,3.544922 1.7735,-0.0066 4.6128,-2.134648 7.4551,-3.554687 2.8423,-1.420043 5.6816,-2.131285 8.1621,-3.904297 2.4805,-1.773012 4.6098,-4.612647 6.0352,-6.033203 1.4253,-1.420561 2.1344,-1.418859 2.4843,-3.898438 0.35,-2.479575 0.3514,-7.449923 -1.0625,-10.292968 -1.4138,-2.84305 -4.254,-3.552354 -5.6797,-3.548829 z" /><path
         id="path603"
         style="fill:#87b554;fill-opacity:1;stroke:#6a8d43;stroke-width:25;stroke-linecap:round;stroke-linejoin:round;stroke-dasharray:none;stroke-opacity:1"
         d="m 1326.1085,50.68778 c -3.2393,0 -8.54,0.0013 -11.1953,0.300781 -2.6554,0.299486 -2.6556,0.888268 -4.1231,1.177734 -1.4674,0.289486 -4.4131,0.288405 -5.8906,0.587891 -1.4774,0.299486 -1.4781,0.890221 -1.7676,1.179687 -0.2895,0.289486 -0.8769,0.288101 -2.0605,1.466797 -1.1836,1.178716 -2.9515,3.534668 -6.4824,5.888672 -3.5309,2.354023 -8.8317,4.711024 -11.4844,6.189453 -2.6527,1.478449 -2.6527,2.067439 -3.5332,2.650391 -0.8804,0.582952 -2.6462,1.172149 -3.8281,2.058594 -1.1819,0.886445 -1.771,2.063451 -2.6485,2.65039 -0.8772,0.586958 -2.0551,0.587891 -2.3496,0.587891 -0.2943,0 0.2939,-0.0012 0.8809,0.59375 0.5869,0.594952 1.1751,1.774451 2.0605,2.357422 0.8855,0.582952 2.0645,0.581393 2.6485,0.880859 0.584,0.299486 0.5847,0.888466 5.0078,2.652344 4.4233,1.763878 13.2565,4.709295 18.2617,6.179687 5.0052,1.470412 6.1841,1.470971 8.541,2.357422 2.3569,0.886466 5.8908,2.653476 7.9492,4.128906 2.0584,1.47543 2.6473,2.65337 3.2383,3.23633 0.591,0.58296 1.1793,0.58183 1.4688,3.826169 0.2895,3.24434 0.289,9.7231 0.289,13.8457 0,4.1228 5e-4,5.89127 -0.289,6.76953 -0.2895,0.87846 -0.8783,0.87869 -1.1778,1.47266 -0.2995,0.59397 -0.2989,1.77166 -0.8886,3.24024 -0.5898,1.46838 -1.7693,3.23508 -2.3575,5.00586 -0.5882,1.77058 -0.588,3.53772 -1.1777,5.30078 -0.5897,1.76287 -1.7673,3.53003 -2.3555,5.30078 -0.5882,1.77075 -0.5874,3.53755 -0.8769,4.41601 -0.2895,0.87846 -0.8783,0.87913 -1.1778,1.76758 -0.2994,0.88846 -0.3003,2.65494 -0.5898,3.5332 -0.2895,0.87846 -0.8777,0.87918 -1.4727,1.76563 -0.5949,0.88645 -1.184,2.65188 -3.832,5.00391 -2.648,2.35184 -7.3604,5.29713 -10.3066,7.35937 -2.9462,2.06224 -4.1243,3.2406 -5.5938,4.12305 -1.4692,0.88244 -3.2365,1.47142 -4.123,2.0664 -0.8865,0.59498 -0.8866,1.18323 -5.8887,2.35547 -5.0022,1.17224 -15.0153,2.94048 -20.0254,3.53516 -5.0102,0.59468 -5.0097,0.005 -5.5937,-0.29492 -0.584,-0.29949 -1.7615,-0.29885 -2.9395,-0.88282 -1.1779,-0.58396 -2.3567,-1.76147 -3.2402,-2.35546 -0.8835,-0.59399 -1.4715,-0.59476 -2.0625,-1.17774 -0.591,-0.58298 -1.1791,-1.76049 -2.0606,-2.35547 -0.8814,-0.59498 -2.0603,-0.59528 -2.6543,-0.88476 -0.5939,-0.28949 -0.5946,-0.87825 -1.7675,-1.17774 -1.173,-0.29948 -3.528,-0.2984 -4.711,-0.58789 -1.1829,-0.28949 -1.1825,-0.8802 -2.3554,-1.17969 -1.173,-0.29948 -3.5289,-0.29882 -5.8848,-0.29882 h -6.1855 -1.7657 c 0.2945,0 1.4727,-6.6e-4 2.0567,0.29882 0.584,0.29949 0.5832,0.88864 1.4726,1.47461 0.8895,0.58598 2.6555,1.17604 4.127,2.0625 1.4714,0.88647 2.6502,2.06344 4.4179,2.94336 1.7678,0.87993 4.1246,1.46847 5.8907,2.35547 1.7658,0.887 2.9431,2.06641 4.1211,2.65039 1.1779,0.58398 2.3554,0.58333 2.9394,0.88282 0.584,0.29929 0.5837,0.88806 1.7676,1.76953 1.1839,0.88146 3.5404,2.0593 5.0098,3.24023 1.4694,1.18093 2.0582,2.35886 3.8281,3.5332 1.7699,1.17435 4.7153,2.35244 6.1816,3.23828 1.4664,0.88604 1.466,1.47672 2.3555,2.0625 0.8895,0.58598 2.6577,1.17366 3.5352,1.76563 0.8774,0.59197 0.8757,1.18061 1.4707,1.76758 0.5949,0.58696 1.7744,1.1775 2.3574,5.00781 0.5829,3.83031 0.5822,10.89663 1.1719,19.14258 0.5896,8.24595 1.7669,17.67154 1.4707,24.4414 -0.2963,6.77006 -2.0619,10.89113 -3.5332,13.53907 -1.4714,2.64775 -2.6494,3.82639 -3.2383,4.71484 -0.589,0.88845 -0.5894,1.47809 -0.8789,1.76758 -0.2895,0.28949 -0.8784,0.28921 -1.7676,1.17383 -0.8892,0.88461 -2.0677,2.65089 -2.9453,3.5332 -0.8777,0.88231 -1.4656,0.88363 -2.0606,1.47461 -0.595,0.59098 -1.1855,1.76819 -2.3613,2.94336 -1.1756,1.17517 -2.9413,2.35259 -5.5938,5.88867 -2.6522,3.53609 -6.1871,9.42616 -7.9531,13.25781 -1.766,3.83184 -1.7657,5.59826 -2.3554,7.36133 -0.5898,1.76308 -1.767,3.53027 -2.6504,5.88867 -0.8835,2.35859 -1.4735,5.30486 -2.0567,6.77344 -0.5832,1.46859 -1.1712,1.46701 -1.4707,2.35547 -0.2995,0.88846 -0.2997,2.6556 -0.8887,4.12305 -0.5889,1.46744 -1.7678,2.64699 -3.83,7.65625 -2.0624,5.00906 -5.0071,13.84394 -6.4785,19.14648 -1.4715,5.30273 -1.4723,7.06881 -1.7618,7.94727 -0.2895,0.87845 -0.8782,0.87783 -1.1777,3.5332 -0.2994,2.65537 -0.2982,7.95645 -0.5937,11.48828 -0.2955,3.53183 -0.8852,5.29816 -1.7676,6.76758 -0.8825,1.46942 -2.0595,2.64907 -2.6485,3.83203 -0.5889,1.18296 -0.5894,2.35939 -0.8789,2.94336 -0.2895,0.58397 -0.8782,0.58376 -1.1777,1.17773 -0.2995,0.59397 -0.3003,1.77345 -0.5898,2.35743 -0.2895,0.58397 -0.8783,0.58376 -1.1778,1.17773 -0.2995,0.59397 -0.2986,1.77108 -0.8887,3.83008 -0.59,2.05899 -1.769,5.00477 -2.6464,6.47461 -0.8775,1.46983 -1.4662,1.46853 -1.7657,2.0625 -0.2995,0.59397 -0.2997,1.77294 -0.8867,2.65039 -0.5869,0.87745 -1.7639,1.46725 -2.6504,2.35351 -0.8864,0.88646 -1.4756,2.06341 -2.0586,2.6504 -0.583,0.58679 -1.1732,0.58723 -1.4726,0.88671 -0.2995,0.29949 -0.2988,0.88825 -0.8828,1.17774 -0.584,0.28948 -1.762,0.29134 -4.1172,-0.004 -2.3552,-0.29353 -5.8895,-0.88187 -7.6621,-1.4668 -1.7727,-0.58473 -1.7711,-1.17512 -2.0606,-1.4746 -0.2894,-0.29949 -0.8802,-0.29841 -1.1797,-0.5879 -0.2995,-0.28929 -0.2981,-0.87906 -1.1757,-1.76367 -0.8777,-0.88461 -2.646,-2.06301 -3.5352,-2.94531 -0.8892,-0.8823 -0.8882,-1.47005 -1.1777,-1.76953 -0.2895,-0.29949 -0.8788,-0.29948 -2.0567,-1.17773 -1.1779,-0.87845 -2.9458,-2.64617 -3.2441,-0.58399 -0.2983,2.06218 0.8803,7.95153 1.7676,10.89063 0.8872,2.9389 1.4758,2.93935 2.0605,5.30078 0.5847,2.36123 1.1736,7.07353 2.0586,10.90234 0.8852,3.82881 2.0632,6.77385 2.9492,8.24024 0.8861,1.46619 1.4766,1.466 2.0625,2.35546 0.586,0.88946 1.1737,2.65576 1.7656,3.53321 0.592,0.87744 1.1816,0.87832 1.7676,1.76757 0.586,0.88945 1.1755,2.65613 2.3574,3.83008 1.182,1.17395 2.9475,1.76305 5.0079,3.23828 2.0604,1.47543 4.418,3.83136 6.4804,5.30079 2.0624,1.46923 3.8275,2.05787 5.8867,4.12304 2.0593,2.06517 4.4167,5.59983 6.1836,8.25 1.7669,2.65037 2.9442,4.41721 3.5293,5.88867 0.5851,1.47166 0.585,2.65047 1.4727,4.41797 0.8875,1.76751 2.6556,4.12303 3.2402,12.66211 0.5846,8.53908 0,23.26402 -0.5937,36.51563 -0.5891,13.25142 -1.178,25.03141 -1.7676,32.09765 -0.5896,7.06644 -1.1793,9.42315 -1.1777,12.95899 0,3.53565 0.5909,8.24755 0.8847,14.13672 0.2938,5.88898 0.2943,12.95646 0.5918,17.08007 0.2975,4.12381 0.8865,5.30153 0,8.24219 -0.8874,2.94086 -3.243,7.65371 -4.4199,10.60157 -1.1768,2.94766 -1.1781,4.12562 -2.0625,6.47851 -0.8843,2.35289 -2.6503,5.88548 -3.8223,7.65039 -1.1719,1.76491 -1.761,1.76541 -2.0605,2.35938 -0.2995,0.59397 -0.2988,1.77258 -0.2988,3.83398 0,2.0614 -10e-4,5.00675 0.5937,6.77148 0.595,1.76493 1.7744,2.35325 3.2441,4.12305 1.47,1.76981 3.237,4.71409 5.0059,6.77344 1.7692,2.05935 3.5358,3.23787 4.7109,4.41797 1.1752,1.1801 1.7645,2.35842 2.3555,2.9414 0.591,0.58298 1.1793,0.58269 1.4688,1.76563 0.2895,1.18294 0.289,3.53844 0.289,10.90039 0,7.36195 10e-5,19.73033 -0.2949,28.26953 -0.295,8.53921 -0.8826,13.25232 -0.2871,15.90039 0.5955,2.64807 2.3608,3.23659 3.2383,4.12305 0.8774,0.88645 0.8782,2.06446 1.1777,2.64844 0.2995,0.58397 0.8881,0.58403 1.7676,3.24023 0.8797,2.6562 2.0588,7.95789 2.6465,17.08594 0.5877,9.12804 0.5879,22.08497 4.1269,31.50781 3.5392,9.42284 10.6062,15.31334 14.7285,18.84766 4.1222,3.53413 5.3003,4.71189 6.7735,5.88867 1.473,1.17678 3.2395,2.35432 4.1172,6.18359 0.8776,3.82947 0.8792,10.30803 1.1757,14.43164 0.2965,4.1238 0.8853,5.89165 1.1778,8.54102 0.2925,2.64937 0.2915,6.18324 1.1758,14.13476 0.8842,7.95172 2.652,20.32118 5.3066,28.27149 2.6546,7.95031 6.1883,11.48383 8.543,14.13476 2.3547,2.65113 3.5327,4.41769 5.8906,6.18164 2.3581,1.76415 5.8911,3.53101 7.6524,4.71094 1.7609,1.17994 1.7613,1.76894 2.9453,2.65039 1.1839,0.88146 3.539,2.05986 4.7109,2.94532 1.172,0.88526 1.1724,1.47487 4.711,5.59765 3.5386,4.12298 10.607,11.77862 14.4355,15.60156 3.8285,3.82314 4.4175,3.82357 4.707,4.12305 0.2895,0.29949 0.2888,0.88807 1.4727,1.76953 1.1839,0.88147 3.5394,2.06051 7.0723,2.64649 3.5328,0.58597 8.2455,0.58618 18.5527,0.88086 10.3072,0.29467 26.2082,0.88322 43.2891,3.24023 17.0789,2.35701 35.3401,6.47973 51.2422,9.71875 15.9001,3.23902 29.4482,5.59509 42.1074,3.82617 12.6592,-1.76891 24.4392,-7.65974 32.9785,-12.37109 8.5392,-4.71154 13.8404,-8.24513 17.373,-10.89453 3.5327,-2.6496 5.2995,-4.41537 6.4825,-5.29883 1.1829,-0.88346 1.771,-0.88434 2.0605,-1.17383 0.2895,-0.28948 0.2892,-0.8778 2.3516,-2.65039 2.0623,-1.77259 6.1854,-4.7177 8.8398,-6.18945 2.6544,-1.47176 3.8318,-1.47253 5.5957,-2.0625 1.7639,-0.58997 4.1215,-1.76726 7.0684,-2.65039 2.9469,-0.88313 6.4802,-1.47181 10.8984,-1.76563 4.4182,-0.29381 9.7184,-0.2934 12.6582,-0.58789 2.9399,-0.29449 3.5289,-0.88522 5.3008,-1.17969 1.7719,-0.29446 4.7166,-0.29339 6.4785,-0.58789 1.762,-0.29449 2.3518,-0.88324 3.2402,-1.17773 0.8885,-0.2945 2.0661,-0.29564 5.3028,-1.47461 3.2366,-1.17897 8.5376,-3.53412 12.0703,-5.30078 3.5327,-1.76667 5.2991,-2.945 6.7754,-3.53321 1.4763,-0.58801 2.6549,-0.58816 5.3027,-1.47265 2.6478,-0.88449 6.7709,-2.65065 10.0098,-4.12305 3.2389,-1.4724 5.5933,-2.65082 7.3574,-4.12109 1.7641,-1.47027 2.9418,-3.23787 4.418,-4.41797 1.4762,-1.1801 3.244,-1.76746 4.4179,-2.94141 1.174,-1.17394 1.7625,-2.94168 2.3575,-3.82812 0.5949,-0.88645 1.185,-0.88656 2.0625,-2.0625 0.8774,-1.17594 2.0554,-3.53186 3.2343,-5.30078 1.179,-1.76892 2.3561,-2.94691 5.0059,-6.18555 2.6498,-3.23864 6.7726,-8.53868 10.6035,-12.07422 3.8309,-3.53553 7.3656,-5.30239 10.6035,-7.36328 3.238,-2.06089 6.1827,-4.41799 8.836,-5.89062 2.6533,-1.47283 5.0093,-2.06197 7.0683,-2.94532 2.059,-0.88334 3.8253,-2.06 6.4785,-2.94336 2.6533,-0.88336 6.1881,-1.47364 9.1309,-2.35742 2.9428,-0.88378 5.2985,-2.06046 7.0684,-2.64844 1.7699,-0.58797 2.9462,-0.5886 4.7089,-1.47265 1.7627,-0.88406 4.1196,-2.65035 5.8907,-3.53321 1.7711,-0.88266 2.9487,-0.88363 5.5957,-2.0625 2.6469,-1.17867 6.771,-3.53524 12.3672,-6.18554 5.5961,-2.65049 12.6628,-5.59589 16.7832,-7.65625 4.1203,-2.06036 5.2973,-3.23705 7.3613,-4.41602 2.064,-1.17897 5.0097,-2.35793 9.4238,-6.77344 4.4141,-4.41531 10.3046,-12.072 13.25,-16.77929 2.9454,-4.70749 2.9447,-6.47483 3.2442,-7.36328 0.2994,-0.88846 0.8892,-0.88811 1.4726,-2.94532 0.5834,-2.05701 1.1711,-6.18049 1.7656,-8.24609 0.5946,-2.0656 1.1842,-2.06408 1.7676,-4.12109 0.5834,-2.05721 1.173,-6.18201 2.3516,-9.13086 1.1785,-2.94905 2.9446,-4.7162 4.416,-6.77539 1.4714,-2.05939 2.6502,-4.41442 4.123,-6.77149 1.4729,-2.35707 3.2384,-4.71382 4.4219,-5.89258 1.1835,-1.17876 1.7733,-1.17767 2.9453,-2.64843 1.1721,-1.47096 2.9388,-4.41616 4.4141,-6.18555 1.4753,-1.76939 2.6532,-2.35843 3.2402,-2.94141 0.587,-0.58298 0.5874,-1.17215 0.8809,-2.05859 0.2935,-0.88644 0.8828,-2.06513 2.3555,-4.42188 1.4726,-2.35655 3.8271,-5.89033 5.0058,-8.24218 1.1787,-2.35205 1.179,-3.52908 1.4785,-4.12305 0.2995,-0.59397 0.8883,-0.59463 1.1778,-1.76758 0.2894,-1.17294 0.292,-3.5288 0.5839,-6.47461 0.2939,-2.94561 0.8831,-6.47948 1.4727,-8.54492 0.5896,-2.06543 1.1782,-2.65432 1.4727,-5.88867 0.2945,-3.23435 0.2949,-9.12371 0.2949,-14.71875 0,-5.59523 4e-4,-10.89737 -0.2891,-13.55274 -0.2895,-2.65517 -0.8783,-2.65366 -1.1777,-4.12109 -0.2995,-1.46743 -0.3008,-4.41269 -1.1817,-7.94531 -0.8808,-3.53281 -2.6471,-7.65655 -3.5332,-11.19141 -0.886,-3.53466 -0.8861,-6.47976 -1.7675,-10.60156 -0.8815,-4.1218 -2.6478,-9.4224 -3.5332,-12.95703 -0.8855,-3.53483 -0.8867,-5.30093 -1.4727,-7.36133 -0.586,-2.0604 -1.7644,-4.41647 -2.9434,-7.36133 -1.1789,-2.94486 -2.3562,-6.47948 -2.9472,-9.13086 -0.591,-2.65119 -0.5914,-4.41818 -0.8809,-5.30664 -0.2895,-0.88846 -0.8782,-0.88868 -1.1777,-1.47265 -0.2995,-0.58397 -0.2998,-1.76102 -0.8828,-2.64649 -0.583,-0.88547 -1.7605,-1.47588 -2.9414,-2.94531 -1.181,-1.46943 -2.3575,-3.82371 -4.1231,-6.47461 -1.7655,-2.6509 -4.1228,-5.59579 -5.5976,-7.95117 -1.4749,-2.35538 -2.0639,-4.12375 -2.9434,-5.30469 -0.8794,-1.18094 -2.0573,-1.76936 -2.6523,-2.94531 -0.595,-1.17596 -0.5938,-2.94351 -1.1797,-5.00391 -0.586,-2.06039 -1.7655,-4.41568 -2.3574,-6.18359 -0.592,-1.76791 -0.5914,-2.9451 -0.8809,-3.53907 -0.2895,-0.59377 -0.8783,-0.59375 -1.1777,-1.17773 -0.2995,-0.58397 -0.2984,-1.76345 -0.5879,-2.35742 -0.2895,-0.59398 -0.8802,-0.59331 -2.6485,-2.94336 -1.7682,-2.35005 -4.712,-7.06151 -8.2441,-11.18555 -3.5321,-4.12384 -7.6555,-7.65837 -10.0117,-9.42968 -2.3563,-1.77151 -2.9443,-1.77121 -4.1231,-2.94336 -1.1787,-1.17234 -2.9473,-3.52889 -4.4179,-5.00391 -1.4706,-1.47502 -2.6472,-2.06385 -3.5352,-3.5332 -0.888,-1.46954 -1.4765,-3.82548 -2.3555,-5.30079 -0.8789,-1.47511 -2.0592,-2.06377 -3.2382,-3.5332 -1.181,-1.46943 -2.3588,-3.82583 -3.2403,-5.00976 -0.8814,-1.18394 -1.4701,-1.18318 -1.7695,-1.47266 -0.2995,-0.28948 -0.3008,-0.88021 -0.8848,-1.76367 -0.584,-0.88347 -1.7619,-2.05983 -2.6484,-3.53125 -0.8865,-1.47143 -1.4746,-3.23945 -2.0606,-4.12891 -0.5859,-0.88946 -1.1748,-0.88924 -2.6484,-2.65039 -1.4736,-1.76114 -3.8295,-5.29568 -5.3008,-7.06836 -1.4712,-1.77268 -2.0607,-1.77271 -2.9453,-2.65039 -0.8846,-0.87768 -2.063,-2.64398 -2.9453,-3.5332 -0.8823,-0.88922 -1.47,-0.88869 -1.7695,-1.47266 -0.2995,-0.58397 -0.2997,-1.7627 -0.8848,-3.23437 -0.5851,-1.47168 -1.7646,-3.23819 -2.3574,-5.00586 -0.5928,-1.76768 -0.5911,-3.53458 -1.7657,-6.47852 -1.1745,-2.94393 -3.531,-7.06709 -5.8847,-10.01367 -2.3537,-2.94658 -4.7099,-4.71318 -6.4785,-6.47852 -1.7687,-1.76515 -2.9462,-3.53262 -4.711,-5.00781 -1.7647,-1.47519 -4.1204,-2.65173 -7.9492,-5.30078 -3.8288,-2.64905 -9.1297,-6.7721 -13.8437,-12.66016 -4.7141,-5.88786 -8.8381,-13.54467 -15.3145,-20.9082 -6.4764,-7.36353 -15.31,-14.43145 -21.2012,-20.02539 -5.8911,-5.59374 -8.8389,-9.71761 -10.8964,-12.07617 -2.0595,-2.35856 -3.2371,-2.94818 -3.8321,-3.53516 -0.595,-0.58697 -0.5952,-1.17561 -1.4726,-1.76758 -0.8775,-0.59197 -2.6446,-1.18146 -4.1192,-2.35546 -1.4746,-1.17419 -2.6515,-2.93973 -5.0058,-5.29688 -2.3544,-2.35715 -5.8881,-5.30241 -8.834,-8.24609 -2.9459,-2.94387 -5.3012,-5.88853 -6.7774,-9.7168 -1.4761,-3.82827 -2.0661,-8.54085 -2.9472,-12.07422 -0.8812,-3.53337 -2.0584,-5.88833 -2.6504,-7.65625 -0.592,-1.76792 -0.5927,-2.94746 -2.0606,-5.30273 -1.4679,-2.35547 -4.4117,-5.88956 -5.8886,-7.95117 -1.477,-2.06181 -1.4781,-2.64974 -1.7676,-2.94922 -0.2895,-0.29949 -0.8772,-0.29972 -2.3496,-1.47266 -1.4724,-1.17294 -3.8284,-3.52995 -5.3008,-4.71289 -1.4725,-1.18294 -2.0619,-1.18122 -2.3613,-1.4707 -0.2995,-0.28949 -0.2993,-0.87958 -1.7657,-1.76563 -1.4664,-0.88605 -4.4116,-2.06391 -6.1816,-3.23828 -1.77,-1.17437 -2.3583,-2.35231 -2.9453,-2.94727 -0.587,-0.59495 -1.1776,-0.59418 -2.3555,-1.47265 -1.1779,-0.87848 -2.9436,-2.64671 -4.416,-3.53516 -1.4724,-0.88845 -2.6512,-0.88855 -5.5957,-2.94531 -2.9445,-2.05676 -7.6564,-6.17804 -10.6035,-9.41602 -2.9472,-3.23779 -4.1244,-5.59534 -5.0059,-6.77929 -0.8814,-1.18395 -1.4705,-1.18309 -2.0625,-2.06055 -0.592,-0.87746 -1.1809,-2.64542 -2.6523,-5.88477 -1.4715,-3.23915 -3.8304,-7.95061 -5.2988,-10.3125 -1.4704,-2.36169 -2.058,-2.3609 -2.3575,-2.65039 -0.2995,-0.28948 -0.3008,-0.87845 -0.8847,-1.76171 -0.584,-0.88346 -1.7615,-2.06187 -2.3555,-2.94532 -0.594,-0.88345 -0.5933,-1.472 -0.8828,-1.77148 -0.2895,-0.29949 -0.8783,-0.30036 -1.1778,-0.58985 -0.2994,-0.28948 -0.301,-0.87917 -1.7675,-2.05859 -1.4666,-1.17942 -4.4099,-2.94607 -6.1797,-4.41602 -1.7698,-1.46975 -2.3602,-2.64771 -3.5352,-3.53515 -1.1749,-0.88744 -2.9421,-1.47603 -4.123,-2.35547 -1.1809,-0.87944 -1.769,-2.05736 -2.6504,-2.65234 -0.8814,-0.59498 -2.0592,-0.59497 -3.2383,-1.47266 -1.1791,-0.87769 -2.3579,-2.64397 -3.2402,-3.5332 -0.8823,-0.88923 -1.4701,-0.89021 -1.7696,-1.17969 -0.2995,-0.28949 -0.3004,-0.87844 -0.5898,-1.17773 -0.2895,-0.29949 -0.8791,-0.29972 -2.3516,-1.47266 -1.4724,-1.17294 -3.8278,-3.52925 -6.4804,-7.94531 -2.6527,-4.41626 -5.5968,-10.8954 -7.3653,-15.60743 -1.7685,-4.71184 -2.3582,-7.65657 -2.9433,-9.13476 -0.5852,-1.47819 -1.1732,-1.47809 -1.4727,-1.76758 -0.2995,-0.28948 -0.3027,-0.87825 -0.8847,-1.17773 -0.584,-0.29949 -1.7618,-0.29976 -3.8223,-1.17969 -2.0606,-0.87994 -5.0041,-2.64623 -7.0664,-4.11719 -2.0623,-1.47096 -3.2416,-2.64822 -4.125,-3.24219 -0.8835,-0.59396 -1.4715,-0.59475 -2.0625,-1.17773 -0.591,-0.58298 -1.1806,-1.76051 -1.7676,-2.35547 -0.587,-0.59496 -1.1751,-0.59547 -1.4746,-0.88476 -0.2995,-0.28949 -0.3003,-0.87874 -1.1777,-1.47071 -0.8775,-0.59197 -2.6438,-1.1816 -3.5332,-1.76758 -0.8895,-0.58597 -0.8906,-1.17313 -2.0625,-2.05859 -1.172,-0.88546 -3.5266,-2.06335 -5.002,-3.23828 -1.4754,-1.17493 -2.0651,-2.35329 -3.2402,-3.5332 -1.1752,-1.18011 -2.9409,-2.35837 -3.8301,-3.53516 -0.8892,-1.17679 -0.8901,-2.35573 -1.7676,-3.24219 -0.8774,-0.88645 -2.6452,-1.47407 -3.8262,-2.35351 -1.1809,-0.87944 -1.7699,-2.05886 -2.6504,-2.94532 -0.8804,-0.88645 -2.0581,-1.47521 -3.2382,-2.65039 -1.1801,-1.17517 -2.3578,-2.94103 -4.418,-3.830069 -2.0602,-0.88924 -5.0044,-0.89062 -8.5371,-1.77149 -3.5328,-0.88087 -7.6557,-2.64759 -10.6016,-4.41211 -2.9459,-1.76451 -4.7126,-3.531492 -5.8906,-4.419921 -1.178,-0.888428 -1.7669,-0.888248 -2.0664,-1.177734 -0.2995,-0.289486 -0.3023,-0.878268 -0.5898,-1.177734 -0.2895,-0.299486 -0.8783,-0.300358 -1.1778,-0.589844 -0.2995,-0.289486 -0.3003,-0.878249 -0.5898,-1.177735 -0.2895,-0.299466 -0.8768,-0.299279 -2.0547,-1.177734 -1.1779,-0.878455 -2.9461,-2.644532 -5.5957,-4.707031 -2.6496,-2.0625 -6.1824,-4.419777 -8.5391,-5.601563 -2.3566,-1.181766 -3.5349,-1.181217 -4.1289,-1.470703 -0.5939,-0.289466 -0.5935,-0.877165 -2.9433,-2.351562 -2.3499,-1.474416 -7.062,-3.830809 -10.0079,-5.011719 -2.9458,-1.18091 -4.1247,-1.181876 -7.3632,-1.769531 -3.2386,-0.587674 -8.5381,-1.765226 -12.3672,-2.355469 -3.8291,-0.590243 -6.1859,-0.590695 -9.7188,-1.765625 -3.5328,-1.17493 -8.244,-3.530026 -11.4844,-4.710937 -3.2384,-1.180931 -5.008,-1.181218 -5.8964,-1.470704 -0.8885,-0.289466 -0.8887,-0.878248 -1.4727,-1.177734 -0.584,-0.299486 -1.7606,-0.300781 -5,-0.300781 z"
         inkscape:export-filename="lanka2.svg"
         inkscape:export-xdpi="96"
         inkscape:export-ydpi="96" /></g></g></svg>
