<?xml version="1.0" encoding="UTF-8" standalone="no"?>
<!-- Created with Inkscape (http://www.inkscape.org/) -->

<svg
   width="129.42657"
   height="148.60773"
   viewBox="0 0 129.42658 148.60772"
   version="1.1"
   id="svg5"
   xml:space="preserve"
   inkscape:export-filename="lanka2.svg"
   inkscape:export-xdpi="96"
   inkscape:export-ydpi="96"
   sodipodi:docname="beach2.svg"
   xmlns:inkscape="http://www.inkscape.org/namespaces/inkscape"
   xmlns:sodipodi="http://sodipodi.sourceforge.net/DTD/sodipodi-0.dtd"
   xmlns="http://www.w3.org/2000/svg"
   xmlns:svg="http://www.w3.org/2000/svg"><sodipodi:namedview
     id="namedview7"
     pagecolor="#ffffff"
     bordercolor="#000000"
     borderopacity="0.25"
     inkscape:showpageshadow="2"
     inkscape:pageopacity="0.0"
     inkscape:pagecheckerboard="0"
     inkscape:deskcolor="#d1d1d1"
     inkscape:document-units="px"
     showgrid="false"
     inkscape:zoom="0.36525829"
     inkscape:cx="948.64376"
     inkscape:cy="418.88166"
     inkscape:window-width="1440"
     inkscape:window-height="900"
     inkscape:window-x="0"
     inkscape:window-y="0"
     inkscape:window-maximized="0"
     inkscape:current-layer="layer1" /><defs
     id="defs2" /><g
     inkscape:label="Layer 1"
     inkscape:groupmode="layer"
     id="layer1"
     transform="translate(-1095.8144,-288.31658)"><path
       style="fill:#eccea0;fill-opacity:1;stroke:#e1b97b;stroke-width:20;stroke-linecap:round;stroke-linejoin:round;stroke-dasharray:none;stroke-opacity:1;paint-order:normal"
       d="m 422.69598,678.97441 c 0,0 13.17079,-67.50264 -0.32496,-118.13584 -13.6205,-51.10121 -30.5966,-149.53442 -30.5966,-149.53442 0,0 39.5629,-13.90856 60.00284,-54.42726 22.42025,-44.44435 4.68932,-110.03618 4.68932,-110.03618 0,0 -48.9907,-61.42954 10.56466,-80.77766 18.34521,-5.95993 -35.72905,-45.43266 -35.72905,-45.43266 0,0 -23.33253,-19.62795 9.45885,-46.632608 32.79138,-27.004664 70.05083,3.074739 70.05083,3.074739 0,0 26.3007,-26.203077 41.35516,-26.772787 14.35188,-0.543121 54.58492,6.258225 101.10846,18.684639 50.35099,13.448726 65.11623,27.614069 65.11623,27.614069 0,0 54.43266,24.713878 76.07338,54.542128 18.58928,25.62232 66.89538,82.41354 66.89538,82.41354 0,0 60.9635,24.28849 68.28377,48.34941 13.96885,45.91413 14.89583,70.93625 14.89583,70.93625 0,0 22.32038,35.2436 83.56602,65.73252 24.6127,12.25255 51.2378,40.49667 51.2378,40.49667 0,0 24.8613,46.28993 44.2482,100.32543 7.427,20.70084 13.7969,87.53362 13.7969,87.53362 0,0 50.0311,72.11444 26.8842,93.33239 -23.1468,21.21795 -53.7574,71.69362 -53.7574,71.69362 0,0 -11.208,5.0914 -29.4184,76.89337 -6.5863,25.96912 -65.6975,68.1597 -65.6975,68.1597 0,0 -17.62966,22.4003 -95.31242,15.16082 -34.52386,-3.21738 -59.64043,8.28205 -59.64043,8.28205 0,0 -65.86556,29.98114 -104.88289,44.62764 -83.04272,31.1729 -145.79398,-16.94 -145.79398,-16.94 0,0 -41.114,16.9408 -93.62573,-44.90086 -52.28721,-61.57724 -47.45018,-76.89032 -47.45018,-76.89032 l -17.98486,-75.82246 c 0,0 -66.94603,-67.60028 -28.01343,-131.54955 z"
       id="path18185"
       inkscape:export-filename="beach1.svg"
       inkscape:export-xdpi="96"
       inkscape:export-ydpi="96"
       sodipodi:nodetypes="cscscscscsscscscscscscscscscsccc" /><path
       sodipodi:type="star"
       style="fill:#000000;stroke:none;stroke-width:20;stroke-linecap:round;stroke-linejoin:round"
       id="path425"
       inkscape:flatsided="true"
       sodipodi:sides="3"
       sodipodi:cx="312.09857"
       sodipodi:cy="235.27431"
       sodipodi:r1="163.25941"
       sodipodi:r2="81.6297"
       sodipodi:arg1="-0.0098036075"
       sodipodi:arg2="1.0373939"
       inkscape:rounded="0"
       inkscape:randomized="0"
       d="M 475.35014,233.6738 231.85887,377.45457 229.08671,94.694554 Z"
       transform="matrix(0.52556131,0,0,0.52556131,975.4153,238.54878)"
       inkscape:transform-center-x="-21.085444"
       inkscape:transform-center-y="0.42058547" /></g></svg>
