<?xml version="1.0" encoding="UTF-8" standalone="no"?>
<!-- Created with Inkscape (http://www.inkscape.org/) -->

<svg
   width="144.42468"
   height="696.9823"
   viewBox="0 0 144.42468 696.98228"
   version="1.1"
   id="svg5"
   xml:space="preserve"
   inkscape:export-filename="lanka2.svg"
   inkscape:export-xdpi="96"
   inkscape:export-ydpi="96"
   sodipodi:docname="beach2.svg"
   inkscape:version="1.2.1 (9c6d41e, 2022-07-14)"
   xmlns:inkscape="http://www.inkscape.org/namespaces/inkscape"
   xmlns:sodipodi="http://sodipodi.sourceforge.net/DTD/sodipodi-0.dtd"
   xmlns="http://www.w3.org/2000/svg"
   xmlns:svg="http://www.w3.org/2000/svg"><sodipodi:namedview
     id="namedview7"
     pagecolor="#ffffff"
     bordercolor="#000000"
     borderopacity="0.25"
     inkscape:showpageshadow="2"
     inkscape:pageopacity="0.0"
     inkscape:pagecheckerboard="0"
     inkscape:deskcolor="#d1d1d1"
     inkscape:document-units="px"
     showgrid="false"
     inkscape:zoom="0.12039617"
     inkscape:cx="1403.6992"
     inkscape:cy="-290.70693"
     inkscape:window-width="1440"
     inkscape:window-height="900"
     inkscape:window-x="0"
     inkscape:window-y="0"
     inkscape:window-maximized="0"
     inkscape:current-layer="layer1" /><defs
     id="defs2" /><g
     inkscape:label="Layer 1"
     inkscape:groupmode="layer"
     id="layer1"
     transform="translate(-141.05745,-698.34644)"><g
       id="g13402"
       transform="matrix(0.21993946,0,0,0.21993946,222.69334,1088.4409)"><path
         style="fill:#3dbd32;fill-opacity:1;stroke:#378727;stroke-width:10;stroke-linecap:round;stroke-linejoin:round;stroke-dasharray:none;stroke-opacity:1"
         d="M 81.560358,1292.2094 H -179.71217 c 0,0 59.2959,-226.0656 74.11987,-378.0113 14.781321,-151.50859 40.2199,-1308.90125 40.2199,-1308.90125 l 92.932001,-4.44292 -7.148126,1317.05017 c 0,0 7.411979,220.5066 61.148883,374.3053 z"
         id="path1235"
         sodipodi:nodetypes="ccscccc" /><path
         style="fill:#d930d9;fill-opacity:1;stroke:#761e74;stroke-width:9.41304;stroke-linecap:round;stroke-linejoin:round;stroke-dasharray:none;stroke-opacity:1"
         d="m -66.401645,-364.79109 c 0,0 -115.075785,-96.81352 -114.200385,-253.73005 0.86538,-155.12098 128.932474,-463.33986 181.945298,-464.75996 64.486096,-1.7274 161.157122,227.09949 153.581032,370.32402 -4.61287,87.20552 72.0533,296.61404 -137.468688,348.16599 -41.774271,10.27837 -83.857257,0 -83.857257,0 z"
         id="path3469"
         sodipodi:nodetypes="cssssc" /><path
         style="fill:#d930d9;fill-opacity:1;stroke:#761e74;stroke-width:10;stroke-linecap:round;stroke-linejoin:round;stroke-dasharray:none;stroke-opacity:1"
         d="m -5.9731597,-358.51751 c 0,0 -101.8652903,-536.43972 -167.5261003,-524.39232 -39.89366,7.31966 -133.40553,551.38166 167.5261003,524.39232 z"
         id="path4977"
         sodipodi:nodetypes="csc" /><path
         style="fill:#d930d9;fill-opacity:1;stroke:#761e74;stroke-width:10;stroke-linecap:round;stroke-linejoin:round;stroke-dasharray:none;stroke-opacity:1"
         d="m -6.66137,-358.57678 c 0,0 108.56406,-499.74405 197.13151,-497.87762 32.06383,0.6757 80.18404,508.43059 -197.13151,497.87762 z"
         id="path4979"
         sodipodi:nodetypes="csc" /><path
         style="fill:#d930d9;fill-opacity:1;stroke:#761e74;stroke-width:10;stroke-linecap:round;stroke-linejoin:round;stroke-dasharray:none;stroke-opacity:1"
         d="m -8.01225,-353.75994 c 0,0 -172.25321,-187.7838 -138.3587,-295.11639 33.8945,-107.33259 146.8235594,-300.62516 146.8235594,-300.62516 0,0 136.9552106,228.63003 128.4815806,335.96262 -8.47363,107.3326 -136.94644,259.77893 -136.94644,259.77893 z"
         id="path5707"
         sodipodi:nodetypes="cscsc" /><path
         style="fill:#ececec;fill-opacity:1;stroke:#bcb8b8;stroke-width:10;stroke-linecap:round;stroke-linejoin:round;stroke-dasharray:none;stroke-opacity:1"
         d="m -44.885692,-1015.5578 6.932396,-72.8914 31.053561,-7.7965 48.152331,-672.4167 -13.2969,672.1157 33.063384,8.9616 6.068272,65.7686 c 0,0 -21.639594,60.45871 -111.973044,6.2587 z"
         id="path8613"
         sodipodi:nodetypes="cccccccc" /><path
         style="fill:#3dbd32;fill-opacity:1;stroke:#378727;stroke-width:10;stroke-linecap:round;stroke-linejoin:round;stroke-dasharray:none;stroke-opacity:1"
         d="m -324.09568,1334.3235 -42.07878,-163.233 c 0,0 147.40454,-64.4802 330.437824,-58.391 182.975776,6.0873 316.218846,83.9039 316.218846,83.9039 l -44.72806,161.1036 c 0,0 -412.49058,86.947 -559.84983,-23.3835 z"
         id="path11927"
         sodipodi:nodetypes="ccsccc" /></g></g></svg>
