<?xml version="1.0" encoding="UTF-8" standalone="no"?>
<!-- Created with Inkscape (http://www.inkscape.org/) -->

<svg
   width="696.25989"
   height="463.90482"
   viewBox="0 0 696.25988 463.90482"
   version="1.1"
   id="svg5"
   xml:space="preserve"
   inkscape:export-filename="../../scripts/seablob2.svg"
   inkscape:export-xdpi="96"
   inkscape:export-ydpi="96"
   sodipodi:docname="mainland.svg"
   inkscape:version="1.2.1 (9c6d41e, 2022-07-14)"
   xmlns:inkscape="http://www.inkscape.org/namespaces/inkscape"
   xmlns:sodipodi="http://sodipodi.sourceforge.net/DTD/sodipodi-0.dtd"
   xmlns="http://www.w3.org/2000/svg"
   xmlns:svg="http://www.w3.org/2000/svg"><sodipodi:namedview
     id="namedview7"
     pagecolor="#ffffff"
     bordercolor="#000000"
     borderopacity="0.25"
     inkscape:showpageshadow="2"
     inkscape:pageopacity="0.0"
     inkscape:pagecheckerboard="0"
     inkscape:deskcolor="#d1d1d1"
     inkscape:document-units="px"
     showgrid="false"
     inkscape:zoom="0.27715011"
     inkscape:cx="-384.26829"
     inkscape:cy="205.66472"
     inkscape:window-width="1440"
     inkscape:window-height="872"
     inkscape:window-x="1920"
     inkscape:window-y="66"
     inkscape:window-maximized="0"
     inkscape:current-layer="layer1" /><defs
     id="defs2" /><g
     inkscape:label="Layer 1"
     inkscape:groupmode="layer"
     id="layer1"
     transform="translate(-629.64232,130.34747)"><path
       style="fill:#3d433c;fill-opacity:1;stroke:none;stroke-width:0.8;stroke-linecap:round;stroke-linejoin:round;paint-order:fill markers stroke"
       d="m 713.2341,249.32322 c 0,0 -28.45678,-117.3842 -37.34953,-126.27694 -8.89274,-8.89274 -46.24226,-55.135 -46.24226,-87.148872 0,-32.013873 32.01388,-96.041618 32.01388,-96.041618 0,0 39.12806,-65.80629 145.84097,-69.36339 106.71291,-3.5571 161.84791,5.33565 161.84791,5.33565 0,0 211.64723,8.89274 222.31853,1.77854 10.6713,-7.11419 48.0208,-7.11419 48.0208,-7.11419 0,0 76.4776,12.44984 85.3704,129.834039 8.8927,117.384201 -55.135,231.211301 -55.135,231.211301 l -14.2284,33.79242 z"
       id="path11888"
       sodipodi:nodetypes="csscscsccccc" /><path
       style="fill:#00ff00;fill-opacity:1;stroke:none;stroke-width:0.8;stroke-linecap:round;stroke-linejoin:round;paint-order:fill markers stroke"
       id="path15326"
       d="m 720.70169,238.0867 c 0.28908,-0.29612 0.79271,-0.48129 0.86724,-0.88835 0.20685,-1.12978 -0.0163,-2.29777 -0.0738,-3.44489 -0.16226,-3.23209 -0.656,-6.44453 -0.75288,-9.67924 -0.0144,-0.4804 0.27473,-1.90241 0.22041,-1.42488 -0.0998,0.8772 -0.23791,1.74961 -0.35686,2.62442 -9.37455,11.75504 -0.85151,4.67619 -20.07753,6.62805 -0.53357,0.0542 -0.29292,1.07956 -0.1652,1.60045 1.01248,4.12924 3.58008,8.18915 5.68283,11.80082 2.8336,2.84911 4.50624,8.11125 8.50081,8.54732 9.05167,0.98814 18.31597,-1.67911 26.91222,-4.6814 3.21015,-1.12117 4.85386,-4.76523 7.19537,-7.23088 5.60887,-5.90622 10.32964,-12.35941 15.31486,-18.77285 0.62195,-0.92199 2.9202,-2.41209 1.86585,-2.76599 -1.25072,-0.41981 -1.89144,2.28864 -3.21047,2.31466 -35.51853,0.70068 -8.40932,1.46605 -19.93066,-5.2192 -0.65721,-0.38134 0.5372,1.43623 0.96037,2.06733 1.57515,2.34911 3.34341,4.56283 5.01512,6.84425 3.53615,1.86613 6.66384,4.94517 10.60847,5.5984 9.4334,1.56216 14.26123,-0.93518 22.12858,-2.71433 1.50876,-0.34119 3.01961,-0.73883 4.56272,-0.84646 0.76454,-0.0533 3.03493,0.33695 2.26924,0.36994 -2.71709,0.11708 -5.43867,-0.0775 -8.15801,-0.1162 1.74472,-0.45568 0.79796,-0.40674 3.40584,0.69759 4.59562,1.94607 8.33533,4.0815 13.49521,4.67354 5.87081,0.67362 18.10842,0.7186 25.42923,0.79314 -1.56527,0.16952 -3.14449,0.23987 -4.69583,0.50856 -0.44064,0.0763 0.90182,-0.0184 1.33965,0.0727 0.21139,0.044 -0.45235,-0.0279 -0.64374,0.0721 -0.31321,0.16359 -0.58344,0.41338 -0.80803,0.68619 -0.44008,0.53456 -0.77995,1.14429 -1.16993,1.71644 -0.45316,0.54188 -0.90632,1.08375 -1.35948,1.62562 -0.39966,0.11416 -0.83073,0.53523 -1.19898,0.34248 -1.1628,-0.6086 0.44832,-3.37273 1.75176,-3.52616 3.74998,-0.4414 7.56067,0.26847 11.29971,0.79461 0.44792,0.063 1.37315,1.16533 0.98447,0.93396 -0.64055,-0.38131 -1.16765,-0.92703 -1.75147,-1.39054 -2.00508,-1.44562 -3.60674,-3.78068 -6.01522,-4.33685 -6.55302,-1.51325 -13.40048,-2.22428 -20.10508,-1.69494 -3.55262,0.28048 -6.62801,2.62544 -9.88886,4.063 -8.04838,3.54816 -15.49818,7.80692 -22.86132,12.58154 -9.34834,4.87435 -3.36103,-0.47631 9.36225,3.52522 3.2568,1.02427 5.62425,8.48414 3.40483,1.13385 -4.07282,-7.21731 -5.37037,-12.09609 -15.44078,-14.56323 -9.01985,-2.20976 -29.12624,2.31683 -39.51081,3.85341 -11.5376,0.67229 -1.73726,-0.0711 0.99728,0.55825 0.62031,0.14276 -1.18996,0.4604 -1.7529,0.75748 -1.19146,0.62878 -0.82614,1.35184 -0.60422,2.47851 -0.14241,0.0267 -0.43687,-0.0645 -0.42724,0.0801 0.0392,0.58778 0.36303,1.12084 0.54454,1.68126 0.16816,3.83581 0.43513,7.66858 0.50447,11.50745 0.0342,1.89279 -0.9212,2.95493 1.75103,-0.52217 2.79439,-3.12628 6.3415,-8.64123 4.81939,-12.99005 -1.97153,-5.63285 -5.67619,-10.65355 -9.7455,-15.01893 -1.49841,-1.60743 -4.15955,-1.41928 -6.23933,-2.12891 -10.02307,0.0775 -10.74374,-0.59049 -17.9792,0.81168 -0.66595,0.12906 -2.59112,0.27862 -1.96329,0.53549 5.25141,2.14859 13.30751,0.38972 16.18165,5.28187 15.80034,26.89415 -12.05319,23.762 9.22881,24.05929 11.95046,-0.20015 23.85868,-1.53118 35.65852,-3.37244 3.39655,-0.53001 7.02014,-0.39303 10.15334,-1.80743 1.25826,-0.56801 -3.26354,0.19153 -4.02949,-0.95702 -0.5218,-0.78245 1.5638,-1.04523 2.3457,-1.56785 -0.62897,-0.85585 -1.32074,-1.66892 -1.88693,-2.56755 -1.02011,-1.61908 -1.89432,-3.32577 -2.8652,-4.97484 -0.041,-0.0696 -0.18623,-0.25417 -0.16711,-0.17565 0.5355,2.19948 0.58043,4.61496 1.72364,6.56882 2.16405,3.69855 4.72555,7.3008 8.00524,10.05871 2.53791,2.13415 5.9993,2.8268 8.99894,4.24021 15.46988,1.59512 33.90418,4.13412 47.55352,-5.48841 7.31311,-6.32467 2.02974,-1.05002 8.74961,-10.51867 0.12906,-0.18186 -0.0963,0.44358 -0.0715,0.66519 0.0196,0.17446 0.24369,0.31671 0.2007,0.48692 -1.0462,4.14279 -0.87211,0.76548 -0.90868,3.31905 -3.47789,3.75655 -1.48384,2.2591 -11.88703,0.92388 -1.0121,-0.1299 -1.73442,-1.47909 -2.74678,-1.35132 -0.57241,0.0722 0.34313,1.10758 0.60513,1.6216 0.65448,1.284 1.35729,2.54645 2.13714,3.75839 1.08192,1.68137 2.29477,3.27479 3.44215,4.91218 5.24416,5.87494 13.21085,13.46494 21.60674,14.06733 6.54228,0.46939 13.17394,-0.31086 19.61703,-1.53903 3.0784,-0.5868 11.85119,-5.98422 14.69547,-7.64477 5.43475,-3.61018 11.37399,-5.79779 17.94608,-5.39167 1.3126,0.0811 4.5602,-0.65492 3.91466,0.49085 -0.68691,1.21919 -2.79875,0.008 -4.19813,0.0123 10.30658,-0.36898 23.11087,1.49255 30.42741,-7.62645 1.84035,-2.29373 3.65156,-4.77246 4.50056,-7.588 0.88991,-2.95124 0.38044,-6.15322 0.57067,-9.22984 -1.36228,-2.70614 -2.36416,-5.62617 -4.08684,-8.11844 -9.12705,-13.20442 -20.12816,23.10086 -20.35318,23.68282 -0.75899,1.96302 3.50486,2.35616 5.39913,3.27334 5.62212,2.72214 7.75249,2.76826 13.88883,4.0619 6.48168,0.63498 8.29183,1.0303 14.7313,0.82544 6.3599,-0.20233 12.86404,0.56512 18.76315,-2.05794 3.5282,-1.56883 8.36956,-6.92131 10.09902,-8.52079 0.0695,-5.70666 0.87601,-11.45207 0.20844,-17.11997 -0.18074,-1.53459 -1.84972,-2.47985 -2.67108,-3.78866 -0.0504,-0.0803 0.0625,-0.30733 0.13718,-0.24903 0.43767,0.3415 0.84977,0.74708 1.12152,1.23115 1.97305,3.51466 0.13299,2.01963 1.64064,3.1257 0.208,0.0402 0.47426,0.27054 0.624,0.12066 0.37249,-0.37283 0.56343,-0.91315 0.681,-1.42689 2.13343,-9.32218 2.76174,-12.34637 -4.78924,-22.22359 -4.09532,-5.35697 -12.66442,-6.80158 -18.56574,-8.42312 -6.7066,-0.38079 -13.40382,-1.00409 -20.1198,-1.14237 -3.41535,-0.0703 -12.50469,0.32305 -16.37142,1.94397 -1.00462,0.42113 -2.57937,1.24581 -2.3182,2.30336 2.68721,10.88137 5.41682,22.00292 10.75466,31.85852 1.35983,2.51074 5.37625,1.92554 8.06438,2.88831 12.89256,2.76176 26.20359,4.08343 39.38996,3.08512 0.27768,-0.021 -0.21765,-0.76511 0.0522,-0.83379 20.16957,-5.13294 0.0743,1.66342 13.57641,-3.12836 -1.06209,-10.00296 -0.18123,-20.14242 -1.3038,-30.13343 -0.095,-0.84548 -1.34101,-1.17824 -2.17803,-1.33075 -7.19818,-1.31153 -16.01742,1.57829 -22.71372,3.55499 -6.5955,2.67556 -13.86828,5.5468 -18.47384,11.33777 -1.20839,1.5194 -3.86317,3.26006 -2.99359,4.99575 14.67761,29.29647 9.80087,27.43264 27.58765,22.8042 9.0772,-2.56421 17.52037,-6.72085 25.1327,-12.24881 0.61274,-0.44497 2.55283,-1.34682 1.79681,-1.39013 -4.75866,-0.2726 -9.5223,0.44989 -14.28345,0.67483 -1.96884,-1.30554 -3.56777,-3.5834 -5.90651,-3.91661 -1.01902,-0.14518 -0.17862,2.09113 0.0823,3.08682 0.67378,2.57113 1.56923,5.09667 2.69339,7.50519 3.26058,6.98576 6.76968,12.18393 12.34747,17.63142 2.71631,2.65286 5.9168,4.75976 8.8752,7.13964 3.21387,1.64348 6.28032,3.61445 9.64162,4.93043 11.4144,4.46883 24.1241,3.88339 35.3143,-1.44347 5.8963,-2.80682 7.2918,-9.88225 9.2039,-15.11454 0.041,-2.13677 0.2711,-4.27823 0.1239,-6.41032 -0.7195,-10.4173 -2.4889,5.50354 -2.0102,5.72644 0.5367,0.24991 1.101,-0.43552 1.6515,-0.65328 3.3027,-1.8772 6.2726,-4.18902 8.5977,-7.20133 0.2895,-0.37507 -0.4411,0.98538 -0.901,1.09934 -4.7306,1.17222 -9.5814,1.79022 -14.3721,2.68533 -1.678,0.84767 -1.308,0.2737 0.6999,2.57656 0.3396,0.38945 1.1137,1.587 1.1213,1.07035 0.017,-1.13288 -0.9406,-2.09645 -1.0897,-3.2196 -0.4345,-3.27318 -0.2099,-6.6013 -0.4069,-9.8973 -4.8581,-3.16352 -8.8028,-0.71062 0.7352,-2.03654 1.142,-0.15876 -2.3102,-0.0219 -3.4557,-0.15351 -2.591,-0.29777 -6.2236,-1.21241 -8.6922,-1.77712 -20.6976,-5.02636 -37.33776,0.46186 -56.30996,7.60201 -7.3757,3.35491 -14.2665,7.53469 -20.14832,13.1058 -0.12703,0.12032 0.18562,-0.35827 0.35881,-0.3831 3.29516,-0.4725 6.61782,-0.72784 9.92673,-1.09176 -0.4929,0.29331 -4.26068,-2.25433 -4.76438,-1.74894 -0.25321,0.25405 0.0515,0.71551 0.0772,1.07327 4.62211,15.38618 4.11383,6.95344 -29.46903,9.83886 -0.58797,0.0505 -0.52505,-1.14995 -1.04497,-1.42915 -0.21659,-0.11631 -3.12425,0.35725 -3.6505,0.40863 6.17826,-6.004 4.81206,-5.91699 20.65751,0.51465 2.45816,0.99776 2.67366,4.69013 4.65207,6.4576 1.48507,1.32673 7.06267,-4.70469 7.74095,-5.35399 7.00083,-5.55647 -0.0572,0.76459 -1.68883,-0.5745 -7.53032,-6.18002 -13.06532,-14.45309 -19.58012,-21.69573 -0.84841,-0.9432 -1.25241,-2.68917 -2.50928,-2.86154 -2.61448,-0.35854 -5.18862,0.96674 -7.78292,1.45011 -12.01552,2.74113 -24.36937,5.54675 -35.30247,11.49092 -4.67265,2.54045 -5.91329,4.03246 -9.90514,7.53927 -5.39242,4.33972 -7.08039,11.5037 -12.40138,15.83006 -3.28709,2.67264 -7.34612,3.5903 -11.37473,4.38251 -8.48597,-3.16388 9.87667,-3.47176 9.68066,2.02544 -3.76876,-18.23055 -4.22692,-14.98669 -27.54725,-18.06037 -1.88921,-0.249 -3.67903,0.99462 -5.5199,1.48685 -6.35821,1.70015 -3.4607,1.08635 -9.3933,2.04394 -9.80668,0.31494 6.0417,-0.19564 6.14039,-0.18309 2.35267,0.2992 5.43253,7.51412 4.63504,1.67843 -1.81824,-8.31626 -5.14655,-16.94689 -14.68487,-19.78412 -9.64997,-2.87044 -20.07654,0.59288 -29.05532,3.79999 9.11612,0.1827 -6.31816,1.28464 -4.69015,1.44102 11.85287,1.13849 13.11088,-2.31884 19.43508,10.46023 5.53218,11.17866 -2.41631,6.14684 1.92362,8.65542 1.99001,0.28571 3.91311,-0.30827 5.89295,-0.4465 0.35999,-0.0251 1.44265,-0.0283 1.08192,-0.0382 -3.54996,-0.097 -7.30978,0.97846 -10.6515,-0.22341 -2.74531,-0.98737 -4.29495,-3.94968 -6.44242,-5.92452 -14.45437,9.80296 3.05221,-15.33359 -2.35446,-18.18325 -0.99956,-0.52683 -9.20616,-0.12775 -9.38593,-0.11956 -9.05877,0.4126 -2.77271,0.49516 -10.89485,0.17322 2.00734,0.10536 4.06663,-0.14972 6.02202,0.3161 0.40701,0.097 -0.83192,0.49597 -0.86101,0.91336 -0.0394,0.56588 0.42894,1.05192 0.6889,1.5561 0.80247,1.5564 2.09986,2.91656 2.49658,4.62212 1.59651,6.8636 0.42761,7.76707 -1.68764,13.66007 -2.19009,3.74853 4.08542,1.85559 3.94647,3.63974 -0.0992,1.27351 -4.71966,0.22911 -3.6998,0.99825 1.63908,1.23612 4.08343,0.45572 6.10463,0.81537 5.20201,0.92564 7.82973,1.86076 12.99723,3.37494 12.99645,3.65695 25.32875,9.59664 38.49361,12.68827 2.86933,0.67383 5.80392,1.03097 8.70588,1.54646 12.64807,1.74412 25.50665,1.24863 37.69308,-2.60447 1.78932,-0.56574 3.60458,-1.08294 5.31708,-1.85044 2.06096,-0.92367 3.97881,-2.13824 5.96822,-3.20735 10.47659,-6.51811 16.27873,-13.93937 19.80572,-25.60717 2.13645,-9.01607 0.57074,-16.57505 -1.58016,-25.28916 -0.28329,-2.96167 -1.75571,-6.48977 -0.91408,-9.49411 0.0383,-0.13666 0.30454,0.10995 0.42442,0.034 0.25115,-0.14831 -0.23796,1.33777 0.16389,1.23415 1.07845,-0.2781 3.86638,-3.27972 5.40539,-3.97983 0.69274,-0.65607 1.36638,-1.33294 2.07823,-1.96823 2.19689,-1.9606 -2.01157,2.59609 -2.27993,2.60135 -3.37449,0.0662 -6.73258,-0.48852 -10.09887,-0.73279 -0.94317,0.97552 -1.4307,-2.14311 -2.12118,-1.59128 -0.3678,0.29394 0.67233,1.23267 1.04724,0.94784 0.43662,-0.33171 0.1045,-1.0966 0.0668,-1.64364 -0.13923,-2.45499 -0.38517,-3.46629 0.053,-5.72619 0.0996,-0.51381 0.70206,-1.01728 0.48478,-1.49343 -0.18206,-0.39896 -0.44732,0.75537 -0.64234,1.14816 -0.16409,0.3305 -0.37359,0.65448 -0.43345,1.01858 -0.4242,2.58011 -0.67527,5.18573 -1.0129,7.77859 1.36956,3.09142 2.05376,6.58913 4.10867,9.27426 1.5299,1.99911 4.18462,2.80034 6.24203,4.25089 0.0987,0.0696 -0.46811,-0.11891 -0.34941,-0.0964 0.35727,0.0679 1.32878,0.45681 1.07275,0.19856 -1.62362,-1.63772 -3.41291,-3.10243 -5.11936,-4.65365 -3.20391,-5.92004 -3.10477,-11.32218 2.08386,-15.76925 -11.85171,6.60064 -10.42928,19.27169 -3.76386,27.71507 2.06282,2.34554 0.9967,0.77445 1.28472,-0.29142 4.62499,-17.11608 1.23046,-12.80073 7.44735,-19.36143 -0.56433,-0.25804 -1.07428,-0.72661 -1.69298,-0.77412 -5.85533,-0.44962 -13.72604,2.40685 -18.73022,5.42006 -0.3316,0.21987 -0.68703,0.40747 -0.99481,0.65961 -0.15121,0.12387 0.32578,-0.25018 0.52017,-0.27077 3.09068,-0.32721 12.07563,0.61453 9.29216,-0.76809 -3.24066,-1.60972 -7.23785,0.0759 -10.8553,-0.008 -2.16645,-0.0505 -4.31323,-0.42649 -6.47296,-0.6044 -6.6494,-0.79279 -13.36856,-0.51142 -20.03866,-0.94869 -1.23824,-0.0812 4.93537,-0.20291 3.72225,0.0582 -1.65079,0.35531 -3.37371,0.15324 -5.06056,0.22986 -2.56162,0.15991 -5.65441,0.26538 -8.22153,0.72907 -0.84131,0.15197 -1.6591,0.41676 -2.47616,0.6684 -0.49116,0.15127 -1.78973,0.15839 -1.44447,0.53907 1.03336,1.1394 2.67189,1.52487 4.00784,2.2873 2.00094,3.09594 4.00188,6.19187 6.00282,9.2878 0.10038,1.01446 0.54804,4.03244 0.30115,3.04338 -0.51444,-2.06101 -0.15798,-4.3757 -1.10797,-6.27568 -2.38374,-4.76752 -7.23639,-10.35675 -13.18266,-10.55822 -3.37247,-0.11426 -6.74748,0.13366 -10.12121,0.20048 -2.13919,0.65018 7.05575,30.90296 9.19494,30.25278 v 0 c -2.57739,0.0253 -5.15946,0.23331 -7.73217,0.076 -0.19653,-0.012 -0.0499,-0.41902 -0.18708,-0.56028 -0.73575,-0.75775 -1.7377,-1.25186 -2.38376,-2.08739 -9.55353,-12.35531 -1.52302,-1.52266 -5.27163,-12.27891 -0.44464,-1.27584 0.16896,2.69691 0.25344,4.04537 2.07423,3.41208 3.58078,7.24207 6.22269,10.23624 1.35507,1.53575 3.59175,1.96952 5.39837,2.93432 3.53677,1.88877 7.55292,2.07756 11.47579,2.37771 13.62792,0.87544 27.49004,0.81529 40.97775,-1.52413 1.17277,-0.24949 2.3544,-0.4605 3.51832,-0.74847 0.80923,-0.20022 3.21597,-0.56186 2.39652,-0.71495 -2.45679,-0.45897 -9.93221,0.31227 -7.49411,-0.23737 3.7983,-0.85627 7.78368,-0.33255 11.65975,-0.70172 0.90332,-0.086 1.75142,-0.48091 2.64091,-0.66031 0.65206,-0.13151 1.31804,-0.1807 1.97707,-0.27105 5.12233,-0.28636 10.15489,-1.7329 15.02579,-3.26051 1.66885,-0.93074 4.09726,-1.1116 5.00655,-2.79223 6.79064,-12.551 8.39848,-17.30316 1.29489,-26.43182 -0.54612,-0.42643 -1.62635,-1.51804 -1.59347,-0.49348 0.0383,1.19496 1.05563,2.37317 0.70615,3.51653 -1.65893,5.42743 -10.97871,13.03061 -6.0834,15.90201 1.31341,-0.72913 2.72865,-1.29926 3.94022,-2.18738 6.71607,-4.92306 9.26337,-12.80556 7.60951,-20.8467 -0.35934,-1.74713 -1.39234,-3.28446 -2.08851,-4.9267 -3.69038,-3.66283 -4.01843,-5.51881 -7.4589,-6.79655 -0.22149,-0.0823 -3.51111,-1.13347 -3.36064,-0.96879 9.39586,10.28277 2.06003,-3.993 8.67342,12.75805 -0.36783,2.23957 -0.82424,4.46639 -1.1035,6.71872 -0.0446,0.35942 0.43116,-0.5877 0.58499,-0.91557 1.89226,-4.03324 2.84512,-7.83406 2.27709,-12.38147 -1.24149,-7.24073 -4.12823,-12.59453 -10.04595,-17.24125 -1.45262,-1.14062 -3.17292,-1.89133 -4.75938,-2.83699 -4.46385,-0.56498 -8.89575,-1.51331 -13.39155,-1.69495 -4.78081,-0.19316 -9.47836,4.47982 -13.41739,6.31245 -5.29868,3.89042 -10.92238,7.29741 -14.18222,13.30632 -0.76864,1.53294 -1.69899,2.99497 -2.30591,4.59883 -3.22108,8.51208 -2.4687,17.39855 -0.20799,26.03073 0.48881,1.59384 1.41256,4.91443 2.22592,6.58336 0.24033,0.49313 0.61609,0.9083 0.94448,1.34773 0.18719,0.25048 0.35842,0.9176 0.60101,0.72029 0.52315,-0.4255 0.29694,-1.46353 0.20875,-2.05095 -2.65896,2.86612 -5.45564,5.74704 -8.79114,7.83168 -1.60608,0.25286 -13.09927,1.13721 -13.47118,0.48884 -0.74685,-1.30206 5.99552,0.0477 4.50198,-0.10221 -1.81113,-0.18173 -3.64045,0.004 -5.46068,0.006 -4.10449,-0.50747 -8.00589,-0.84685 -12.02051,-1.96002 -10.55868,-2.92771 -20.18493,-8.45144 -30.67958,-11.55326 -7.14532,-2.12898 -11.44044,-3.66747 -18.8573,-4.82478 -8.22368,-1.28321 -18.12583,-0.96829 -26.0121,-0.19451 -2.53952,0.24917 -5.05822,0.89199 -7.43641,1.81689 -2.7192,1.05752 -5.1605,2.72376 -7.74075,4.08564 -2.32165,2.92167 -5.57457,5.30191 -6.96495,8.765 -3.97477,9.90022 0.0227,20.07718 7.97484,26.31188 2.1532,1.68817 4.40535,3.53093 7.06271,4.18254 5.69548,1.39658 11.66412,1.22634 17.49617,1.8395 2.91246,-0.20482 5.84651,-0.20548 8.73738,-0.61446 8.00587,-1.13261 16.8505,-3.86405 23.202,-9.10348 2.23678,-1.84514 5.1388,-3.56413 5.9464,-6.349 1.76093,-6.07227 0.92041,-12.61136 1.38062,-18.91704 -2.64357,-2.62823 -4.45407,-6.53968 -7.93071,-7.88471 -9.71654,-3.7591 -23.91367,-0.44248 -31.92398,6.02394 -1.86461,1.50522 -3.38985,3.38802 -5.08477,5.08203 -1.17208,1.97613 -2.89702,3.71582 -3.51624,5.92838 -2.67039,9.54164 -3.39707,18.56736 7.2188,24.84024 7.27959,4.30148 18.53568,1.62338 26.25506,-0.45665 1.41659,-0.51135 2.84681,-0.98642 4.24977,-1.53406 1.01796,-0.39735 4.02375,-0.89245 3.00968,-1.29963 -2.9721,-1.19339 -6.76196,0.31786 -9.51799,-1.31365 -9.01859,-5.3388 -3.45228,-6.30538 -6.81818,-12.04074 -0.28802,-0.49078 -0.24067,1.11239 -0.361,1.66858 -0.17539,9.08093 0.59273,16.14593 6.99314,23.6136 2.4232,2.82727 5.27865,5.74732 8.84254,6.82626 11.71614,3.54697 16.09507,1.89119 25.72261,-0.15698 5.29712,-2.14513 6.9359,-2.42569 11.38574,-5.48657 0.74628,-0.51334 2.81501,-1.43637 2.00254,-1.8368 -6.13496,-3.02362 -13.90606,-2.63397 -19.38384,-6.72958 -4.96821,-3.71463 -0.46908,-14.74347 -3.36146,-6.55292 -0.22532,2.3276 -0.82631,4.64915 -0.67595,6.98279 0.45355,7.03934 2.35549,12.81508 7.09086,18.28802 2.43891,2.81879 5.14965,5.84753 8.67623,7.05467 15.6857,5.36916 18.06227,3.36776 30.98723,0.18248 3.04374,-1.65909 6.30631,-2.9681 9.13122,-4.97729 5.17152,-3.67819 9.46679,-8.71656 12.815,-14.05966 1.17458,-1.87441 2.04663,-3.927 2.91672,-5.96072 0.29686,-0.69389 1.32148,-2.11258 0.57085,-2.19104 -0.93573,-0.0978 -1.29502,1.36511 -1.94253,2.04767 0.46145,0.26402 0.8561,0.73216 1.38436,0.79207 3.8224,0.4335 10.99513,-0.65621 14.07585,-1.28471 11.59636,-2.3658 22.5948,-6.70138 32.61459,-13.02023 1.65889,-1.36229 15.74018,-11.91552 14.68116,-15.33713 -3.00635,-9.71329 -9.75129,-18.29646 -17.26391,-25.14823 -2.12605,-1.93903 -5.75329,0.72443 -8.4673,1.68051 -6.28242,2.21315 -8.51595,5.09739 -13.37756,9.44126 -1.79128,2.42461 -3.86671,4.66309 -5.37385,7.27383 -3.06667,5.31223 -6.26191,13.14479 -5.32658,19.52298 0.7199,4.90913 0.87338,11.08846 4.83288,14.07849 14.88192,11.23816 18.5967,7.41035 29.51089,2.25947 1.71899,-1.53846 3.6747,-2.84772 5.15698,-4.61539 3.0864,-3.68063 5.25442,-8.10866 6.09756,-12.84636 0.38889,-2.18516 2.47533,-6.27799 0.28763,-6.65226 -35.73768,-6.11408 -33.6152,-7.00537 -29.39436,8.12581 0.58678,1.07531 1.07827,2.20839 1.76033,3.22592 4.57432,6.82417 12.50255,10.07469 20.13206,12.1046 4.88447,-0.26953 9.79771,-0.21452 14.65339,-0.80859 1.77318,-0.21694 3.38968,-1.13459 5.11177,-1.60958 1.31887,-0.36378 2.68321,-0.54579 4.00344,-0.9046 6.11246,-1.66125 11.90925,-4.2194 17.78581,-6.54168 6.48385,-3.0629 5.76025,-2.96594 12.41495,-5.17646 1.6838,-0.55931 3.3756,-1.10656 5.1002,-1.52307 1.3305,-0.32131 5.0154,0.28248 4.0485,-0.68634 -1.3373,-1.34004 -3.9454,0.0204 -5.6111,-0.87943 -0.9753,-0.52691 2.2036,-0.24413 3.3054,-0.3662 6.9608,1.58126 1.9089,0.34452 9.5179,2.48272 2.0577,0.57823 4.0592,1.46532 6.1842,1.69474 6.9502,0.75034 17.0821,1.66936 24.5015,-0.54694 2.9811,-0.89048 5.7172,-2.45606 8.5758,-3.68409 2.806,-2.66763 6.4209,-4.68611 8.4182,-8.00289 7.7813,-12.92188 4.4755,-27.55014 -7.5146,-35.97488 -2.6065,-1.83143 -5.5705,-3.09213 -8.3557,-4.63819 -6.5969,0.41988 -13.2658,0.20048 -19.7906,1.25964 -1.5551,0.25245 -2.6037,1.7774 -3.9509,2.59428 -3.3141,2.00955 -6.6074,3.92793 -9.1704,6.9639 -5.2437,5.84259 -5.9312,7.81376 -7.6212,16.40219 -0.171,0.86919 0.1164,1.77345 0.053,2.65705 -0.013,0.18275 -0.1381,-0.33945 -0.2071,-0.50917 0.099,-0.74236 0.1986,-1.48471 0.2979,-2.22706 3.8589,-8.0632 3.6801,-6.3192 14.6679,-7.63385 0.3619,-0.0433 -0.6329,0.46542 -0.997,0.449 -2.4884,-0.11221 -5.3596,-1.52979 -7.5162,-2.37613 -5.3855,-3.06727 -9.932,-6.03301 -13.9641,-10.84765 -3.3101,-3.95241 -5.1078,-7.34252 -7.8464,-11.82703 -2.94094,-3.51319 -6.47002,-6.48886 -9.70501,-9.73329 -6.3511,-0.17765 -12.70505,-0.79352 -19.05329,-0.53295 -1.97904,0.0812 -3.85117,0.94253 -5.73628,1.55045 -8.23129,2.65447 -15.77608,7.07852 -22.29439,12.74127 10.91523,4.79028 3.48499,1.09415 17.75622,26.16035 0.36351,0.63847 -0.81514,1.88073 -0.15286,2.1988 1.10002,0.5283 2.43329,-0.2566 3.62193,-0.53275 4.43786,-1.03102 7.42713,-2.29764 11.75688,-3.88814 5.38191,-1.97301 11.02013,-3.74587 16.22514,-6.16557 1.53238,-0.71237 4.14745,-0.74539 4.46249,-2.40564 4.99427,-26.31924 7.36817,-22.1898 -1.94365,-31.82625 -1.7229,-0.92035 -3.3308,-2.09955 -5.16869,-2.76106 -10.48228,-3.77285 -20.79351,-3.1483 -32.09457,-3.52096 -12.71077,-0.41914 -25.46097,0.38824 -37.73579,3.92544 -15.6937,7.50865 -9.85718,2.1254 0.4105,35.03503 1.11578,3.57624 17.55041,3.38645 19.92755,2.89763 0.66147,-0.13602 -1.06305,-0.83309 -1.59458,-1.24963 2.00577,-0.55652 4.48622,-0.25938 6.0173,-1.66955 1.0089,-0.92923 0.43608,-2.74742 0.2545,-4.10696 -0.53028,-3.97023 -2.00454,-7.79095 -2.37631,-11.77914 -0.0844,-0.90487 2.9137,-9.17626 -1.2663,-0.69 -0.93949,1.90736 -1.55706,3.95705 -2.33559,5.93558 -0.97092,6.23527 -1.88466,8.22702 0.0566,14.90771 0.45486,1.56536 3.62194,7.90292 6.06221,9.04223 0.56876,0.26554 -0.2847,-1.22268 -0.42705,-1.83402 0.39947,-5.23797 0.79893,-10.47594 1.19839,-15.71391 2.14208,-1.90101 4.61099,-3.4878 6.42623,-5.70303 0.93502,-1.14103 -5.94751,-2.9715 -3.94438,-2.00693 1.07164,-1.12446 5.87846,0.20757 4.60898,-0.68756 -3.36397,-2.37197 -9.03189,1.9807 -12.3431,-0.36155 -3.18704,0.0885 -10.46685,-0.6141 -12.93886,2.29987 -7.3052,8.61128 -17.13113,32.48268 -22.60377,22.62925 -1.20648,-2.17226 -1.85492,-4.61048 -2.78238,-6.91572 0.30556,-2.47474 0.11482,-5.06313 0.91668,-7.42421 0.68353,-2.01269 2.28198,-3.58681 3.43028,-5.37553 0.35439,-0.55204 1.00052,-0.99524 1.07776,-1.64669 0.0428,-0.36124 -1.14798,-0.66627 -0.79373,-0.74895 1.93503,-0.45166 4.28561,0.6416 5.94387,-0.45316 1.34814,-0.89002 -3.22557,-0.18445 -4.83836,-0.27668 -8.14155,-0.22469 -15.65394,-0.98682 -23.6333,0.19157 -10.42006,1.53884 -19.91154,5.88709 -28.63817,11.65973 -1.29854,0.822 -2.56692,1.69372 -3.89563,2.46602 -0.73946,0.4298 -3.1266,0.91251 -2.30091,1.13562 3.14229,0.84908 6.60891,-0.0665 9.72605,0.87073 0.65889,0.19811 0.35519,1.45524 0.0342,2.06381 -0.72129,1.36754 -6.20297,-2.10126 -3.97865,-2.38419 -4.39337,-5.01238 -13.57291,-16.76359 -19.64353,-18.61059 -11.22255,-3.41448 -12.21343,-2.33112 -20.31836,0.16558 -4.53827,2.8174 -7.23118,4.70259 -9.9225,9.4983 -0.44429,0.79169 -1.83126,3.10829 -1.22533,2.43227 1.37145,-1.53006 2.27735,-3.42684 3.55745,-5.03411 0.73896,-0.92783 1.65497,-1.69965 2.48245,-2.54948 -5.85505,-1.91523 -12.30766,-1.2467 -18.34972,-0.73866 -2.15262,0.181 -5.08601,-0.97073 -6.44149,0.71128 -1.00562,1.24786 2.99758,1.13493 4.49637,1.7024 -1.45301,5.67933 -0.81739,0.95311 1.79778,9.89816 0.18143,0.6206 0.12644,2.58316 0.0868,1.93779 -0.12106,-1.97252 0.19837,-4.01549 -0.3312,-5.91945 -3.27907,-11.78924 -3.64939,-10.2051 -11.74108,-18.20468 -2.76755,-1.46514 -5.22863,-3.7984 -8.30264,-4.39543 -6.87887,-1.33601 -13.97678,-1.13723 -20.98247,-1.29231 -17.40696,-0.38533 -34.77048,3.73115 -50.3266,11.41368 -10.29828,7.00296 -19.86134,11.18414 -13.16324,31.24251 1.89726,5.68158 11.21479,4.24582 16.96217,5.9333 1.17798,0.34587 2.45333,0.1452 3.68091,0.1277 1.07205,-0.0153 4.24125,0.0622 3.20852,-0.22588 -1.8548,-0.51734 -3.83762,-0.32318 -5.75642,-0.48478 -0.75839,-9.86516 1.60551,17.6427 -6.79229,-16.23467 -0.53201,-2.14621 1.36229,-4.25038 1.5267,-6.45542 0.043,-0.57735 -0.79063,0.8484 -1.14289,1.30786 -1.21551,1.58545 -1.22057,1.80879 -2.11422,3.59437 -0.22415,1.78848 -2.07186,3.12656 -2.16258,4.9695 -0.36609,7.43725 -0.91386,10.53068 1.8777,15.94688 10.72885,15.88725 24.629,15.76287 43.05985,13.66536 9.47038,-2.12683 6.96467,-1.21537 15.57919,-4.41683 1.6241,-0.60358 5.98391,-0.63719 4.82738,-1.92733 -1.79159,-1.99856 -5.63533,-0.0844 -7.90916,-1.51049 -4.57716,-2.87067 -4.95194,-5.80704 -6.07373,-9.88386 1.39932,6.06154 3.33824,15.57591 9.4453,18.76392 8.81227,4.60019 18.83394,5.40175 28.08589,2.83002 2.97177,-0.82605 5.74748,-2.24085 8.62123,-3.36128 6.82053,-3.86676 14.3285,-8.02564 19.78293,-13.8158 0.35149,-0.37312 0.87687,-1.31762 0.39298,-1.48675 -14.86849,-5.1969 -10.85609,1.34508 -14.06932,-4.82685 2.12476,2.40614 6.58584,7.71435 8.93867,8.58641 14.05271,5.20853 25.61838,5.16956 36.34328,-5.54183 2.53904,-2.53584 4.2797,-5.76133 6.41955,-8.642 1.27121,-3.61611 3.16546,-7.07049 3.81363,-10.84833 2.33839,-13.62945 -2.28748,-27.2299 -12.92717,-36.21661 -3.21471,-2.71528 -6.9398,-5.16046 -11.03371,-6.13359 -6.41494,-1.52484 -13.16376,-0.78848 -19.74565,-1.18272 -2.43727,0.27342 -5.26176,-0.52596 -7.31182,0.82027 -1.20835,0.79349 3.38302,0.0306 4.15116,1.25525 0.96071,1.53161 -4.56205,1.68332 -4.6105,1.66844 -3.6098,-1.10879 -6.37905,-4.29316 -10.16998,-4.99123 -12.39847,-1.08256 -13.82851,-2.53939 -23.67019,-0.24737 -1.93747,0.45122 -3.80081,1.18094 -5.67125,1.85831 -1.18017,0.4274 -4.62187,0.94642 -3.47368,1.45351 17.25821,7.62197 0.48693,-7.41355 13.44595,6.04057 0.57083,1.27207 0.69084,2.86741 1.7125,3.81622 0.85116,0.79046 -0.5862,-2.27329 -1.14666,-3.29073 -1.69146,-3.07062 -2.46509,-7.30303 -5.57755,-8.91621 -16.99709,-8.80951 -24.2296,-5.54347 -37.22071,3.53322 -6.99469,7.17309 -12.85984,13.35349 -16.7029,22.87328 -0.58166,1.44088 -2.3725,4.19282 -0.86769,4.58009 29.07483,7.48257 15.42724,-7.46377 26.19929,7.0507 -3.19603,-20.02915 -14.60099,-36.4917 -38.29455,-34.55935 -4.82298,0.39335 -8.10918,5.28248 -12.16377,7.92372 -1.71084,3.21429 -3.94756,6.19983 -5.13253,9.64286 -3.53022,10.25736 -0.33427,22.15091 4.89152,31.20392 1.08349,1.877 2.47034,3.56171 3.7055,5.34257 1.16457,1.9404 28.60598,-14.52898 27.44142,-16.46938 z" /><path
       style="fill:#00a000;fill-opacity:1;stroke:none;stroke-width:0.8;stroke-linecap:round;stroke-linejoin:round;paint-order:fill markers stroke"
       id="path15328"
       d="m 1071.6619,262.76571 c 7.3932,-0.53026 -3.3647,0.43029 5.8062,-1.18814 0.8119,-0.14329 3.2729,-0.21048 2.4734,-0.009 -3.0458,0.76712 -6.1447,1.35701 -9.2646,1.71953 -0.6411,0.0745 -1.679,-1.0211 -0.8546,-0.20772 4.2597,4.83942 10.1929,13.05525 17.0534,13.76568 6.6176,0.68528 13.4612,-0.12987 19.8651,-1.93326 2.994,-0.84314 4.9078,-3.82269 7.3617,-5.73404 0.8055,-0.92671 5.7113,-5.93733 6.2781,-8.27003 0.1035,-0.42604 -0.7772,0.48471 -1.2153,0.50323 -7.3839,0.31215 -14.8171,-0.29576 -22.1663,0.48522 -0.6885,0.0732 0.5919,1.29992 1.1167,1.75166 2.1864,1.88209 4.6229,3.45247 6.9344,5.17871 6.6244,3.11448 13.6576,4.20616 20.9197,3.88069 2.3431,-0.10501 5.9778,-0.075 7.7037,-2.11393 0.1303,-0.13439 0.2072,-0.43879 0.3909,-0.40319 0.9038,0.1751 1.7136,0.67464 2.5823,0.97923 3.1919,1.11915 4.1443,1.4627 7.5147,1.99081 6.2395,0.97769 9.6402,0.46247 17.1156,0.4355 5.1004,-0.16745 10.0085,-1.75856 15.1203,-1.51911 -2.5501,-0.007 -5.1277,-0.39496 -7.6503,-0.0217 -0.8913,0.13188 1.7282,0.51 2.5907,0.77037 0.8976,0.27097 1.799,0.53047 2.6896,0.82364 4.3383,1.42811 6.5441,2.41402 11.2139,3.42802 2.6981,0.58589 5.4444,0.92266 8.1666,1.38398 17.873,1.1257 35.8446,1.44787 50.2149,-10.6376 8.5484,-10.66435 8.7955,-8.71095 -16.9866,-27.83598 -2.1478,-1.59323 -4.5343,3.1609 -5.8518,5.48806 -3.9658,7.00484 -3.5524,11.98207 -0.4888,19.00888 0.8471,1.9429 2.5308,3.40067 3.7962,5.101 1.7253,1.36967 3.3112,2.93612 5.1759,4.10902 9.8061,6.16817 23.3901,5.89456 34.1013,3.30804 6.4673,-1.92145 -6.5111,2.16149 -10.3174,-2.07471 -4.7576,-5.29503 -4.5247,-13.53421 -7.5673,-19.96965 -1.8347,-3.88057 -8.6742,-1.10763 -10.4575,-0.76732 -3.5764,0.68252 -7.1167,1.54226 -10.6751,2.31338 -12.4342,2.77998 -24.8795,5.59754 -37.5246,7.26538 -3.2474,0.42833 -6.5708,0.31014 -9.7782,0.97474 -1.0461,0.21677 4.2194,0.14084 3.181,0.39226 -1.7223,0.41703 -3.5432,0.0829 -5.3149,0.12442 -1.0825,-0.1272 -4.2872,-0.39532 -5.5476,-0.87986 -4.6963,-1.80554 -9.2773,-6.39524 -13.6443,-8.5228 -2.1409,-1.04299 -4.5521,-1.40115 -6.8281,-2.10173 -4.9212,-0.9054 -9.7687,-2.14033 -14.6485,-3.22599 -1.5851,-0.35266 -4.9193,-1.50437 -6.5168,-0.70756 -4.3267,-2.10388 -6.6626,-6.09799 -11.791,-7.06817 -8.2795,-1.56627 -14.7018,-0.76517 -22.5524,0.13891 -5.8474,1.57461 -11.4027,1.52543 -17.3138,1.91929 -8.9781,-0.8091 -16.9465,3.36427 -25.2021,5.98157 -1.0221,-3.56057 -0.2368,0.0356 8.4979,-0.82733 0.644,-0.0636 -1.2528,-0.33234 -1.8593,-0.55812 -0.8042,-0.29945 -1.5861,-0.65698 -2.366,-1.01509 -7.1781,-3.29599 -1.3529,-0.92331 -9.3971,-3.98214 -8.166,-2.22321 -16.4207,-3.14752 -24.8882,-0.93307 -4.7587,1.2445 -7.6429,5.8657 -10.4398,9.31867 -1.2263,1.91935 25.9173,19.26236 27.1436,17.34302 v 0 c -0.9175,1.12317 -3.132,4.22785 -4.7495,4.58395 -9.3149,2.05065 -10.8509,-0.94303 -4.3537,0.6527 2.6955,0.60503 4.741,0.97781 7.37,1.94607 2.4774,0.91239 7.1218,3.30287 9.8175,3.67432 13.6309,1.87822 11.2496,1.8351 20.4841,0.0812 6.7442,-1.53017 13.5228,-2.92478 20.3185,-4.20486 6.6201,-0.57164 13.2977,-0.60477 19.8452,-1.89624 1.079,-0.22888 2.1544,-0.4751 3.237,-0.68664 0.6292,-0.12297 2.5241,-0.18242 1.8972,-0.31667 -2.7208,-0.58262 -5.6268,-0.21567 -8.2811,-1.05035 -0.7731,-0.24311 -5.28,-7.71601 -1.0187,-1.30253 1.2073,1.42778 2.3002,2.96068 3.6218,4.28333 8.2636,8.27001 19.9734,11.70935 31.4265,11.59818 5.1247,-2.28448 1.1939,0.51121 1.4186,-4.39963 0.033,-0.7137 0.8348,1.15988 1.2671,1.72873 4.7095,6.19772 9.6583,11.77625 16.7079,15.49458 3.4109,1.50158 6.5781,3.77491 10.2327,4.50472 7.6445,1.52658 15.497,1.81957 23.2838,2.18838 20.5011,0.97103 40.588,-4.87023 58.7839,-13.90247 8.3287,-5.20166 13.0198,-7.19476 19.4195,-14.43042 2.1802,-2.46504 5.5867,-4.83802 5.6026,-8.12885 0.1223,-25.20218 -3.4174,-24.98592 -22.5508,-25.4227 -0.8177,-0.0437 -3.2712,-0.0942 -2.4532,-0.13116 2.0205,-0.0913 4.0661,-0.32442 6.0674,-0.0322 0.798,0.11654 -1.5731,0.35898 -2.35,0.57505 -1.6013,0.44529 -3.107,0.5111 -3.4539,2.32988 0.013,6.47199 1.5335,8.89848 -2.5304,15.2154 -1.1262,1.75051 -3.1472,5.53961 -4.6812,4.13272 -7.5699,-6.94258 -12.536,-16.30882 -18.0465,-24.97696 -0.3941,-0.61987 0.59,-1.34535 0.8851,-2.01802 -5.4378,-0.88336 -11.1115,0.12319 -16.5591,0.51536 -2.2031,0.15859 -4.4957,-0.20683 -6.6127,0.42312 -0.946,0.28148 1.9199,0.45841 2.8799,0.68762 -5.8826,0.70798 -5.2455,0.84773 -11.056,0.71785 -7.2448,-0.16196 -2.0731,-0.17262 -9.3725,-1.13598 -5.2879,-0.6979 -10.768,0.57633 -15.9774,-0.87549 -5.3182,0.28226 -10.5647,-0.45363 -15.8772,-0.60789 7.5753,0.10512 5.4962,-0.153 1.3602,0.52071 -0.8941,0.14563 -1.801,0.27097 -2.6589,0.56157 -0.091,0.0307 -1.8059,1.12607 -1.8647,1.10892 -0.7937,-0.23146 -1.4618,-0.77288 -2.1927,-1.15933 -7.4055,-3.7936 -15.9547,-5.24039 -23.9854,-2.42948 -1.8697,4.29283 0.2301,1.66424 -3.4354,1.43096 -17.0714,-1.08649 -22.5984,-4.96828 -31.7742,5.93047 9.6611,-1.14605 12.5233,-2.55629 16.9127,3.947 0.1441,0.2136 -0.5665,-0.0707 -0.7222,-0.2761 -1.0247,-1.35166 -1.8258,-2.85918 -2.7387,-4.28877 -1.5971,-2.05401 -3.1942,-4.10803 -4.7913,-6.16205 -4.6544,-3.85732 -9.8493,-9.25838 -16.4314,-9.86188 -12.9686,-1.18905 -23.5838,1.87711 -31.9405,11.2709 -1.571,1.67729 22.1496,23.89463 23.7206,22.21734 z" /><path
       style="fill:#00a700;fill-opacity:1;stroke:none;stroke-width:0.8;stroke-linecap:round;stroke-linejoin:round;paint-order:fill markers stroke"
       id="path15379"
       d="m 844.94047,225.16841 c -10.86561,-4.08076 -22.6116,-5.33239 -34.1595,-5.44697 -12.21641,-0.12122 -26.42121,-0.96273 -38.55046,3.09949 -3.78093,1.26627 -7.1769,3.47669 -10.76535,5.21504 -8.05998,8.1353 -12.08507,9.85402 -14.28657,22.13164 -1.70183,9.49104 1.65484,20.66006 8.47333,27.48896 1.45795,1.46016 3.34587,2.41576 5.01881,3.62365 9.34389,-3.33677 20.06398,-4.09775 28.03166,-10.0103 2.89633,-2.14927 0.3945,-7.23084 0.0389,-10.81993 -0.68338,-6.89721 -4.57847,-15.24866 -8.65018,-20.7482 -1.49995,-2.02593 -3.36508,-3.7541 -5.04763,-5.63115 -2.21871,-1.69101 -4.22733,-3.70078 -6.65615,-5.07304 -9.55629,-5.39924 -22.01562,-5.92955 -31.37162,0.2966 -5.01894,3.33996 -5.43348,4.85496 -8.63008,9.54764 -4.43449,8.65099 -4.90344,18.02618 0.69558,26.49904 4.36663,6.60792 8.49115,7.93586 15.10446,11.75626 3.30082,1.0924 6.52085,2.46879 9.90246,3.27719 3.42454,0.81867 6.92981,1.35585 10.44328,1.58665 19.23593,1.2636 28.61863,0.66021 45.91575,-5.45749 -8.84137,0.55416 9.40029,-2.33098 6.94383,-2.67414 -3.1709,-0.44297 -6.47384,0.45414 -9.60241,-0.22621 -2.4733,-0.53786 -4.94115,-3.95696 -6.35818,-5.63392 1.79704,6.03931 7.68748,15.0004 14.32506,15.95653 4.51825,0.65085 9.12487,-0.29932 13.6873,-0.44899 1.11574,0.58875 2.40233,0.68926 3.63533,0.82147 0.58342,0.0625 2.34011,0.16444 1.75342,0.15551 -8.1883,-0.12463 -8.57065,-0.0189 -5.25225,-0.3753 9.59693,-2.20069 22.78146,-9.88584 22.71993,-20.50187 0.32648,-2.14575 0.12989,-0.90243 0.60631,-3.72732 -0.19103,-2.39664 -34.08472,0.30492 -33.89369,2.70157 v 0 c 1.26644,5.11857 0.60417,2.75879 1.92915,7.09524 0.21907,0.50433 0.2065,1.82796 0.65721,1.513 23.60129,-16.49289 28.6034,-14.17803 17.25952,-17.81028 -7.52279,-1.23911 -15.52593,-1.17634 -22.79026,1.2874 3.68706,0.044 7.44983,-0.6126 11.06117,0.13209 1.73622,0.35802 3.07705,1.82255 4.35845,3.04756 2.47387,2.365 2.99536,5.72797 1.32757,0.73782 -2.28005,-6.08998 -6.11346,-13.91164 -13.13581,-15.84799 -7.53962,-2.07899 -16.49681,-0.71697 -24.33411,-0.5087 -4.22401,0.0781 -8.44652,0.24777 -12.67114,0.2785 -2.53891,0.0185 -5.08438,-0.25116 -7.61663,-0.0665 -0.57732,0.0421 2.23508,0.41352 1.66282,0.50067 -4.77482,0.72722 -9.70603,0.0145 -14.43338,1.27572 -1.18541,0.40073 -2.55366,0.45344 -3.55624,1.20219 -1.71725,1.28248 -0.78672,5.12793 -0.86263,6.34652 -0.0989,1.58742 -0.74173,2.96903 -1.00892,4.49783 -0.0653,0.3924 -0.30138,0.75641 -0.3033,1.15419 -3.8e-4,0.0781 0.26274,0.14617 0.18471,0.14394 -7.38664,-0.21124 -9.30967,2.30197 -11.83037,-2.69587 -0.099,-0.19621 0.0743,-0.43318 0.11147,-0.64976 1.91122,2.66214 1.93608,2.58415 3.87494,5.96478 1.02759,1.79174 1.84865,3.70425 2.97502,5.4356 0.85416,1.31291 1.39376,3.43826 2.94395,3.6624 1.25968,0.18213 1.67661,-1.91542 2.51491,-2.87313 9.18371,-2.47749 18.36742,-4.95498 27.55113,-7.43246 0.46359,0.22262 1.1752,1.13478 1.39075,0.66787 0.22716,-0.49207 -2.32402,-2.96404 -2.53473,-2.90173 -0.89982,0.26606 -1.08703,1.52983 -1.62166,2.30096 -0.78899,1.13802 -1.83303,2.14136 -2.34913,3.42637 -0.18967,0.47225 0.25267,0.98596 0.379,1.47894 7.1136,0.52824 8.93708,0.72881 17.11452,0.93168 12.75091,0.31633 26.71561,-1.92951 38.93011,-5.59603 2.40991,0.61876 11.16049,-33.46249 8.75058,-34.08124 z" /><path
       style="fill:#00a700;fill-opacity:1;stroke:none;stroke-width:0.8;stroke-linecap:round;stroke-linejoin:round;paint-order:fill markers stroke"
       id="path15430"
       d="m 877.03386,223.52773 c -8.37641,-5.03387 -16.82559,-10.84229 -26.42597,-13.21889 -0.43808,0.19637 -1.36586,0.1118 -1.31423,0.58909 0.36799,3.40195 4.56999,7.27646 2.45611,9.96723 -5.24531,6.67679 -14.10606,9.45831 -21.28219,13.99659 -0.50696,0.32061 -3.56144,-1.84602 0.90159,0.90818 10.5252,5.4993 8.71773,6.27603 25.66849,-0.42633 2.02104,-0.79912 6.11907,-7.61658 7.4995,-9.87288 1.73372,-2.83376 0.70219,-2.05997 1.81104,-2.83494 -8.38893,8.3207 -3.08322,5.09127 -23.6172,2.0629 -0.71657,-0.10568 -1.05165,-1.3058 -1.77416,-1.25464 -0.45989,0.0326 -0.0936,0.92549 -0.0343,1.38271 0.26919,2.07529 0.92345,3.15359 1.76964,5.17392 9.94824,13.61523 5.63315,12.72054 31.90467,4.8094 2.30139,-0.69302 2.97307,-3.78101 4.34133,-5.757 2.72845,-3.94031 4.87681,-8.10139 6.69859,-12.51136 2.49331,-6.47339 7.19777,-11.51008 13.78034,-13.96883 1.27736,-0.47712 2.65185,-0.63631 3.97777,-0.95447 4.76242,3.03043 4.21478,2.14839 -8.90996,1.69998 -0.8744,-0.0299 -1.61616,-1.06838 -2.47143,-0.88397 -0.721,0.15547 -0.3287,5.7661 -1.7471,2.09153 1.7613,-2.48647 2.36192,-6.5952 5.28388,-7.45941 6.14032,-1.81609 12.88987,1.25266 19.20856,0.21542 1.32515,-0.21753 1.36563,-2.35026 1.70748,-3.6489 7.18128,-27.28046 -5.42248,13.61192 3.35465,-17.15607 0.76434,-2.67937 1.90533,-5.23667 2.858,-7.855 0.85967,-1.65691 1.47768,-3.4636 2.57901,-4.97073 0.22493,-0.30781 0.75856,-0.0771 1.13785,-0.11567 -4.40203,1.30853 -8.64223,3.41438 -13.20608,3.92559 -4.14575,0.46437 -6.04762,-5.87966 -5.26136,1.99724 0.69191,4.98724 4.74492,16.66123 8.82485,18.34759 7.40387,3.06026 15.89591,2.81284 23.90189,2.51829 2.60854,-0.096 4.60626,-2.45745 6.92693,-3.65251 1.30141,-0.67018 2.6256,-1.29517 3.9384,-1.94275 -1.59989,6.22554 -0.36608,2.88371 -16.56521,-0.18856 -1.5595,-0.29577 -2.41796,-2.74373 -3.99755,-2.58752 -1.08185,0.10698 -0.81649,2.02568 -1.05241,3.08689 -0.40323,1.81381 -0.634,3.66329 -0.8583,5.5078 -0.21876,1.79895 -0.3134,3.61083 -0.4701,5.41625 0.69198,9.82002 3.32028,21.72385 14.12013,26.02186 11.10084,4.4178 21.29704,0.51956 32.06477,-0.55148 1.00432,0.15703 4.02889,0.43625 3.01296,0.4711 -2.66056,0.0913 -5.32081,-0.19222 -7.98073,-0.30069 -0.12505,-0.005 0.27168,-0.0796 0.37533,-0.009 0.50753,0.34338 0.94361,0.78329 1.38957,1.20353 10.21687,9.6277 -6.26687,-5.49385 8.87372,8.28927 5.48463,3.81008 11.48302,6.69269 18.21247,7.32016 1.19608,0.11153 3.6767,0.98253 3.5973,-0.21611 -1.7804,-26.87886 1.8535,-23.19537 -9.87074,-30.26837 -3.21748,-0.13045 -6.43345,-0.30594 -9.65244,-0.39136 -3.83107,-0.10165 -7.66702,-0.008 -11.49601,-0.16981 -9.78585,-0.41429 -10.88658,-1.75942 -20.52242,-0.48529 -0.002,0.6345 -0.004,1.269 -0.006,1.90351 0.82624,2.56211 2.36536,4.99668 2.47871,7.68634 0.16265,3.85925 -1.14801,9.0134 -4.11517,11.94581 -0.62879,0.62142 -1.45089,1.34155 -2.33154,1.26404 -4.37891,-0.3854 -8.61817,-1.738 -12.92726,-2.607 5.26974,-8.93598 10.53949,-17.87196 15.80923,-26.80794 0.0217,-0.34267 0.18563,-0.70651 0.0651,-1.02802 -0.52708,-1.40594 -3.77815,-6.55561 -4.16139,-7.18809 -4.4323,-7.31484 -1.22814,-2.12055 -5.86808,-9.56688 -6.4701,-8.81801 -14.40938,-17.54067 -27.68993,-16.34027 -9.04687,0.81773 -9.7172,9.29706 -10.76977,15.14929 1.97927,4.35104 1.61279,11.01762 5.9378,13.05312 11.22583,5.28326 18.9162,2.29964 26.93498,-2.84793 2.55333,-1.63908 6.19,-4.30018 8.1616,-6.70965 0.70022,-0.85573 1.04986,-1.94631 1.57479,-2.91946 -0.78965,-7.1269 3.1304,-16.77926 -2.36897,-21.38068 -12.13951,-10.15735 -39.26774,4.0036 -50.74435,10.80835 6.54713,-3.02364 -5.86881,2.90008 -4.15473,3.07524 4.01582,0.41037 9.16238,-2.59707 12.10912,0.16191 9.31887,8.72509 12.79209,17.10213 6.43168,25.52682 -0.98373,1.30299 -2.52348,2.07223 -3.78521,3.10835 -4.76342,-0.72801 -9.47526,-1.9942 -14.29025,-2.18401 -0.54651,-0.0216 -0.50574,1.09055 -0.32779,1.60773 0.80698,2.34525 1.93314,4.58434 3.19342,6.72048 1.93362,3.27741 3.97282,6.51721 6.36335,9.47789 8.10512,10.03825 11.18972,11.498 21.4723,19.61585 10.98296,7.00546 22.82633,12.26557 35.66944,14.63527 4.48427,0.8274 9.14397,1.27747 13.5271,-0.12085 -0.72263,-0.72693 -1.82473,-1.21495 -2.16789,-2.1808 -0.28449,-0.80075 1.29294,1.10446 1.96859,1.61986 1.02803,0.78419 2.02418,1.62421 3.14017,2.27718 5.41989,3.17123 11.32625,4.86301 17.31949,6.54039 6.25404,2.19281 12.93627,1.72442 19.35957,2.70349 2.2654,0.34529 3.2043,0.87224 5.4346,1.73613 8.5464,3.95858 18.8524,4.53013 27.317,-0.17068 1.5144,-0.84102 3.5922,-2.53078 5.056,-3.67975 -3.7915,1.66663 2.3372,2.47102 1.354,2.76039 -2.4788,0.72958 -5.1194,0.78831 -7.7018,0.8805 -1.4787,0.0528 -2.6468,-1.58179 -4.1253,-1.63873 -0.7301,-0.0281 -1.3319,0.60139 -1.9979,0.90208 -4.493,4.56724 -7.9321,10.02547 -11.8612,15.05893 -1.2583,1.61188 -2.5768,3.17584 -3.8806,4.75114 -0.552,0.66707 -1.8527,1.12582 -1.6866,1.97563 0.1326,0.67866 1.279,-0.52625 1.9185,-0.78938 6.2519,1.13463 13.3584,0.0509 18.7558,3.40389 3.4062,2.11596 3.2256,7.34795 4.6098,11.11134 0.5349,1.45451 0.8409,4.97566 -1.3267,5.69742 -15.4722,5.15196 -12.9028,4.74732 -22.0914,-1.93045 -1.9748,-2.22589 -1.6838,-3.04848 -4.3323,-3.04189 -0.8206,0.002 -1.6221,0.39919 -2.4397,0.3292 -0.7017,-0.0601 -1.5965,-0.12466 -1.9904,-0.70842 -0.5497,-0.81463 -1.3519,-2.51509 -0.4534,-2.91316 2.8138,-1.24657 6.1221,-0.63623 9.1832,-0.95434 -7.4286,-6.69548 -13.2298,-15.53789 -22.0663,-20.62739 -3.01049,-1.73392 -6.37122,-2.77229 -9.55682,-4.15844 -17.95835,-0.77859 -20.26006,-0.55117 -33.9527,6.87604 -2.88824,1.56665 -6.31653,3.18006 -8.54184,5.71921 7.59095,-2.49103 2.3732,-1.2745 18.49336,3.5813 0.40157,0.12096 1.2636,1.08756 1.00418,0.75804 -4.25691,-5.40721 -8.16871,-8.45931 -13.61543,-12.49344 -5.39634,-3.35435 -11.0926,-6.35548 -17.08034,-8.52578 -3.15005,-1.14176 -6.5107,-1.68264 -9.72555,-2.61361 -27.71623,-2.22525 -6.79577,-3.56263 -22.325,2.49051 -0.53357,0.20798 -1.04945,-0.48303 -1.6103,-0.59875 -0.95158,-0.19634 -1.92647,-0.26746 -2.89601,-0.33105 -5.51253,-0.17701 -2.81234,-0.0401 -8.10114,-0.39915 1.98491,-0.13646 3.9684,-0.29569 5.95475,-0.40937 0.72802,-0.0417 -1.45749,0.0882 -2.17908,0.19329 -2.91284,0.42434 -2.56941,-0.46515 -5.06841,-3.20523 -11.10738,-10.44393 -21.42376,-12.23351 -36.73395,-9.49354 -1.18959,0.29913 -2.40941,0.49676 -3.56876,0.8974 -3.55454,1.22834 -5.40514,2.35093 -8.52047,4.5495 -0.9839,0.69437 -1.87622,1.51021 -2.80823,2.27281 -0.51266,0.41946 -0.91186,1.02428 -1.52567,1.27327 -0.22252,0.0903 0.0883,-0.47207 0.1324,-0.7081 2.09671,-3.92084 -3.18088,-1.62559 7.78779,-2.02525 0.53613,-0.0195 -1.07308,-0.0246 -1.60824,-0.0622 -1.3157,-0.0925 -2.8929,-0.2989 -4.192,-0.45443 -0.63682,0.26082 -0.32105,0.24211 -0.94356,0.10102 -1.9159,-1.3229 -20.62455,25.77196 -18.70865,27.09486 v 0 c 4.92587,2.32913 2.49529,1.28545 7.27913,3.16018 9.5593,1.98382 19.80186,3.7698 28.82139,-1.09214 0.90067,-0.562 4.63593,-3.51743 6.39264,-3.52163 0.12016,-2.9e-4 0.0833,0.26837 0.19911,0.3005 0.77071,0.21387 3.15799,-0.13769 3.47203,-0.16809 5.6436,-0.31266 -2.10952,0.18043 -5.30624,-0.41392 -0.35473,-0.066 0.38155,-0.61556 0.52466,-0.94678 0.11392,-0.26367 -0.003,-0.67715 0.24176,-0.82709 0.40902,-0.25032 1.10064,0.49463 1.42642,-0.18689 3.80634,4.19164 5.66511,7.86354 10.38587,11.48489 10.15275,7.7883 17.30885,7.50322 30.53469,6.93081 7.59936,-1.39719 12.60428,-2.41422 19.06743,-6.96699 1.34371,-0.94653 3.90588,-1.60839 3.71607,-3.24102 -0.16638,-1.43102 -2.42857,1.89575 -3.86891,1.92646 -4.74775,0.10124 -9.44187,-1.02798 -14.16281,-1.54197 -1.17882,0.74158 -0.78146,0.28879 1.32571,2.41643 1.14922,1.16039 2.32023,2.31315 3.62188,3.2995 5.39076,4.08496 11.58795,6.96787 17.9657,9.11887 1.85196,0.50789 3.68477,1.09166 5.55589,1.52367 1.10444,0.255 2.43183,1.18761 3.35823,0.53446 0.72891,-0.51392 -1.23807,-2.77631 -0.35493,-2.65194 1.33287,0.18771 1.47801,2.46504 2.71956,2.98495 15.49734,6.48969 12.20212,6.3236 22.11979,4.34838 4.91785,-0.89591 8.99549,-2.40921 13.5138,-4.55928 1.33548,-0.6355 2.65629,-1.30204 3.99996,-1.92002 0.73958,-0.34015 3.02623,-0.71405 2.24825,-0.95367 -3.12482,-0.96248 -6.47746,-0.89769 -9.71619,-1.34654 -0.16719,-0.68664 -0.93699,-1.5033 -0.50156,-2.05992 0.82146,-1.0501 3.16006,3.0096 4.64206,5.10509 6.61749,9.35688 12.48287,16.73939 22.81538,22.53307 7.5518,1.30984 14.9909,3.94358 22.6554,3.92951 4.4403,-0.008 8.7561,-1.96966 12.7078,-3.99441 10.1164,-5.18334 17.7727,-16.67765 17.8006,-28.19644 0.01,-4.09395 -1.5808,-8.03387 -2.3712,-12.0508 -3.2188,-3.45972 -5.1275,-9.03019 -9.6563,-10.37917 -6.6083,-1.96834 -13.9891,-0.4602 -20.6411,1.35472 -2.8555,0.77909 -4.798,3.62825 -6.4994,6.05023 -4.2155,6.00084 -5.9325,18.35277 0.3033,23.80045 5.5662,4.86272 14.2758,3.8364 21.4136,5.7546 2.7694,-0.85549 5.6759,-1.35315 8.3082,-2.56646 13.9215,-6.41668 24.8101,-22.00248 28.4428,-36.61241 1.1796,-4.74406 1.1089,-9.71394 1.6634,-14.57091 -1.0441,-4.5618 -1.1702,-9.43679 -3.1321,-13.6854 -2.9355,-6.35668 -9.9275,-14.51568 -17.5148,-16.04226 -5.2189,-1.05005 -10.6634,-0.46093 -15.9704,-0.0425 -1.8036,0.14221 -3.5145,0.93839 -5.1519,1.70792 -1.9145,0.89974 -3.626,2.17966 -5.439,3.2695 -1.2079,0.37901 -0.7787,0.53857 -1.5132,0.10168 -3.4961,-2.07962 10.811,-3.21991 9.2491,1.05085 -3.239,-1.95068 -6.0531,-4.41171 -9.3708,-6.28103 -5.8474,-3.29467 -12.1641,-5.23321 -18.8185,-6.06962 -5.46629,-0.75106 -8.06454,-1.45111 -13.42953,-1.00064 -0.21628,0.0182 -3.99378,0.67779 -4.655,1.55469 -0.17062,0.22626 0.45933,0.97873 0.22462,0.81994 -1.10169,-0.74535 -1.97542,-1.7818 -2.96313,-2.67269 -1.82151,-3.02605 -4.17251,-4.7067 -7.24023,-6.58925 -8.32631,-5.10954 -17.35511,-8.92666 -26.14508,-13.13135 -8.98012,-4.74732 -17.51232,-9.53759 -25.38725,-16.0186 -2.05519,-1.69141 -3.99869,-3.51558 -5.93879,-5.33784 -2.14786,-2.01739 -3.65425,-4.92807 -6.32246,-6.17862 -5.90074,-2.76559 -12.49361,-3.71197 -18.74041,-5.56795 -2.52494,1.08505 -5.42561,1.5424 -7.57482,3.25516 -9.83799,7.84011 -8.11358,18.22681 2.83129,28.72729 1.15395,1.10709 14.82682,0.79069 19.35949,-0.11608 2.12183,-0.42447 4.17937,-1.12349 6.26906,-1.68524 8.15964,-3.23242 14.47313,-6.13483 21.15047,-12.09027 1.30675,-1.16548 5.01339,-3.07995 3.48354,-3.93173 -26.0392,-14.49792 -17.46461,10.9327 -20.24307,-25.28178 -3.61878,1.61249 -5.92258,3.54439 -8.25064,6.83874 -0.30772,0.43545 -1.10953,1.39174 -0.58522,1.48872 24.04603,4.44775 15.68158,-5.48263 23.79583,14.40647 -1.1851,4.85226 -2.25825,11.31177 -9.94425,11.5616 -6.96683,0.22646 -12.80901,-5.51539 -19.33181,-7.97325 -0.26555,-0.10006 -0.72775,0.12401 -0.74768,0.40709 -0.093,1.32002 0.15792,2.65265 0.44117,3.94527 0.46919,2.14119 1.20582,4.2149 1.80873,6.32234 1.17698,2.43571 2.18172,4.96244 3.53092,7.30713 4.53717,7.88482 10.36591,14.43193 18.14894,19.23 1.8895,1.16483 4.33875,4.42482 5.97978,2.93014 7.83867,-7.13963 12.59725,-17.0583 18.89588,-25.58745 -4.55423,-0.97816 -9.01895,-2.56903 -13.66269,-2.9345 -1.9373,-0.15246 -3.92755,0.52549 -5.65577,1.41412 -12.2133,6.27993 -14.04244,17.25482 -9.15214,29.39071 1.18398,2.93821 3.70336,5.14049 5.55504,7.71073 2.74121,2.08338 5.20415,4.59562 8.22363,6.25013 11.52915,6.31736 22.27014,6.09023 35.81397,6.34711 12.74783,0.24179 25.05424,-3.06426 36.26181,-8.93869 2.2335,-1.8127 6.4801,-2.57003 6.7006,-5.43812 0.7293,-9.4886 -2.8631,-18.81782 -4.1111,-28.25222 -0.021,-0.15559 0.4209,-0.20906 0.3293,-0.33647 -0.016,-0.0225 -4.8243,-0.71056 -5.2248,-1.5251 -0.9854,-0.43198 -2.1053,-0.63749 -2.9562,-1.29593 -1.3673,-1.05798 -2.3644,-2.52328 -3.57483,-3.75766 -1.90009,-1.93772 -3.64075,-4.05775 -5.75604,-5.75794 -2.49468,-2.00514 -4.95346,-4.33679 -8.00489,-5.30262 -12.37414,-3.91662 -15.44225,-3.03907 -25.88501,-2.22609 -2.27869,0.5618 -4.57966,1.03989 -6.83606,1.6854 -1.31488,0.37615 -5.02668,0.65385 -3.86526,1.376 3.03734,1.88855 7.51645,0.55054 10.38955,2.68066 2.63658,1.95477 3.38845,5.63319 4.81263,8.59028 0.42822,0.88915 -0.17497,3.31336 0.70899,2.87453 1.20434,-0.59787 0.82369,-2.5599 1.23554,-3.83986 0.49564,-2.77256 1.27051,-5.5095 1.48691,-8.31769 0.43171,-5.60215 -0.0825,-15.03136 -2.23921,-20.22358 -1.84971,-4.45312 -3.25808,-9.95671 -7.39606,-12.43236 -15.42598,-9.22898 -18.50793,-6.48778 -30.11865,-2.34022 -13.27084,8.96883 -0.55156,1.79265 12.84028,9.24143 2.42825,1.35063 1.69,5.48327 3.56248,7.53617 2.44631,2.68203 -1.61773,-24.60775 0.71301,-10.86697 -0.79335,-3.41058 -1.03656,-6.9981 -2.38006,-10.23175 -3.05616,-7.35578 -10.77164,-19.19951 -19.61344,-20.61649 -14.68982,-2.35418 -26.06484,2.19388 -35.39439,12.21367 -3.31243,3.5575 -5.49061,8.02279 -8.23592,12.03418 -1.70966,5.20649 -4.11361,10.23436 -5.12899,15.61948 -2.04275,10.83389 -1.43661,22.63033 2.48088,33.01607 1.87638,4.97452 3.40635,10.99295 7.87833,13.86839 7.93736,5.10363 17.55469,8.80977 26.98768,8.55007 5.28314,-0.14545 8.39238,-6.42642 12.58857,-9.63963 1.49109,-3.80969 3.79497,-7.3946 4.47327,-11.42907 0.68723,-4.08755 0.41242,-8.37463 -0.46257,-12.42614 -1.62931,-7.54422 -7.83387,-19.55468 -15.33936,-22.85734 -16.27071,-7.15965 -20.32121,-4.10254 -33.61184,-0.006 -2.92534,1.94744 -6.08125,3.58659 -8.77604,5.84231 -4.76248,3.98654 -7.53717,8.15973 -10.62856,13.36115 -1.61838,2.723 -2.7584,5.71392 -4.40118,8.42226 -0.68249,1.12516 -1.51041,2.1554 -2.26562,3.23311 -0.61127,0.89673 -9.26549,14.09578 -5.85467,14.22814 26.75821,1.03832 18.80625,-7.24834 27.57108,6.7481 -0.0712,-2.93192 0.0434,-3.48558 -1.06297,-7.03329 -0.79152,-2.53805 -4.32927,-11.12515 -6.72245,-12.09704 -20.52115,-8.33379 -17.97544,-7.5832 -29.25384,0.74164 -1.04468,1.34236 -2.18389,2.61623 -3.13405,4.02709 -0.65387,0.9709 -1.17461,2.02925 -1.66155,3.09372 -0.21898,0.47871 -0.97298,1.51128 -0.44658,1.51481 0.81458,0.005 1.12397,-1.35937 1.92546,-1.50489 16.393,-2.97648 12.33365,-4.94082 19.59359,0.92268 -1.42895,-1.24392 -8.26981,-6.89818 -10.01278,-6.17528 -23.98303,9.94708 -28.76218,9.28609 -19.34766,28.24925 1.37736,1.55364 2.60651,3.25252 4.13207,4.66091 7.09983,6.55452 18.01119,11.29161 27.48388,12.9229 1.62487,0.27982 3.29484,0.13432 4.94226,0.20148 2.05239,1.08183 17.3518,-27.94329 15.29941,-29.02512 z" /><path
       style="fill:#00a700;fill-opacity:1;stroke:none;stroke-width:0.8;stroke-linecap:round;stroke-linejoin:round;paint-order:fill markers stroke"
       id="path15432"
       d="m 836.50884,283.99502 c 14.2866,2.11521 26.90549,-5.22776 36.79801,-14.85595 9.46343,-9.36587 6.8458,-12.16096 -23.23467,-16.30939 -2.8854,-0.39793 -0.0176,5.89785 0.75914,8.70508 0.58355,2.10909 2.15377,3.81004 3.23065,5.71506 6.04407,1.99746 11.77211,6.25676 18.1322,5.99239 4.25641,-0.17693 7.33706,-4.41009 10.56906,-7.18543 7.0621,-6.06428 9.89409,-16.79909 11.79481,-25.4188 0.18378,-2.30385 0.85758,-7.2668 0.0592,-9.7032 -0.20868,-0.63679 0.13665,1.66969 -0.46986,1.95466 -8.08313,3.79786 -17.24818,5.30711 -24.87512,9.95368 -1.30482,0.79494 2.12039,2.20672 3.27797,3.20396 1.5454,1.33134 3.21266,2.5143 4.81899,3.77146 2.3915,1.22125 4.5084,3.34329 7.17448,3.66374 6.97934,0.8389 14.27816,1.48078 21.08705,-0.2668 14.26958,-3.66246 27.44745,-29.52061 33.72442,-41.66011 7.34973,-18.26358 11.80851,-22.34479 -28.22928,-15.26167 -3.18331,0.56316 -2.79802,5.83238 -4.35629,8.66476 -4.0073,7.28383 -10.08458,16.9029 -14.39226,23.87436 -3.97153,4.28702 -11.4328,17.58155 -18.83641,18.13149 -0.62088,0.0461 -1.59887,-1.54404 -0.97806,-1.59122 10.55818,-0.80247 9.0155,-1.03312 14.00969,3.79308 4.70544,1.42902 -7.23934,10.46069 -7.48856,10.4487 -7.48725,-0.36026 -13.47288,-6.62731 -20.48414,-9.2789 -0.4501,-0.17022 -0.44727,0.85219 -0.67091,1.27828 0.5119,2.11788 -7.97556,9.0702 -5.16427,3.34866 3.0714,-0.0752 6.17189,-0.65396 9.21419,-0.22555 4.88304,0.68762 5.89129,7.64179 5.18318,11.10225 -0.48293,2.36003 -1.82381,4.45933 -2.73571,6.689 1.06025,0.83014 1.89002,2.10666 3.18076,2.49042 3.08711,0.91785 6.39672,0.77428 9.5739,1.30174 9.56053,1.5872 19.45733,1.15733 29.17471,0.92969 1.14216,-0.16586 2.30736,-0.21547 3.42649,-0.49758 3.01481,-0.75997 -2.422,-1.66676 -0.37996,-1.69176 10.09773,-0.12362 11.94424,1.05239 19.20656,1.62909 13.49939,0.93007 26.66566,-3.63966 39.5499,-7.1332 5.18204,-1.25298 4.19884,-1.14729 8.87551,-1.85369 0.68884,-0.10405 2.76858,-0.21178 2.07364,-0.26061 -7.92937,-0.55716 -9.94365,0.83569 -15.00139,-6.40804 3.64512,7.46898 9.9944,12.83039 16.94938,17.09977 7.64734,4.16122 19.02296,7.22935 25.98556,0.11862 1.9724,-2.01428 7.496,-6.66599 4.7005,-7.03078 -9.008,-1.1755 -17.95901,2.75255 -26.93854,4.12882 3.72473,5.90579 9.30733,10.26678 14.10897,15.24962 3.09067,2.38672 4.07607,9.73542 8.23087,10.35884 7.0403,1.05637 14.2279,-0.53922 21.3418,-0.80884 1.4142,0.97534 10.1884,-6.97118 11.8177,-8.94002 -6.2575,-8.36432 -11.4678,-17.62556 -18.7723,-25.09294 -1.4124,-1.44387 -4.0341,-0.21615 -6.0527,-0.28565 -11.1699,-0.38457 -22.34948,0.12243 -33.51829,0.38129 0.45558,-0.10073 1.82868,-0.23654 1.36674,-0.3022 -8.70336,-1.23705 -17.61316,-1.19328 -25.70728,-5.1208 -4.47952,-3.70104 -5.02307,-10.02835 -6.39052,-15.33113 -3.35362,-9.91154 -10.11136,-16.7284 -19.20022,-21.49216 -5.83278,-1.93194 -11.06564,-4.55341 -16.24419,-7.81764 -2.23103,-1.259 -4.34694,-2.7141 -6.57759,-3.97326 -0.42866,-0.24198 -1.04869,0.0103 -1.45128,-0.27297 -1.5025,-1.05708 -2.75981,-2.42887 -4.20915,-3.55774 -1.61706,-1.4533 -22.16989,21.41538 -20.55283,22.86869 v 0 c -3.13043,-3.33399 9.23868,9.87652 11.22963,9.5125 6.21619,3.85507 12.61553,7.66404 19.64856,9.46231 0.77054,0.2704 1.54108,0.5408 2.31161,0.81121 0.0536,-0.23835 -0.0801,-0.75564 0.16085,-0.71503 0.55421,0.0934 0.81865,1.04448 1.37625,0.97408 1.25489,-0.15842 -1.7315,-2.7376 1.64731,1.09579 3.0849,11.80962 5.54095,23.50405 15.07586,32.1549 2.04581,1.63715 3.9527,3.46489 6.13743,4.91146 14.88989,9.85894 33.86179,10.45065 50.99139,10.74066 11.20852,-0.39442 22.42232,-0.79988 33.52762,-2.47571 1.54,-0.23239 5.0911,0.65902 4.6,-0.81897 -2.9865,-8.98842 -8.8186,-16.76534 -13.2279,-25.14801 3.0297,-4.95933 -6.7813,5.00189 -8.6448,5.38151 6.409,0.18294 12.9395,-0.70637 19.227,0.54882 1.6155,0.32251 2.1241,2.52725 3.0402,3.89643 0.2972,0.44414 0.7134,2.01327 0.5695,1.49861 -1.2319,-4.40726 -3.1991,-8.33067 -6.1697,-11.85454 -3.0764,-3.12248 -6.2237,-7.42292 -9.966,-9.74873 -0.1986,-0.1234 -0.3987,0.47338 -0.6025,0.35892 -0.567,-0.3184 -0.879,-0.95848 -1.3185,-1.43772 -9.8563,0.0629 -19.94334,2.31043 -29.56871,0.18877 -2.31833,-0.51101 2.48285,-4.09575 4.14238,-5.79332 1.03885,-1.06267 2.32912,-2.12045 3.80018,-2.33132 3.34274,-0.47918 6.78168,-0.13871 10.12515,0.33514 0.3488,0.0494 2.4114,2.21741 0.4915,0.93554 -1.2028,-0.65062 -2.5105,-1.12924 -3.62332,-1.92402 -1.02433,-0.73157 -1.78896,-1.81842 -2.88644,-2.43485 -0.28098,-0.15782 -2.03001,0.60957 -2.346,-0.67926 -3.10643,-5.14131 -4.5944,-9.17617 -11.41843,-11.34091 -7.82699,-2.48289 -20.26934,0.42291 -28.32289,1.78502 -11.2905,2.72962 -22.47964,5.97205 -34.11078,6.96206 -6.20577,1.13685 -17.72198,2.84356 6.11055,2.91448 0.73683,0.002 -1.18784,-0.87368 -1.80632,-1.2742 -2.47903,-1.60544 -2.37928,-1.32486 -5.73298,-2.61795 -18.20768,-3.93252 -43.19749,-6.60231 -60.97478,-2.42171 -3.68705,0.86706 -7.13606,2.54189 -10.7041,3.81284 -2.81451,3.12614 -6.52021,5.63742 -8.44354,9.37842 -4.77659,9.29079 1.59637,25.19367 11.86519,28.12773 4.81677,1.37627 10.00132,0.59596 15.00198,0.89394 2.3028,-0.74111 4.73432,-1.1624 6.90838,-2.22331 12.3423,-6.02288 18.66095,-18.63007 19.24606,-31.88422 -1.68946,-11.98678 -0.59979,-16.19478 -22.34928,-19.82414 -9.40434,-1.56931 -13.65369,16.56732 -13.21848,22.38632 0.22129,2.95879 1.20353,5.81078 1.8053,8.71618 2.32008,3.46233 3.37136,8.26795 6.96026,10.38701 19.65553,11.60557 40.13867,1.53247 53.95293,-13.28182 3.90529,-4.18799 7.04027,-9.03309 10.56041,-13.54964 6.95169,-12.80136 10.49964,-17.60822 14.45729,-31.72297 1.24018,-4.42303 5.57487,-10.35283 2.31139,-13.58561 -26.41543,-26.16696 -28.76349,-20.05179 -39.00185,-3.66268 -4.69167,8.16251 -9.46648,16.33909 -13.86323,24.665 -0.30229,0.57244 -1.29296,1.56584 -0.69485,1.81348 3.29191,1.36298 7.03916,1.21116 10.45412,2.22724 0.60026,0.1786 -1.23268,0.22207 -1.84903,0.3331 -1.08645,-0.56238 -2.20658,-1.064 -3.25936,-1.68713 -1.13,-0.66884 -1.97467,-2.33322 -3.27916,-2.18298 -28.94611,3.33378 -27.15395,-1.93438 -31.26715,12.03807 -0.49371,1.63664 -1.80821,6.06482 -2.36839,7.62802 -1.2632,3.52495 -2.28915,4.9616 -1.91026,4.85642 15.02456,-4.17105 -3.6217,-7.46247 21.32573,2.69633 0.47548,1.25758 1.25159,2.43969 1.42644,3.77273 2.97318,22.66653 -20.43601,-18.97035 -31.28668,-5.66268 -7.25545,4.17507 -12.11101,5.71338 -20.71638,5.86445 -2.19194,0.56279 5.76719,31.56157 7.95913,30.99877 z" /></g></svg>
